<svg width="24" height="25" viewBox="0 0 24 25" fill="none" xmlns="http://www.w3.org/2000/svg">
<g opacity="0.6">
<path fill-rule="evenodd" clip-rule="evenodd" d="M22.5 6.75977H1.5C1.22386 6.75977 1 6.98362 1 7.25977C1 7.53591 1.22386 7.75977 1.5 7.75977H22.5C22.7761 7.75977 23 7.53591 23 7.25977C23 6.98362 22.7761 6.75977 22.5 6.75977ZM1.5 5.75977C0.671573 5.75977 0 6.43134 0 7.25977C0 8.04532 0.603859 8.68983 1.37271 8.75444L1.375 8.76055L3.02669 13.165C3.48217 14.3797 4.48669 15.2754 5.69544 15.6132L4.7 16.3598L5.3 17.1598L7.16563 15.7605H14.0167C14.0448 15.4162 14.1078 15.0816 14.2022 14.7605H6.772C5.52147 14.7605 4.40211 13.9848 3.96301 12.8139L2.443 8.76055H21.557L20.5595 11.4206C20.8802 11.5258 21.1866 11.6626 21.475 11.8272L22.625 8.76055L22.6273 8.75444C23.3961 8.68983 24 8.04532 24 7.25977C24 6.43134 23.3284 5.75977 22.5 5.75977H1.5ZM21.4365 16.0967V15.2471H19.4541V13.1719H18.5508V15.2471H16.5635V16.0967H18.5508V18.3477H19.4541V16.0967H21.4365Z" fill="#101820"/>
</g>
</svg>
