<svg width="24" height="25" viewBox="0 0 24 25" fill="none" xmlns="http://www.w3.org/2000/svg">
<g opacity="0.6">
<path fill-rule="evenodd" clip-rule="evenodd" d="M6.81818 10.3086L5.42869 2.66637C5.20547 1.43869 6.14862 0.308594 7.39643 0.308594H16.6036C17.8514 0.308594 18.7945 1.43868 18.5713 2.66636L17.1818 10.3086H20.0909C20.593 10.3086 21 10.7239 21 11.226C21 14.8247 18.8879 17.9733 15.8357 19.4372L17.6464 21.2479C18.5914 22.1929 17.9221 23.8086 16.5858 23.8086H7.41421C6.07786 23.8086 5.4086 22.1929 6.35355 21.2479L8.16426 19.4372C5.11208 17.9733 3 14.8247 3 11.226C3 10.7239 3.40701 10.3086 3.90909 10.3086H6.81818ZM7.39643 1.30859H16.6036C17.2275 1.30859 17.6991 1.87364 17.5874 2.48748L16.1654 10.3086H7.83458L6.41256 2.48748C6.30095 1.87364 6.77252 1.30859 7.39643 1.30859ZM4.00042 11.3086C4.04473 15.7015 7.62096 19.3086 12 19.3086C16.379 19.3086 19.9553 15.7015 19.9996 11.3086H4.00042ZM7.06066 21.955L9.16967 19.846C10.0597 20.1459 11.0112 20.3086 12 20.3086C12.9888 20.3086 13.9403 20.1459 14.8303 19.846L16.9393 21.955C17.2543 22.27 17.0312 22.8086 16.5858 22.8086H7.41421C6.96876 22.8086 6.74568 22.27 7.06066 21.955Z" fill="#101820"/>
</g>
</svg>
