<svg width="24" height="25" viewBox="0 0 24 25" fill="none" xmlns="http://www.w3.org/2000/svg">
<g opacity="0.6">
<path d="M21 10.9492H3V9.94922H21V10.9492Z" fill="#101820"/>
<path d="M10 7.94922H14V6.94922H10V7.94922Z" fill="#101820"/>
<path fill-rule="evenodd" clip-rule="evenodd" d="M0 5.94922C0 5.39693 0.447715 4.94922 1 4.94922H23C23.5523 4.94922 24 5.39693 24 5.94922V11.9492C24 12.5015 23.5523 12.9492 23 12.9492H1C0.447716 12.9492 0 12.5015 0 11.9492V5.94922ZM1 5.94922H23V11.9492H1V5.94922Z" fill="#101820"/>
<path d="M6.44721 19.1728L8.44721 15.1728L7.55279 14.7256L5.55279 18.7256L6.44721 19.1728Z" fill="#101820"/>
<path d="M15.5528 15.1728L17.5528 19.1728L18.4472 18.7256L16.4472 14.7256L15.5528 15.1728Z" fill="#101820"/>
<path d="M11.5 14.9492V18.9492H12.5V14.9492H11.5Z" fill="#101820"/>
</g>
</svg>
