<svg width="24" height="25" viewBox="0 0 24 25" fill="none" xmlns="http://www.w3.org/2000/svg">
<g opacity="0.6">
<path fill-rule="evenodd" clip-rule="evenodd" d="M13.6256 3.22387C13.8613 2.89575 14 2.49338 14 2.05859C14 0.954024 13.1046 0.0585938 12 0.0585938C10.8954 0.0585938 10 0.954024 10 2.05859C10 2.49338 10.1387 2.89575 10.3744 3.22387C8.51143 3.60841 6.88525 4.64067 5.74169 6.07477C5.39824 5.46806 4.74694 5.05859 4 5.05859C2.89543 5.05859 2 5.95402 2 7.05859C2 8.16316 2.89543 9.05859 4 9.05859C4.08682 9.05859 4.17234 9.05306 4.25624 9.04233C4.089 9.68646 4 10.3621 4 11.0586C4 12.1573 4.22148 13.2043 4.62224 14.1573C4.4264 14.0932 4.21724 14.0586 4 14.0586C2.89543 14.0586 2 14.954 2 16.0586C2 17.1632 2.89543 18.0586 4 18.0586C5.01267 18.0586 5.84955 17.306 5.9818 16.3295C6.55413 16.9825 7.23101 17.5415 7.98631 17.9804L5.67804 23.0586H4V24.0586H19.9996V23.0586H18.322L16.0137 17.9804C16.769 17.5415 17.4459 16.9825 18.0182 16.3295C18.1504 17.306 18.9873 18.0586 20 18.0586C21.1046 18.0586 22 17.1632 22 16.0586C22 14.954 21.1046 14.0586 20 14.0586C19.7828 14.0586 19.5736 14.0932 19.3778 14.1573C19.7785 13.2043 20 12.1573 20 11.0586C20 10.3621 19.911 9.68646 19.7438 9.04233C19.8277 9.05306 19.9132 9.05859 20 9.05859C21.1046 9.05859 22 8.16316 22 7.05859C22 5.95402 21.1046 5.05859 20 5.05859C19.2531 5.05859 18.6018 5.46806 18.2583 6.07477C17.1147 4.64067 15.4886 3.60841 13.6256 3.22387ZM13 2.05859C13 2.61088 12.5523 3.05859 12 3.05859C11.4477 3.05859 11 2.61088 11 2.05859C11 1.50631 11.4477 1.05859 12 1.05859C12.5523 1.05859 13 1.50631 13 2.05859ZM13.8982 10.4268L18.4584 8.35401C18.8072 9.18609 19 10.0998 19 11.0586C19 12.2372 18.7087 13.3478 18.1942 14.3223L13.8023 11.9267C13.929 11.6641 14 11.3696 14 11.0586C14 10.8378 13.9642 10.6254 13.8982 10.4268ZM13.7723 13.0494L17.6643 15.1723C17.1106 15.9334 16.4072 16.5786 15.5975 17.0647L13.7723 13.0494ZM12.5 9.1216C12.82 9.20397 13.1091 9.36357 13.3461 9.57934L18.0061 7.46114C16.8632 5.55706 14.8404 4.24135 12.5 4.07618V9.1216ZM10.1774 10.2339C10.0634 10.4854 10 10.7646 10 11.0586C10 11.2843 10.0374 11.5014 10.1063 11.7038L5.6976 14.1085C5.25064 13.1866 5 12.1519 5 11.0586C5 10.0829 5.19963 9.15377 5.56028 8.30991C5.59419 8.26769 5.62642 8.22406 5.65687 8.17913L10.1774 10.2339ZM6.19731 14.9751C6.77019 15.8222 7.5237 16.5372 8.40255 17.0647L10.3925 12.6868L6.19731 14.9751ZM10.8336 9.43374C11.0317 9.29129 11.2569 9.18417 11.5 9.1216V4.07618C9.23294 4.23617 7.26393 5.47572 6.10393 7.28388L10.8336 9.43374ZM20 8.05859C19.724 8.05859 19.4741 7.94677 19.2931 7.76596C19.2061 7.57335 19.1116 7.38482 19.01 7.20071C19.0034 7.15429 19 7.10684 19 7.05859C19 6.50631 19.4477 6.05859 20 6.05859C20.5523 6.05859 21 6.50631 21 7.05859C21 7.61088 20.5523 8.05859 20 8.05859ZM4.98998 7.2007C4.88844 7.38481 4.79394 7.57335 4.70685 7.76596C4.52591 7.94677 4.27601 8.05859 4 8.05859C3.44772 8.05859 3 7.61088 3 7.05859C3 6.50631 3.44772 6.05859 4 6.05859C4.55228 6.05859 5 6.50631 5 7.05859C5 7.10684 4.99658 7.15428 4.98998 7.2007ZM9.29542 17.517L11.3682 12.9568C11.4115 12.9712 11.4555 12.9841 11.5 12.9956V18.041C10.7233 17.9862 9.9816 17.8047 9.29542 17.517ZM12.5 18.041V12.9956C12.5445 12.9841 12.5885 12.9712 12.6318 12.9568L14.7046 17.517C14.0184 17.8047 13.2767 17.9862 12.5 18.041ZM10 20.0586C10 19.6238 10.1387 19.2214 10.3744 18.8933C9.85664 18.7864 9.35722 18.6296 8.88135 18.4279L6.7765 23.0586H17.2235L15.1187 18.4279C14.6428 18.6296 14.1434 18.7864 13.6256 18.8933C13.8613 19.2214 14 19.6238 14 20.0586C14 21.1632 13.1046 22.0586 12 22.0586C10.8954 22.0586 10 21.1632 10 20.0586ZM12 12.0586C12.5523 12.0586 13 11.6109 13 11.0586C13 10.5063 12.5523 10.0586 12 10.0586C11.4477 10.0586 11 10.5063 11 11.0586C11 11.6109 11.4477 12.0586 12 12.0586ZM12 21.0586C12.5523 21.0586 13 20.6109 13 20.0586C13 19.5063 12.5523 19.0586 12 19.0586C11.4477 19.0586 11 19.5063 11 20.0586C11 20.6109 11.4477 21.0586 12 21.0586ZM21 16.0586C21 16.6109 20.5523 17.0586 20 17.0586C19.4477 17.0586 19 16.6109 19 16.0586C19 15.5063 19.4477 15.0586 20 15.0586C20.5523 15.0586 21 15.5063 21 16.0586ZM5 16.0586C5 16.6109 4.55228 17.0586 4 17.0586C3.44772 17.0586 3 16.6109 3 16.0586C3 15.5063 3.44772 15.0586 4 15.0586C4.55228 15.0586 5 15.5063 5 16.0586Z" fill="#101820"/>
</g>
</svg>
