<svg width="51" height="51" viewBox="0 0 51 51" fill="none" xmlns="http://www.w3.org/2000/svg">
<circle cx="21.3555" cy="30" r="20.5" fill="#E1EDFF"/>
<path d="M11.3588 14.8848C11.3393 14.071 11.4044 13.3385 11.5542 12.6875C11.7039 12.0299 11.935 11.457 12.2475 10.9688C12.56 10.474 12.9181 10.0475 13.3217 9.68945C13.7319 9.32487 14.2104 8.99609 14.7573 8.70312C15.0242 8.55339 15.3693 8.38086 15.7924 8.18555C16.2221 7.98372 16.5835 7.81445 16.8764 7.67773C17.1759 7.54102 17.4982 7.36523 17.8432 7.15039C18.1883 6.93555 18.465 6.71745 18.6733 6.49609C18.8881 6.27474 19.0672 6.0013 19.2104 5.67578C19.3536 5.35026 19.4253 4.99219 19.4253 4.60156C19.4253 3.80078 19.1616 3.13346 18.6342 2.59961C18.1069 2.05924 17.3484 1.78906 16.3588 1.78906C15.8706 1.78906 15.4051 1.85417 14.9624 1.98438C14.5262 2.11458 14.1421 2.29036 13.81 2.51172C13.4845 2.73307 13.2111 2.94792 12.9897 3.15625C12.7684 3.36458 12.5665 3.58594 12.3842 3.82031L11.4858 2.94141C11.5965 2.80469 11.7137 2.66797 11.8374 2.53125C11.9611 2.39453 12.1824 2.19271 12.5014 1.92578C12.8269 1.65885 13.1622 1.43099 13.5073 1.24219C13.8588 1.05339 14.3016 0.884115 14.8354 0.734375C15.3758 0.578125 15.9324 0.5 16.5053 0.5C17.215 0.5 17.8562 0.610677 18.4292 0.832031C19.0021 1.04688 19.4643 1.34635 19.8159 1.73047C20.174 2.10807 20.4474 2.54102 20.6362 3.0293C20.825 3.51107 20.9194 4.02865 20.9194 4.58203C20.9194 4.85547 20.8934 5.11914 20.8413 5.37305C20.7892 5.62695 20.7241 5.85482 20.646 6.05664C20.5743 6.25846 20.4669 6.45703 20.3237 6.65234C20.187 6.84115 20.0568 7.00716 19.9331 7.15039C19.8094 7.29362 19.6466 7.44336 19.4448 7.59961C19.243 7.74935 19.0672 7.87305 18.9174 7.9707C18.7742 8.06185 18.5822 8.17253 18.3413 8.30273C18.1069 8.42643 17.9181 8.52409 17.7749 8.5957C17.6316 8.66081 17.4363 8.75195 17.1889 8.86914C16.9415 8.97982 16.7592 9.06445 16.6421 9.12305C15.978 9.42253 15.4083 9.73177 14.9331 10.0508C14.4643 10.3633 14.0965 10.6595 13.8296 10.9395C13.5691 11.2129 13.3641 11.5156 13.2143 11.8477C13.0646 12.1797 12.9669 12.4759 12.9213 12.7363C12.8758 12.9902 12.8497 13.293 12.8432 13.6445H20.9389V14.8848H11.3588Z" fill="#002D72"/>
<path fill-rule="evenodd" clip-rule="evenodd" d="M29.5229 14.8848V11.0859H22.5405V9.86523L29.9428 0.685547H30.8803V9.8457H32.6381V11.0859H30.8803V14.8848H29.5229ZM24.0053 9.8457H29.6401V2.80469L24.0053 9.8457Z" fill="#002D72"/>
<path d="M47.5547 21.0117H38.3555V19.5H50.1445L41.5078 36.5391H39.6797L47.5547 21.0117Z" fill="#002D72"/>
<path d="M17.3555 32.5L49.3555 7.5L48.7398 6.71198L16.7398 31.712L17.3555 32.5Z" fill="#002D72"/>
</svg>
