<svg width="24" height="25" viewBox="0 0 24 25" fill="none" xmlns="http://www.w3.org/2000/svg">
<g opacity="0.6">
<path d="M7.5 12.0586H4.5V11.0586H7.5V12.0586Z" fill="#101820"/>
<path d="M11.5 12.0586H8.5V11.0586H11.5V12.0586Z" fill="#101820"/>
<path fill-rule="evenodd" clip-rule="evenodd" d="M9.5 2.05859H17.5L13 10.0586H5L9.5 2.05859ZM6.70985 9.05859L10.0848 3.05859H15.7902L12.4152 9.05859H6.70985Z" fill="#101820"/>
<path fill-rule="evenodd" clip-rule="evenodd" d="M4 14.0586V17.0586H11.5V14.0586H4ZM10.5 15.0586H5V16.0586H10.5V15.0586Z" fill="#101820"/>
<path fill-rule="evenodd" clip-rule="evenodd" d="M16.933 15.7056H18.1756C18.5706 15.7056 18.9034 15.6341 19.174 15.4913C19.4445 15.3457 19.6492 15.1369 19.7881 14.8649C19.9294 14.5902 20 14.2605 20 13.8759C20 13.5215 19.9294 13.2083 19.7881 12.9363C19.6492 12.6616 19.4445 12.4473 19.174 12.2935C18.9034 12.1369 18.5706 12.0586 18.1756 12.0586H16.2434V15.0586H15.5V15.7056H16.2434V16.2701H15.5V16.9212H16.2434V18.0586H16.933V16.9212H18.1325V16.2701H16.933V15.7056ZM16.933 15.0586H18.1756C18.4366 15.0586 18.6508 15.0105 18.8184 14.9144C18.986 14.8182 19.1093 14.6822 19.1883 14.5064C19.2698 14.3306 19.3105 14.1232 19.3105 13.8841C19.3105 13.6891 19.2721 13.5023 19.1955 13.3237C19.1213 13.1451 19.0004 12.9982 18.8328 12.8828C18.6676 12.7674 18.4485 12.7097 18.1756 12.7097H16.933V15.0586Z" fill="#101820"/>
<path fill-rule="evenodd" clip-rule="evenodd" d="M8.58557 0.534818C8.76752 0.238888 9.09003 0.0585938 9.43742 0.0585938H21.5C22.0523 0.0585938 22.5 0.506309 22.5 1.05859V23.0586C22.5 23.6109 22.0523 24.0586 21.5 24.0586H2.5C1.94772 24.0586 1.5 23.6109 1.5 23.0586V12.3414C1.5 12.1565 1.55128 11.9752 1.64814 11.8177L8.58557 0.534818ZM9.43742 1.05859H18.6752L13.1701 11.6099C13.0584 11.8241 13 12.0622 13 12.3038V23.0586H2.5V12.3414L9.43742 1.05859ZM14.0567 12.0725L19.8031 1.05859H21.5V23.0586H14V12.3038C14 12.2232 14.0195 12.1439 14.0567 12.0725Z" fill="#101820"/>
</g>
</svg>
