<svg width="24" height="25" viewBox="0 0 24 25" fill="none" xmlns="http://www.w3.org/2000/svg">
<g opacity="0.6">
<path fill-rule="evenodd" clip-rule="evenodd" d="M21 1.55859V12.5586H22.5C22.6726 12.5586 22.8248 12.646 22.9146 12.779C22.9685 12.8588 23 12.955 23 13.0586V22.5586H24V23.5586H0V22.5586H1V13.0586C1 12.7825 1.22386 12.5586 1.5 12.5586H3V1.55859C3 1.00631 3.44772 0.558594 4 0.558594H20C20.5523 0.558594 21 1.00631 21 1.55859ZM4 1.55859H11.5V9.05859H4V1.55859ZM4 10.0586V12.5586H11.5V10.0586H4ZM12.5 10.0586V12.5586H20V10.0586H12.5ZM20 9.05859V1.55859H12.5V9.05859H20ZM2 22.5586H4.5V13.5586H2V22.5586ZM5.5 22.5586H8V13.5586H5.5V22.5586ZM9 22.5586H11.5V13.5586H9V22.5586ZM12.5 22.5586H15V13.5586H12.5V22.5586ZM16 22.5586H18.5V13.5586H16V22.5586ZM19.5 22.5586H22V13.5586H19.5V22.5586Z" fill="#101820"/>
</g>
</svg>
