<svg width="24" height="25" viewBox="0 0 24 25" fill="none" xmlns="http://www.w3.org/2000/svg">
<g opacity="0.6">
<path fill-rule="evenodd" clip-rule="evenodd" d="M6.40923 14.0586L5.90098 24.0586H18.099L17.5908 14.0586L18.0731 9.31394C18.0823 9.22325 18.1999 9.19097 18.2555 9.26389L20.695 12.4637C20.9116 12.7478 21.3517 12.7254 21.5374 12.421L23.8551 8.62081C24.0634 8.27942 24.0459 7.84904 23.8107 7.52507L20.9839 3.63184C19.7696 1.95945 18.0479 0.708511 16.066 0.0585938H7.93399C5.95206 0.708511 4.2304 1.95944 3.01611 3.63184L0.189342 7.52507C-0.0458835 7.84904 -0.0633543 8.27942 0.14486 8.62081L2.46258 12.421C2.64829 12.7254 3.08843 12.7478 3.305 12.4637L5.74447 9.26389C5.80006 9.19097 5.91772 9.22325 5.92694 9.31394L6.40923 14.0586ZM7.40159 14.5586L6.96958 23.0586H9.45874V14.5586H7.40159ZM9.6367 13.5586H7.37998L6.9384 9.21443C6.83699 8.21686 5.54273 7.86184 4.93127 8.66389L2.94533 11.2688L1.0165 8.10631L3.84327 4.21308C4.81412 2.87597 6.14646 1.83915 7.68341 1.21663L11.5233 9.38275L9.6367 13.5586ZM10.9835 14.5586L13.4231 17.7586L12.6099 18.3586L10.4752 15.5586V23.0586H17.0304L16.5984 14.5586H10.9835ZM16.62 13.5586H10.7491L16.3236 1.21948C17.8576 1.84232 19.1874 2.87801 20.1567 4.21308L22.9835 8.10631L21.0547 11.2688L19.0687 8.66389C18.4573 7.86184 17.163 8.21686 17.0616 9.21443L16.62 13.5586ZM15.2839 1.05859L12.0721 8.168L8.72909 1.05859H15.2839Z" fill="#101820"/>
</g>
</svg>
