<svg width="24" height="25" viewBox="0 0 24 25" fill="none" xmlns="http://www.w3.org/2000/svg">
<g opacity="0.6">
<path fill-rule="evenodd" clip-rule="evenodd" d="M1.37301 9.35408C0.604018 9.28961 0 8.64503 0 7.85938C0 7.03095 0.671573 6.35938 1.5 6.35938H22.5C23.3284 6.35938 24 7.03095 24 7.85938C24 8.64503 23.396 9.28961 22.627 9.35408L20.9733 13.7639C20.5177 14.9788 19.5129 15.8746 18.3038 16.2122L19.3 16.9594L18.7 17.7594L16.8333 16.3594H7.16667L5.3 17.7594L4.7 16.9594L5.6962 16.2122C4.48711 15.8746 3.48227 14.9788 3.02669 13.7639L1.37301 9.35408ZM1.5 7.35938H22.5C22.7761 7.35938 23 7.58323 23 7.85938C23 8.13552 22.7761 8.35938 22.5 8.35938H1.5C1.22386 8.35938 1 8.13552 1 7.85938C1 7.58323 1.22386 7.35938 1.5 7.35938ZM2.443 9.35938L3.96301 13.4127C4.40211 14.5837 5.52147 15.3594 6.772 15.3594H17.228C18.4785 15.3594 19.5979 14.5837 20.037 13.4127L21.557 9.35938H2.443Z" fill="#101820"/>
</g>
</svg>
