<svg width="24" height="25" viewBox="0 0 24 25" fill="none" xmlns="http://www.w3.org/2000/svg">
<g opacity="0.6">
<path fill-rule="evenodd" clip-rule="evenodd" d="M16 8.05859C16 9.16316 15.1046 10.0586 14 10.0586C12.8954 10.0586 12 9.16316 12 8.05859C12 6.95402 12.8954 6.05859 14 6.05859C15.1046 6.05859 16 6.95402 16 8.05859ZM15 8.05859C15 8.61088 14.5523 9.05859 14 9.05859C13.4477 9.05859 13 8.61088 13 8.05859C13 7.50631 13.4477 7.05859 14 7.05859C14.5523 7.05859 15 7.50631 15 8.05859Z" fill="#101820"/>
<path fill-rule="evenodd" clip-rule="evenodd" d="M1 3.05859C0.447715 3.05859 0 3.50631 0 4.05859V20.0586C0 20.6109 0.447716 21.0586 1 21.0586H23C23.5523 21.0586 24 20.6109 24 20.0586V4.05859C24 3.50631 23.5523 3.05859 23 3.05859H1ZM5.40404 4.05859H1V20.0586H2.58051L5.40404 4.05859ZM6.41949 4.05859L4.21361 16.5586H4.74269L9.16448 10.3681C9.57536 9.79285 10.4371 9.81393 10.8194 10.4086L13.0199 13.8316L14.2715 12.58C14.6783 12.1732 15.3437 12.1927 15.726 12.6227L19.2245 16.5586H19.7864L17.5805 4.05859H6.41949ZM3.59596 20.0586L4.03714 17.5586H19.9629L20.404 20.0586H3.59596ZM23 20.0586H21.4195L18.596 4.05859H23V20.0586ZM13.5733 14.6924L14.773 16.5586H17.8866L14.9786 13.2871L13.5733 14.6924ZM13.5842 16.5586L9.97821 10.9493L5.97159 16.5586H13.5842Z" fill="#101820"/>
</g>
</svg>
