<svg width="24" height="25" viewBox="0 0 24 25" fill="none" xmlns="http://www.w3.org/2000/svg">
<g opacity="0.6">
<path d="M3 14.0586H21V13.0586H3V14.0586Z" fill="#101820"/>
<path d="M3 20.0586H21V19.0586H3V20.0586Z" fill="#101820"/>
<path fill-rule="evenodd" clip-rule="evenodd" d="M3.21866 8.74081C3.84788 9.26516 4.53449 9.70646 5.26158 10.0586H3.5C1.567 10.0586 0 11.6256 0 13.5586C0 14.8318 0.679792 15.9461 1.69621 16.5586C0.679792 17.171 0 18.2854 0 19.5586C0 21.4916 1.567 23.0586 3.5 23.0586H20.5C22.433 23.0586 24 21.4916 24 19.5586C24 18.2854 23.3202 17.171 22.3038 16.5586C23.3202 15.9461 24 14.8318 24 13.5586C24 11.6256 22.433 10.0586 20.5 10.0586H18.7384C19.4655 9.70646 20.1521 9.26516 20.7813 8.74081L23.0781 6.82682C23.5579 6.42702 23.5579 5.69017 23.0781 5.29037L20.7813 3.37638C18.9842 1.87876 16.7189 1.05859 14.3795 1.05859H9.6205C7.28113 1.05859 5.01581 1.87875 3.21866 3.37638L0.921865 5.29037C0.442111 5.69017 0.44211 6.42702 0.921865 6.82681L3.21866 8.74081ZM14.3795 2.05859H9.6205C7.51507 2.05859 5.47628 2.79674 3.85884 4.1446L2.16205 5.55859H21.838L20.1412 4.1446C18.5237 2.79674 16.4849 2.05859 14.3795 2.05859ZM21.838 6.55859H2.16205L3.85884 7.97259C5.47627 9.32045 7.51507 10.0586 9.6205 10.0586H14.3795C16.4849 10.0586 18.5237 9.32045 20.1412 7.97259L21.838 6.55859ZM20.5 11.0586C21.8807 11.0586 23 12.1779 23 13.5586C23 14.9393 21.8807 16.0586 20.5 16.0586H3.5C2.11929 16.0586 1 14.9393 1 13.5586C1 12.1779 2.11929 11.0586 3.5 11.0586H20.5ZM1 19.5586C1 18.1779 2.11929 17.0586 3.5 17.0586H20.5C21.8807 17.0586 23 18.1779 23 19.5586C23 20.9393 21.8807 22.0586 20.5 22.0586H3.5C2.11929 22.0586 1 20.9393 1 19.5586Z" fill="#101820"/>
</g>
</svg>
