<svg width="25" height="24" viewBox="0 0 25 24" fill="none" xmlns="http://www.w3.org/2000/svg">
<path fill-rule="evenodd" clip-rule="evenodd" d="M7.25 6.75C7.25 3.85051 9.6005 1.5 12.5 1.5C15.3995 1.5 17.75 3.85051 17.75 6.75V9H19.5C22.2614 9 24.5 11.2386 24.5 14V17.5C24.5 20.2614 22.2614 22.5 19.5 22.5H5.5C2.73858 22.5 0.5 20.2614 0.5 17.5V14C0.5 11.2386 2.73858 9 5.5 9H7.25V6.75ZM16.75 6.75V8.75H8.25V6.75C8.25 4.40279 10.1528 2.5 12.5 2.5C14.8472 2.5 16.75 4.40279 16.75 6.75ZM1.5 14C1.5 11.7909 3.29086 10 5.5 10H19.5C21.7091 10 23.5 11.7909 23.5 14V17.5C23.5 19.7091 21.7091 21.5 19.5 21.5H5.5C3.29086 21.5 1.5 19.7091 1.5 17.5V14Z" fill="#101820"/>
</svg>
