<svg width="24" height="25" viewBox="0 0 24 25" fill="none" xmlns="http://www.w3.org/2000/svg">
<g opacity="0.6">
<path d="M14 9.55859V12.5586H15V9.55859H14Z" fill="#101820"/>
<path d="M9 12.5586V9.55859H10V12.5586H9Z" fill="#101820"/>
<path fill-rule="evenodd" clip-rule="evenodd" d="M15 22.0586H9V23.0586C9 23.6109 8.55228 24.0586 8 24.0586H7C6.44772 24.0586 6 23.6109 6 23.0586V22.0586H5C3.89543 22.0586 3 21.1632 3 20.0586V2.05859C3 0.954024 3.89543 0.0585938 5 0.0585938H19C20.1046 0.0585938 21 0.954024 21 2.05859V20.0586C21 21.1632 20.1046 22.0586 19 22.0586H18V23.0586C18 23.6109 17.5523 24.0586 17 24.0586H16C15.4477 24.0586 15 23.6109 15 23.0586V22.0586ZM12.5 1.05859H19C19.5523 1.05859 20 1.50631 20 2.05859V20.0586C20 20.6109 19.5523 21.0586 19 21.0586H12.5V1.05859ZM17 22.0586H16V23.0586H17V22.0586ZM11.5 1.05859H5C4.44771 1.05859 4 1.50631 4 2.05859V20.0586C4 20.6109 4.44772 21.0586 5 21.0586H11.5V1.05859ZM7 22.0586H8V23.0586H7V22.0586Z" fill="#101820"/>
</g>
</svg>
