<svg width="24" height="25" viewBox="0 0 24 25" fill="none" xmlns="http://www.w3.org/2000/svg">
<g opacity="0.6">
<path fill-rule="evenodd" clip-rule="evenodd" d="M0 1.80859C0 1.25631 0.447715 0.808594 1 0.808594H23C23.5523 0.808594 24 1.25631 24 1.80859V12.8086C24 13.3609 23.5523 13.8086 23 13.8086H13.118L17.2236 15.8614L16.7764 16.7558L12.5 14.6176V16.8811C12.5 17.6695 13.1391 18.3086 13.9275 18.3086H18.0008C18.8288 18.3086 19.5 18.9798 19.5 19.8078C19.5 20.6358 18.8288 21.307 18.0008 21.307H6.00078C5.72421 21.307 5.5 21.5312 5.5 21.8078C5.5 22.0844 5.72421 22.3086 6.00078 22.3086H12V23.3086H6.00078C5.17192 23.3086 4.5 22.6367 4.5 21.8078C4.5 20.979 5.17192 20.307 6.00078 20.307H18.0008C18.2765 20.307 18.5 20.0835 18.5 19.8078C18.5 19.5321 18.2765 19.3086 18.0008 19.3086H13.9275C12.5868 19.3086 11.5 18.2217 11.5 16.8811V14.6176L7.22361 16.7558L6.77639 15.8614L10.882 13.8086H1C0.447716 13.8086 0 13.3609 0 12.8086V1.80859ZM1 1.80859H23V12.8086H1V1.80859Z" fill="#101820"/>
</g>
</svg>
