<svg width="24" height="25" viewBox="0 0 24 25" fill="none" xmlns="http://www.w3.org/2000/svg">
<g opacity="0.6">
<path d="M12 12.5586V9.05859H11V12.5586C11 12.8347 10.7761 13.0586 10.5 13.0586H9.5V9.05859H8.5V13.0586H7.5C7.22386 13.0586 7 12.8347 7 12.5586V9.05859H6V13.0586C6 14.1632 6.89543 15.0586 8 15.0586V20.0586C8 20.6109 8.44771 21.0586 9 21.0586C9.55229 21.0586 10 20.6109 10 20.0586V15.0586C11.1046 15.0586 12 14.1632 12 13.0586V12.6602L11.9965 12.6626C11.9988 12.6282 12 12.5935 12 12.5586Z" fill="#101820"/>
<path d="M17.1404 16.0586H16V20.0586C16 20.6109 15.5523 21.0586 15 21.0586C14.4477 21.0586 14 20.6109 14 20.0586V9.05859C16.2091 9.05859 18 10.8495 18 13.0586V15.1989C18 15.6737 17.6151 16.0586 17.1404 16.0586Z" fill="#101820"/>
<path fill-rule="evenodd" clip-rule="evenodd" d="M2 0.0585938C0.895431 0.0585938 0 0.954024 0 2.05859C0 3.16316 0.89543 4.05859 2 4.05859H6V6.05859H5C3.89543 6.05859 3 6.95402 3 8.05859V22.0586C3 23.1632 3.89543 24.0586 5 24.0586H19C20.1046 24.0586 21 23.1632 21 22.0586V8.05859C21 6.95402 20.1046 6.05859 19 6.05859H18V4.05859H22C23.1046 4.05859 24 3.16316 24 2.05859C24 0.954024 23.1046 0.0585938 22 0.0585938H2ZM22 1.05859H2C1.44772 1.05859 1 1.50631 1 2.05859C1 2.61088 1.44772 3.05859 2 3.05859H22C22.5523 3.05859 23 2.61088 23 2.05859C23 1.50631 22.5523 1.05859 22 1.05859ZM7 6.05859V4.05859H17V6.05859H7ZM5 7.05859H19C19.5523 7.05859 20 7.50631 20 8.05859V22.0586C20 22.6109 19.5523 23.0586 19 23.0586H5C4.44772 23.0586 4 22.6109 4 22.0586V8.05859C4 7.50631 4.44772 7.05859 5 7.05859Z" fill="#101820"/>
</g>
</svg>
