<svg width="51" height="51" viewBox="0 0 51 51" fill="none" xmlns="http://www.w3.org/2000/svg">
<circle cx="21" cy="30" r="20.5" fill="#E1EDFF"/>
<path d="M35.6125 17.4554L42.4271 6.25997L41.5729 5.74003L35.5 15.7169V9.5H34.5V17.1434C34.5 17.7499 35.2972 17.9734 35.6125 17.4554Z" fill="#002D72"/>
<path fill-rule="evenodd" clip-rule="evenodd" d="M50.5 16C50.5 24.5604 43.5604 31.5 35 31.5C26.4396 31.5 19.5 24.5604 19.5 16C19.5 7.43959 26.4396 0.5 35 0.5C43.5604 0.5 50.5 7.43959 50.5 16ZM49.5 16C49.5 24.0081 43.0081 30.5 35 30.5C26.9919 30.5 20.5 24.0081 20.5 16C20.5 7.99187 26.9919 1.5 35 1.5C43.0081 1.5 49.5 7.99187 49.5 16Z" fill="#002D72"/>
</svg>
