<svg width="24" height="25" viewBox="0 0 24 25" fill="none" xmlns="http://www.w3.org/2000/svg">
<g opacity="0.6">
<path fill-rule="evenodd" clip-rule="evenodd" d="M1.71199 3.97873C0.624701 4.16955 -0.0661204 5.19462 0.168992 6.26829L0.750094 8.92198L24 4.84162L23.4189 2.18794C23.1838 1.11427 22.1118 0.398573 21.0245 0.589391L1.71199 3.97873ZM15.8765 2.50224L9.21391 3.67153L13.1176 5.7421L19.7802 4.57282L15.8765 2.50224ZM17.4696 2.22266L21.3733 4.29323L22.8028 4.04235L22.4345 2.36069C22.317 1.82386 21.781 1.46601 21.2373 1.56142L17.4696 2.22266ZM1.92484 4.95076L7.62081 3.95112L11.5245 6.02169L4.86852 7.18981L1.32516 5.31035C1.46559 5.12746 1.67414 4.99476 1.92484 4.95076ZM3.27543 7.4694L1.21485 6.37643L1.52159 7.77719L3.27543 7.4694Z" fill="#101820"/>
<path fill-rule="evenodd" clip-rule="evenodd" d="M15.427 16.285C15.7042 16.486 15.7002 16.8988 15.4193 17.0945L9.78215 21.0212C9.45092 21.2519 8.99583 21.016 8.99583 20.6136V12.5984C8.99583 12.1916 9.45965 11.9568 9.78993 12.1964L15.427 16.285ZM9.99536 13.5764L14.2728 16.6788L9.99536 19.6584V13.5764Z" fill="#101820"/>
<path fill-rule="evenodd" clip-rule="evenodd" d="M0 9.63074H23.9889V21.5689C23.9889 22.6678 23.0939 23.5586 21.9898 23.5586H1.99907C0.895015 23.5586 0 22.6678 0 21.5689V9.63074ZM0.999536 10.6256H22.9893V21.5689C22.9893 22.1183 22.5418 22.5637 21.9898 22.5637H1.99907C1.44704 22.5637 0.999536 22.1183 0.999536 21.5689V10.6256Z" fill="#101820"/>
</g>
</svg>
