<svg width="24" height="25" viewBox="0 0 24 25" fill="none" xmlns="http://www.w3.org/2000/svg">
<g opacity="0.6">
<path d="M7.74595 3.1849L4.25087 1.17928L4.74631 0.308594L8.24139 2.31422L7.74595 3.1849Z" fill="#101820"/>
<path d="M3.5 3.75237H6.99508V4.75518H3.5V3.75237Z" fill="#101820"/>
<path d="M4.25087 7.32827L7.74595 5.32265L8.24139 6.19333L4.74631 8.19896L4.25087 7.32827Z" fill="#101820"/>
<path fill-rule="evenodd" clip-rule="evenodd" d="M13.9852 8.9625C13.9187 9.0118 13.858 9.06967 13.8047 9.13528L9.11798 14.9037C8.39081 15.7987 7.99367 16.9184 7.99367 18.0735V22.8058C7.99367 23.3596 8.44075 23.8086 8.99226 23.8086H17.9796C18.5311 23.8086 18.9782 23.3596 18.9782 22.8058V7.76361L20.4276 4.1248C20.69 3.46609 20.2069 2.74956 19.5004 2.74956H9.99085C9.43935 2.74956 8.99226 3.19853 8.99226 3.75237V4.75518C8.99226 5.30902 9.43935 5.75799 9.99085 5.75799H10.9894L13.9852 7.76361V8.9625ZM17.9796 22.8058L17.9796 9.76924H14.5784L9.89171 15.5377C9.30998 16.2537 8.99226 17.1494 8.99226 18.0735L8.99226 22.8058H17.9796ZM10.9894 4.75518V3.75237H9.99085V4.75518H10.9894ZM11.988 5.2213L14.2876 6.7608H18.3021L19.5004 3.75237H11.988V5.2213ZM14.9838 7.76361H17.9796L17.9796 8.76643H14.9838V7.76361Z" fill="#101820"/>
</g>
</svg>
