<svg width="24" height="25" viewBox="0 0 24 25" fill="none" xmlns="http://www.w3.org/2000/svg">
<g opacity="0.6">
<path fill-rule="evenodd" clip-rule="evenodd" d="M0 3.30859C0 3.03245 0.223858 2.80859 0.5 2.80859C0.603108 2.80859 0.698926 2.8398 0.778523 2.89329L4.49442 5.30862L4.5 5.30859H19.5L19.5047 5.30862L23.2215 2.89329C23.3011 2.8398 23.3969 2.80859 23.5 2.80859C23.7762 2.80859 24 3.03245 24 3.30859V7.2514C24 7.49414 23.8271 7.69648 23.5976 7.74188L19.7801 10.2233L15.6444 13.2561L19.8022 16.4103C19.9381 16.5134 20.0065 16.6725 19.9996 16.8309C19.9999 16.8378 20 16.8446 20 16.8516V20.8008C20.0017 20.9061 19.9703 21.0128 19.9032 21.1043C19.85 21.1769 19.7809 21.2309 19.7042 21.2651C19.6559 21.2868 19.6036 21.3009 19.5487 21.3062C19.4702 21.314 19.3896 21.3032 19.3141 21.2729C19.2731 21.2565 19.2348 21.2348 19.2001 21.2087L12 15.9287L4.79572 21.2118C4.69236 21.2876 4.56957 21.3179 4.45132 21.3063C4.39116 21.3004 4.33412 21.284 4.2821 21.2587C4.21944 21.2285 4.1623 21.1847 4.11541 21.1281C4.06142 21.0632 4.02356 20.9844 4.00796 20.8979C4.00266 20.8686 4.00003 20.839 4 20.8095C4 20.8092 4 20.8098 4 20.8095V16.8867C4 16.8736 4.0005 16.8606 4.0015 16.8477C3.98857 16.681 4.05957 16.5116 4.20435 16.4054L8.42726 13.3086L4.22034 10.2236L0.402384 7.74188C0.172973 7.69648 0 7.49414 0 7.2514V3.30859ZM5 17.062V19.822L11.1545 15.3086L9.27277 13.9287L5 17.062ZM19 19.8219V17.0569L14.8031 13.8731L12.8455 15.3086L19 19.8219ZM5 7.30859V6.43619L6.14999 7.30859H5ZM5 8.30859H7.46817L8.78635 9.30859H5V8.30859ZM9.12274 8.30859L10.4409 9.30859H13.8818L15.2455 8.30859H9.12274ZM6.02732 10.3086H10.1045L11.2909 11.2086L9.27277 12.6886L6.02732 10.3086ZM11.7591 10.3086L12.1322 10.5917L12.5182 10.3086H11.7591ZM10.1183 13.3086L12.1221 11.8392L13.972 13.2425L12 14.6886L10.1183 13.3086ZM12.9634 11.2222L14.8133 12.6256L17.9728 10.3086H14.2092L12.9634 11.2222ZM6.48637 6.30859L7.80456 7.30859H16.6091L17.9728 6.30859H6.48637ZM15.5729 9.30859H19V8.30859H16.9365L15.5729 9.30859ZM19 6.79535L18.3001 7.30859H19V6.79535ZM3 5.52994L4 6.17994V8.88764L3 8.23764V5.52994ZM1 6.93764L2 7.58764V4.87994L1 4.22994V6.93764ZM20 6.17996V8.88766L21 8.23764V5.52994L20 6.17996ZM23 4.22994V6.93764L22 7.58764V4.87994L23 4.22994Z" fill="#101820"/>
</g>
</svg>
