<svg width="24" height="25" viewBox="0 0 24 25" fill="none" xmlns="http://www.w3.org/2000/svg">
<g opacity="0.6">
<path d="M14.5 4.05859C14.7761 4.05859 15 3.83474 15 3.55859C15 3.28245 14.7761 3.05859 14.5 3.05859C14.2239 3.05859 14 3.28245 14 3.55859C14 3.83474 14.2239 4.05859 14.5 4.05859Z" fill="#101820"/>
<path d="M17 3.55859C17 3.83474 16.7761 4.05859 16.5 4.05859C16.2239 4.05859 16 3.83474 16 3.55859C16 3.28245 16.2239 3.05859 16.5 3.05859C16.7761 3.05859 17 3.28245 17 3.55859Z" fill="#101820"/>
<path d="M18.5 4.05859C18.7761 4.05859 19 3.83474 19 3.55859C19 3.28245 18.7761 3.05859 18.5 3.05859C18.2239 3.05859 18 3.28245 18 3.55859C18 3.83474 18.2239 4.05859 18.5 4.05859Z" fill="#101820"/>
<path d="M15 5.55859C15 5.83474 14.7761 6.05859 14.5 6.05859C14.2239 6.05859 14 5.83474 14 5.55859C14 5.28245 14.2239 5.05859 14.5 5.05859C14.7761 5.05859 15 5.28245 15 5.55859Z" fill="#101820"/>
<path d="M16.5 6.05859C16.7761 6.05859 17 5.83474 17 5.55859C17 5.28245 16.7761 5.05859 16.5 5.05859C16.2239 5.05859 16 5.28245 16 5.55859C16 5.83474 16.2239 6.05859 16.5 6.05859Z" fill="#101820"/>
<path d="M19 5.55859C19 5.83474 18.7761 6.05859 18.5 6.05859C18.2239 6.05859 18 5.83474 18 5.55859C18 5.28245 18.2239 5.05859 18.5 5.05859C18.7761 5.05859 19 5.28245 19 5.55859Z" fill="#101820"/>
<path fill-rule="evenodd" clip-rule="evenodd" d="M3 4.05859C3 3.50631 3.44772 3.05859 4 3.05859H11C11.5523 3.05859 12 3.50631 12 4.05859V5.05859C12 5.61088 11.5523 6.05859 11 6.05859H4C3.44772 6.05859 3 5.61088 3 5.05859V4.05859ZM4 4.05859H11V5.05859H4V4.05859Z" fill="#101820"/>
<path fill-rule="evenodd" clip-rule="evenodd" d="M23 9.05859H22V20.0586H23C23.5523 20.0586 24 20.5063 24 21.0586V23.0586C24 23.6109 23.5523 24.0586 23 24.0586H1C0.447716 24.0586 0 23.6109 0 23.0586V21.0586C0 20.5063 0.447715 20.0586 1 20.0586H2V9.05859H1C0.447716 9.05859 0 8.61088 0 8.05859V1.05859C0 0.506309 0.447715 0.0585938 1 0.0585938H23C23.5523 0.0585938 24 0.506309 24 1.05859V8.05859C24 8.61088 23.5523 9.05859 23 9.05859ZM1 1.05859H23V8.05859H1V1.05859ZM7 9.05859H3V20.0586H8.875L7.91201 18.5178C7.31602 17.5642 7 16.4623 7 15.3378V14.0586C7 13.5063 7.44772 13.0586 8 13.0586H16C16.488 13.0586 16.8944 13.4082 16.9824 13.8707C17.9325 12.9875 19.5 13.6565 19.5 14.9728V15.0294C19.5 15.8367 19.1101 16.5944 18.4531 17.0637L15.8224 18.9428L15.125 20.0586H21V9.05859H17V10.0586C17 10.6109 16.5523 11.0586 16 11.0586H14V12.0586H10V11.0586H8C7.44772 11.0586 7 10.6109 7 10.0586V9.05859ZM16 9.05859V10.0586H8V9.05859H16ZM17.8719 16.25L16.7502 17.0512C16.915 16.4978 17 15.9209 17 15.3378V15.2657L17.6464 14.6193C17.9614 14.3043 18.5 14.5274 18.5 14.9728V15.0294C18.5 15.5138 18.2661 15.9684 17.8719 16.25ZM8.76001 17.9878L10.0542 20.0586H13.9458L15.24 17.9878C15.7367 17.1932 16 16.2749 16 15.3378V14.0586H8V15.3378C8 16.2749 8.26335 17.1932 8.76001 17.9878ZM1 21.0586V23.0586H23V21.0586H1Z" fill="#101820"/>
</g>
</svg>
