<svg width="24" height="25" viewBox="0 0 24 25" fill="none" xmlns="http://www.w3.org/2000/svg">
<g opacity="0.6">
<path fill-rule="evenodd" clip-rule="evenodd" d="M9.4779 21.0064C4.15595 20.4779 0 16.002 0 10.5586C0 4.7596 4.71667 0.0585938 10.535 0.0585938C16.3533 0.0585938 21.07 4.7596 21.07 10.5586C21.07 11.5038 20.9447 12.4198 20.7097 13.291C20.9299 13.4744 21.07 13.7502 21.07 14.0586V14.4836L21.4028 14.1353C22.4334 13.0567 24.2407 13.9727 23.9733 15.4381L23.6956 16.9607C23.5941 17.517 23.3064 18.0226 22.8795 18.3949L19.3936 21.4349L19.3764 21.4152L18.1004 23.5673C17.9199 23.8718 17.5914 24.0586 17.2366 24.0586H11.86C11.5052 24.0586 11.1767 23.8718 10.9962 23.5673L9.4779 21.0064ZM20.0666 10.5586C20.0666 11.4238 19.9506 12.262 19.7331 13.0586H17.6318C17.9091 12.2766 18.06 11.4352 18.06 10.5586C18.06 6.41646 14.6909 3.05859 10.535 3.05859C6.37905 3.05859 3.00999 6.41646 3.00999 10.5586C3.00999 13.8407 5.12529 16.6305 8.07126 17.6474C8.16872 18.4409 8.42461 19.2093 8.82626 19.9064C4.37748 19.1038 1.00333 15.2239 1.00333 10.5586C1.00333 5.31189 5.2708 1.05859 10.535 1.05859C15.7992 1.05859 20.0666 5.31189 20.0666 10.5586ZM16.5568 13.0586C16.8788 12.289 17.0566 11.4445 17.0566 10.5586C17.0566 6.96874 14.1368 4.05859 10.535 4.05859C6.93317 4.05859 4.01333 6.96874 4.01333 10.5586C4.01333 13.2625 5.66987 15.5809 8.02665 16.5604V14.0586C8.02665 13.5063 8.47586 13.0586 9.02998 13.0586H16.5568ZM9.02998 14.0586H20.0666V16.9183C20.0666 17.8132 19.8257 18.6916 19.3689 19.462L17.2366 23.0586H11.86L9.72767 19.462C9.27092 18.6916 9.02998 17.8132 9.02998 16.9183V14.0586ZM20.7121 18.9563L22.2188 17.6423C22.4749 17.4189 22.6476 17.1156 22.7084 16.7818L22.9862 15.2592C23.0753 14.7707 22.4729 14.4654 22.1294 14.8249L21.07 15.9336V16.9183C21.07 17.616 20.9479 18.3054 20.7121 18.9563Z" fill="#101820"/>
</g>
</svg>
