<svg width="24" height="25" viewBox="0 0 24 25" fill="none" xmlns="http://www.w3.org/2000/svg">
<g opacity="0.6">
<path fill-rule="evenodd" clip-rule="evenodd" d="M11.5238 1.35938C6.29423 1.35938 2.04912 5.57438 2.00042 10.7924C2.00014 10.799 2 10.8056 2 10.8122L2.00007 10.8456L2 10.8832C2 10.8912 2.0002 10.8991 2.00058 10.9069C2.04696 14.6772 4.8579 17.7818 8.5 18.2873V21.3922C7.03197 21.0906 5.59384 20.5973 4.22361 19.9122L3.77639 20.8066C8.95327 23.395 15.0467 23.395 20.2236 20.8066L19.7764 19.9122C18.4062 20.5973 16.968 21.0906 15.5 21.3922V18.2873C19.1726 17.7775 22 14.6251 22 10.8122C22 10.5621 21.7973 10.3594 21.5472 10.3594H12V1.45838C12 1.4037 11.9557 1.35938 11.901 1.35938H11.5238ZM11 2.37521C9.84981 2.44493 8.76119 2.74275 7.77878 3.22401L11 8.95062V2.37521ZM4.14067 6.62069C4.81992 5.4467 5.77114 4.44974 6.90817 3.71599L10.2644 9.68253L4.14067 6.62069ZM3.01583 10.3594C3.07678 9.35401 3.31199 8.39569 3.69166 7.51422L9.38197 10.3594H3.01583ZM14.5 18.3592C14.4843 18.3593 14.4686 18.3594 14.4528 18.3594H9.54717L9.5 18.3592V21.5674C11.1578 21.8081 12.8422 21.8081 14.5 21.5674V18.3592ZM9.54717 17.3594C6.11553 17.3594 3.30053 14.7193 3.02254 11.3594H20.9775C20.6995 14.7192 17.8845 17.3594 14.4528 17.3594H9.54717Z" fill="#101820"/>
</g>
</svg>
