<svg width="24" height="25" viewBox="0 0 24 25" fill="none" xmlns="http://www.w3.org/2000/svg">
<g opacity="0.6">
<path fill-rule="evenodd" clip-rule="evenodd" d="M0 2.05859C0 0.954024 0.895431 0.0585938 2 0.0585938H18C19.1046 0.0585938 20 0.954024 20 2.05859V3.05859H22.5C23.3284 3.05859 24 3.73017 24 4.55859V6.40295C24 7.00014 23.6458 7.54044 23.0981 7.77855L12.8006 12.2557C12.6181 12.3351 12.5 12.5152 12.5 12.7142V14.1155C13.4037 14.3249 14.1031 15.0897 14.199 16.0487L14.7015 21.0735C14.8613 22.6717 13.6062 24.0586 12 24.0586C10.3938 24.0586 9.13869 22.6717 9.29851 21.0735L9.80099 16.0487C9.89689 15.0897 10.5963 14.3249 11.5 14.1155V12.7142C11.5 12.1171 11.8542 11.5768 12.4019 11.3386L22.6994 6.86148C22.8819 6.78211 23 6.60201 23 6.40295V4.55859C23 4.28245 22.7761 4.05859 22.5 4.05859H20V5.05859C20 6.16316 19.1046 7.05859 18 7.05859H11V11.8086C11 12.7751 10.2165 13.5586 9.25 13.5586C8.2835 13.5586 7.5 12.7751 7.5 11.8086C7.5 11.3944 7.16421 11.0586 6.75 11.0586C6.33579 11.0586 6 11.3944 6 11.8086V14.8086C6 15.7751 5.2165 16.5586 4.25 16.5586C3.2835 16.5586 2.5 15.7751 2.5 14.8086V7.05859H2C0.895431 7.05859 0 6.16316 0 5.05859V2.05859ZM2 1.05859H18C18.5523 1.05859 19 1.50631 19 2.05859V5.05859C19 5.61088 18.5523 6.05859 18 6.05859H2C1.44772 6.05859 1 5.61088 1 5.05859V2.05859C1 1.50631 1.44772 1.05859 2 1.05859ZM3.5 7.05859V14.8086C3.5 15.2228 3.83579 15.5586 4.25 15.5586C4.66421 15.5586 5 15.2228 5 14.8086V11.8086C5 10.8421 5.7835 10.0586 6.75 10.0586C7.7165 10.0586 8.5 10.8421 8.5 11.8086C8.5 12.2228 8.83579 12.5586 9.25 12.5586C9.66421 12.5586 10 12.2228 10 11.8086V7.05859H3.5ZM13.7065 21.173L13.204 16.1482C13.1421 15.5296 12.6216 15.0586 12 15.0586C11.3784 15.0586 10.8579 15.5296 10.796 16.1482L10.2935 21.173C10.1926 22.1826 10.9854 23.0586 12 23.0586C13.0146 23.0586 13.8074 22.1826 13.7065 21.173Z" fill="#101820"/>
</g>
</svg>
