<svg width="24" height="25" viewBox="0 0 24 25" fill="none" xmlns="http://www.w3.org/2000/svg">
<g opacity="0.6">
<path d="M8 7.55859H16V6.55859H8V7.55859Z" fill="#101820"/>
<path d="M17 15.5586H21V14.5586H17V15.5586Z" fill="#101820"/>
<path d="M21 11.5586H17V10.5586H21V11.5586Z" fill="#101820"/>
<path fill-rule="evenodd" clip-rule="evenodd" d="M14 9.55859H1L1 19.5586H0V5.55859C0 5.00631 0.447715 4.55859 1 4.55859H23C23.5523 4.55859 24 5.00631 24 5.55859V19.5586H23V17.5586H15V19.5586H14V9.55859ZM23 5.55859H1V8.55859H23V5.55859ZM23 16.5586H15V13.5586H23V16.5586ZM23 12.5586H15V9.55859H23V12.5586Z" fill="#101820"/>
</g>
</svg>
