<svg width="24" height="25" viewBox="0 0 24 25" fill="none" xmlns="http://www.w3.org/2000/svg">
<g opacity="0.6">
<path d="M18.9995 2.05859H17V3.05859H18.9995V2.05859Z" fill="#101820"/>
<path d="M5 2.05859H13V3.05859H5V2.05859Z" fill="#101820"/>
<path fill-rule="evenodd" clip-rule="evenodd" d="M2 1.05859C2 0.50631 2.44772 0.0585938 3 0.0585938H21C21.5523 0.0585938 22 0.506309 22 1.05859V23.0586C22 23.6109 21.5523 24.0586 21 24.0586H3C2.44772 24.0586 2 23.6109 2 23.0586V1.05859ZM3 1.05859H21V4.05859H3V1.05859ZM7 5.05859H3V20.0586H21V5.05859H17C17 6.16316 16.1046 7.05859 15 7.05859H9C7.89543 7.05859 7 6.16316 7 5.05859ZM16 5.05859H8C8 5.61088 8.44772 6.05859 9 6.05859H15C15.5523 6.05859 16 5.61088 16 5.05859ZM3 23.0586V21.0586H21V23.0586H3Z" fill="#101820"/>
</g>
</svg>
