<svg width="51" height="51" viewBox="0 0 51 51" fill="none" xmlns="http://www.w3.org/2000/svg">
<circle cx="21" cy="30" r="20.5" fill="#E1EDFF"/>
<path d="M44.5 7.5H30.5V6.5H44.5V7.5Z" fill="#002D72"/>
<path d="M30.5 13.5H44.5V12.5H30.5V13.5Z" fill="#002D72"/>
<path d="M44.5 19.5H30.5V18.5H44.5V19.5Z" fill="#002D72"/>
<path d="M30.5 25.5H39.5V24.5H30.5V25.5Z" fill="#002D72"/>
<path fill-rule="evenodd" clip-rule="evenodd" d="M28.5 0.5C26.2909 0.5 24.5 2.29086 24.5 4.5V32.5C24.5 34.7091 26.2909 36.5 28.5 36.5H46.5C48.7091 36.5 50.5 34.7091 50.5 32.5V4.5C50.5 2.29086 48.7091 0.5 46.5 0.5H28.5ZM46.5 1.5H28.5C26.8431 1.5 25.5 2.84315 25.5 4.5V32.5C25.5 34.1569 26.8431 35.5 28.5 35.5H46.5C48.1569 35.5 49.5 34.1569 49.5 32.5V4.5C49.5 2.84315 48.1569 1.5 46.5 1.5Z" fill="#002D72"/>
</svg>
