<svg width="24" height="25" viewBox="0 0 24 25" fill="none" xmlns="http://www.w3.org/2000/svg">
<g opacity="0.6">
<path fill-rule="evenodd" clip-rule="evenodd" d="M20 18.5586H23C23.5523 18.5586 24 18.1109 24 17.5586V12.5586C24 10.692 22.7215 9.12405 20.9924 8.68266C20.9974 8.64201 21 8.60061 21 8.55859V6.55859C21 4.34945 19.2091 2.55859 17 2.55859H7C4.79086 2.55859 3 4.34945 3 6.55859V8.55859C3 8.6006 3.00259 8.64201 3.00762 8.68266C1.27853 9.12404 0 10.692 0 12.5586V17.5586C0 18.1109 0.447716 18.5586 1 18.5586H4V20.5586C4 21.1109 4.44772 21.5586 5 21.5586H7C7.55228 21.5586 8 21.1109 8 20.5586V18.5586H16V20.5586C16 21.1109 16.4477 21.5586 17 21.5586H19C19.5523 21.5586 20 21.1109 20 20.5586V18.5586ZM7 3.55859H17C18.6569 3.55859 20 4.90174 20 6.55859V8.55859H18.7324C18.9026 8.26442 19 7.92288 19 7.55859C19 6.45402 18.1046 5.55859 17 5.55859H14.5C13.3954 5.55859 12.5 6.45402 12.5 7.55859C12.5 7.92288 12.5974 8.26442 12.7676 8.55859H11.2324C11.4026 8.26442 11.5 7.92288 11.5 7.55859C11.5 6.45402 10.6046 5.55859 9.5 5.55859H7C5.89543 5.55859 5 6.45402 5 7.55859C5 7.92288 5.09739 8.26442 5.26756 8.55859H4V6.55859C4 4.90174 5.34315 3.55859 7 3.55859ZM14.5 8.55859H17C17.5523 8.55859 18 8.11088 18 7.55859C18 7.00631 17.5523 6.55859 17 6.55859H14.5C13.9477 6.55859 13.5 7.00631 13.5 7.55859C13.5 8.11088 13.9477 8.55859 14.5 8.55859ZM4 9.55859C2.34315 9.55859 1 10.9017 1 12.5586V17.5586H23V12.5586C23 10.9017 21.6569 9.55859 20 9.55859H4ZM19 18.5586H17V20.5586H19V18.5586ZM5 20.5586V18.5586H7V20.5586H5ZM10.5 7.55859C10.5 8.11088 10.0523 8.55859 9.5 8.55859H7C6.44772 8.55859 6 8.11088 6 7.55859C6 7.00631 6.44772 6.55859 7 6.55859H9.5C10.0523 6.55859 10.5 7.00631 10.5 7.55859Z" fill="#101820"/>
</g>
</svg>
