<svg width="24" height="25" viewBox="0 0 24 25" fill="none" xmlns="http://www.w3.org/2000/svg">
<g opacity="0.6">
<path fill-rule="evenodd" clip-rule="evenodd" d="M7.5 7.30859C7.5 6.75631 7.94772 6.30859 8.5 6.30859C9.05228 6.30859 9.5 6.75631 9.5 7.30859C9.5 7.86088 9.05228 8.30859 8.5 8.30859C8.22386 8.30859 8 8.53245 8 8.80859V10.0875C7.9048 10.116 7.81146 10.1529 7.72107 10.1981L1.52492 13.2961C0.896782 13.6102 0.5 14.2522 0.5 14.9545C0.5 15.9785 1.33011 16.8086 2.3541 16.8086H7.50573C7.50193 16.8569 7.5 16.9055 7.5 16.9545C7.5 17.9785 8.33011 18.8086 9.3541 18.8086H21.6459C22.6699 18.8086 23.5 17.9785 23.5 16.9545C23.5 16.2522 23.1032 15.6102 22.4751 15.2961L16.2789 12.1981C16.1885 12.1529 16.0952 12.116 16 12.0875V11.2456C16.8626 11.0236 17.5 10.2405 17.5 9.30859C17.5 8.20402 16.6046 7.30859 15.5 7.30859C14.3954 7.30859 13.5 8.20402 13.5 9.30859H14.5C14.5 8.75631 14.9477 8.30859 15.5 8.30859C16.0523 8.30859 16.5 8.75631 16.5 9.30859C16.5 9.86088 16.0523 10.3086 15.5 10.3086C15.2239 10.3086 15 10.5325 15 10.8086V12.0875C14.9048 12.116 14.8115 12.1529 14.7211 12.1981L14 12.5586L9.27893 10.1981C9.18854 10.1529 9.0952 10.116 9 10.0875V9.24558C9.86261 9.02356 10.5 8.24051 10.5 7.30859C10.5 6.20402 9.60457 5.30859 8.5 5.30859C7.39543 5.30859 6.5 6.20402 6.5 7.30859H7.5ZM12.882 13.1176L8.83172 11.0925C8.6229 10.9881 8.3771 10.9881 8.16828 11.0925L1.97214 14.1906C1.68278 14.3352 1.5 14.631 1.5 14.9545C1.5 15.4262 1.88239 15.8086 2.3541 15.8086H7.89648C8.06258 15.5972 8.27551 15.4208 8.52492 15.2961L12.882 13.1176ZM9.73607 15.8086L14 13.6766L15.0279 14.1906C15.3172 14.3352 15.5 14.631 15.5 14.9545C15.5 15.4262 15.1176 15.8086 14.6459 15.8086H9.73607ZM8.51253 16.8086H14.6459C15.6699 16.8086 16.5 15.9785 16.5 14.9545C16.5 14.2522 16.1032 13.6102 15.4751 13.2961L15.118 13.1176L15.1683 13.0925C15.3771 12.9881 15.6229 12.9881 15.8317 13.0925L22.0279 16.1906C22.3172 16.3352 22.5 16.631 22.5 16.9545C22.5 17.4262 22.1176 17.8086 21.6459 17.8086H9.3541C8.88239 17.8086 8.5 17.4262 8.5 16.9545C8.5 16.9051 8.50427 16.8563 8.51253 16.8086Z" fill="#101820"/>
</g>
</svg>
