<svg width="24" height="25" viewBox="0 0 24 25" fill="none" xmlns="http://www.w3.org/2000/svg">
<g opacity="0.6">
<path fill-rule="evenodd" clip-rule="evenodd" d="M17.1655 21.345C17.9553 20.8058 18.5415 19.9991 18.788 19.0586H19.9353C21.904 19.0586 23.5 17.4916 23.5 15.5586V6.55859C23.5 4.6256 21.904 3.05859 19.9353 3.05859H16.6299C15.3147 1.22512 13.1318 0.0585938 10.7404 0.0585938C7.94067 0.0585938 5.42385 1.65804 4.25424 4.05859H2.02901C0.972544 4.05859 0.234967 5.08623 0.590294 6.0631L2.64599 11.7146C2.62917 12.0461 2.62074 12.3781 2.62074 12.7103V18.0586C2.62074 19.42 3.31343 20.6225 4.37163 21.345C3.63944 21.6849 3.06691 22.3021 2.7946 23.0586C2.682 23.3714 2.62074 23.708 2.62074 24.0586H18.9164C18.9164 23.708 18.8551 23.3714 18.7425 23.0586C18.4702 22.3021 17.8977 21.6849 17.1655 21.345ZM17.724 19.0586H3.81308C4.23252 20.2238 5.36429 21.0586 6.69465 21.0586H14.8425C16.1728 21.0586 17.3046 20.2238 17.724 19.0586ZM17.8979 18.0586V13.1146C17.8979 11.8159 17.7623 10.5206 17.4932 9.24907L16.7713 5.83791C16.636 5.19886 16.3973 4.60075 16.0746 4.05859H5.40638C5.09314 4.58488 4.8591 5.16401 4.722 5.78236L4.08204 8.66886C3.78767 9.99657 3.63922 11.3515 3.63922 12.7103V18.0586H17.8979ZM19.9353 4.05859H17.2268C17.3827 4.37838 17.5146 4.71235 17.6201 5.05859H18.9164C20.3226 5.05859 21.4626 6.17788 21.4626 7.55859V14.5586C21.4626 15.9393 20.3226 17.0586 18.9164 17.0586V18.0586H19.9353C21.3416 18.0586 22.4815 16.9393 22.4815 15.5586V6.55859C22.4815 5.17788 21.3416 4.05859 19.9353 4.05859ZM18.9164 16.0586C19.7601 16.0586 20.4441 15.387 20.4441 14.5586V7.55859C20.4441 6.73017 19.7601 6.05859 18.9164 6.05859H17.8582L18.4904 9.04563C18.7736 10.3841 18.9164 11.7475 18.9164 13.1146V16.0586ZM10.7404 1.05859C12.5327 1.05859 14.1861 1.82173 15.3275 3.05859H6.15333C7.29507 1.8212 8.94904 1.05859 10.7404 1.05859ZM2.89654 9.43023C2.95175 9.10421 3.0152 8.77942 3.08687 8.45616L3.72683 5.56965C3.76521 5.39656 3.81006 5.22613 3.86108 5.05859H2.02901C1.67685 5.05859 1.43099 5.40114 1.54944 5.72676L2.89654 9.43023ZM15.8609 22.0586C16.6149 22.0586 17.2732 22.4608 17.6254 23.0586H3.91172C4.26392 22.4608 4.92221 22.0586 5.67617 22.0586H15.8609Z" fill="#101820"/>
</g>
</svg>
