<svg width="24" height="25" viewBox="0 0 24 25" fill="none" xmlns="http://www.w3.org/2000/svg">
<g opacity="0.6">
<path fill-rule="evenodd" clip-rule="evenodd" d="M7 11.0586C9.20914 11.0586 11 9.26773 11 7.05859C11 4.84945 9.20914 3.05859 7 3.05859C4.79086 3.05859 3 4.84945 3 7.05859C3 9.26773 4.79086 11.0586 7 11.0586ZM7 10.0586C8.65685 10.0586 10 8.71545 10 7.05859C10 5.40174 8.65685 4.05859 7 4.05859C5.34315 4.05859 4 5.40174 4 7.05859C4 8.71545 5.34315 10.0586 7 10.0586Z" fill="#101820"/>
<path fill-rule="evenodd" clip-rule="evenodd" d="M21 7.05859C21 9.26773 19.2091 11.0586 17 11.0586C14.7909 11.0586 13 9.26773 13 7.05859C13 4.84945 14.7909 3.05859 17 3.05859C19.2091 3.05859 21 4.84945 21 7.05859ZM20 7.05859C20 8.71545 18.6569 10.0586 17 10.0586C15.3431 10.0586 14 8.71545 14 7.05859C14 5.40174 15.3431 4.05859 17 4.05859C18.6569 4.05859 20 5.40174 20 7.05859Z" fill="#101820"/>
<path fill-rule="evenodd" clip-rule="evenodd" d="M7 21.0586C9.20914 21.0586 11 19.2677 11 17.0586C11 14.8495 9.20914 13.0586 7 13.0586C4.79086 13.0586 3 14.8495 3 17.0586C3 19.2677 4.79086 21.0586 7 21.0586ZM7 20.0586C8.65685 20.0586 10 18.7154 10 17.0586C10 15.4017 8.65685 14.0586 7 14.0586C5.34315 14.0586 4 15.4017 4 17.0586C4 18.7154 5.34315 20.0586 7 20.0586Z" fill="#101820"/>
<path d="M19.25 20.0586C19.6642 20.0586 20 19.7228 20 19.3086C20 18.8944 19.6642 18.5586 19.25 18.5586C18.8358 18.5586 18.5 18.8944 18.5 19.3086C18.5 19.7228 18.8358 20.0586 19.25 20.0586Z" fill="#101820"/>
<path d="M17 19.3086C17 19.7228 16.6642 20.0586 16.25 20.0586C15.8358 20.0586 15.5 19.7228 15.5 19.3086C15.5 18.8944 15.8358 18.5586 16.25 18.5586C16.6642 18.5586 17 18.8944 17 19.3086Z" fill="#101820"/>
<path d="M19.25 17.0586C19.6642 17.0586 20 16.7228 20 16.3086C20 15.8944 19.6642 15.5586 19.25 15.5586C18.8358 15.5586 18.5 15.8944 18.5 16.3086C18.5 16.7228 18.8358 17.0586 19.25 17.0586Z" fill="#101820"/>
<path fill-rule="evenodd" clip-rule="evenodd" d="M4 0.0585938C1.79086 0.0585938 0 1.84946 0 4.05859V20.0586C0 22.2677 1.79086 24.0586 4 24.0586H20C22.2091 24.0586 24 22.2677 24 20.0586V4.05859C24 1.84945 22.2091 0.0585938 20 0.0585938H4ZM20 1.05859H4C2.34315 1.05859 1 2.40174 1 4.05859V20.0586C1 21.7154 2.34315 23.0586 4 23.0586H20C21.6569 23.0586 23 21.7154 23 20.0586V4.05859C23 2.40174 21.6569 1.05859 20 1.05859Z" fill="#101820"/>
</g>
</svg>
