<svg width="24" height="25" viewBox="0 0 24 25" fill="none" xmlns="http://www.w3.org/2000/svg">
<g opacity="0.6">
<path d="M18.7929 8.05859C19.1834 7.66807 19.8166 7.66807 20.2071 8.05859L21.8536 9.70504L21.1464 10.4121L19.5 8.7657L17.8536 10.4121L17.1464 9.70504L18.7929 8.05859Z" fill="#101820"/>
<path d="M20.2071 16.0586L21.8536 14.4121L21.1464 13.705L19.5 15.3515L17.8536 13.705L17.1464 14.4121L18.7929 16.0586C19.1834 16.4491 19.8166 16.4491 20.2071 16.0586Z" fill="#101820"/>
<path fill-rule="evenodd" clip-rule="evenodd" d="M23 23.0586H1C0.447716 23.0586 0 22.6109 0 22.0586V2.05859C0 1.50631 0.447715 1.05859 1 1.05859H23C23.5523 1.05859 24 1.50631 24 2.05859V22.0586C24 22.6109 23.5523 23.0586 23 23.0586ZM1 2.05859H23V22.0586H16V5.05859C16 4.50631 15.5523 4.05859 15 4.05859H4C3.44772 4.05859 3 4.50631 3 5.05859V22.0586H1V2.05859ZM15 5.05859V22.0586H10V5.05859H15ZM9 5.05859V22.0586H4V5.05859H9Z" fill="#101820"/>
</g>
</svg>
