<svg width="24" height="24" viewBox="0 0 24 24" fill="none" xmlns="http://www.w3.org/2000/svg">
<path fill-rule="evenodd" clip-rule="evenodd" d="M19.9646 8.5C19.7219 10.1961 18.2632 11.5 16.5 11.5C14.7368 11.5 13.2781 10.1961 13.0354 8.5H0V7.5H13.0354C13.2781 5.80385 14.7368 4.5 16.5 4.5C18.2632 4.5 19.7219 5.80385 19.9646 7.5H24V8.5H19.9646ZM19 8C19 9.38071 17.8807 10.5 16.5 10.5C15.1193 10.5 14 9.38071 14 8C14 6.61929 15.1193 5.5 16.5 5.5C17.8807 5.5 19 6.61929 19 8Z" fill="#002D72"/>
<path fill-rule="evenodd" clip-rule="evenodd" d="M10.9646 15.5C10.7219 13.8039 9.26324 12.5 7.5 12.5C5.73676 12.5 4.27806 13.8039 4.03544 15.5H0V16.5H4.03544C4.27806 18.1961 5.73676 19.5 7.5 19.5C9.26324 19.5 10.7219 18.1961 10.9646 16.5H24V15.5H10.9646ZM7.5 18.5C8.88071 18.5 10 17.3807 10 16C10 14.6193 8.88071 13.5 7.5 13.5C6.11929 13.5 5 14.6193 5 16C5 17.3807 6.11929 18.5 7.5 18.5Z" fill="#002D72"/>
</svg>
