<svg width="24" height="25" viewBox="0 0 24 25" fill="none" xmlns="http://www.w3.org/2000/svg">
<g opacity="0.6">
<path fill-rule="evenodd" clip-rule="evenodd" d="M18 0.0585938H17V5.05859H12C11.4477 5.05859 11 5.50631 11 6.05859V7.05859C11 7.61088 11.4477 8.05859 12 8.05859V10.4C11.3744 10.1789 10.7013 10.0586 10 10.0586H8C5.027 10.0586 2.55904 12.2209 2.08296 15.0586H1.5C0.671573 15.0586 0 15.7302 0 16.5586C0 17.387 0.671573 18.0586 1.5 18.0586H16.5C17.3284 18.0586 18 17.387 18 16.5586C18 15.7302 17.3284 15.0586 16.5 15.0586H15.917C15.616 13.264 14.5183 11.7396 13 10.8613V8.05859H22V13.6217L21.0916 23.0586H16V22.0586H16.0423C16.8473 22.0586 17.5 21.4059 17.5 20.6009C17.5 20.0888 17.2313 19.6143 16.7923 19.3509L15.9436 18.8416C15.0609 18.312 13.9776 18.2385 13.0314 18.644L12.036 19.0706C11.4093 19.3392 10.6917 19.2905 10.107 18.9397L10.0072 18.8798C9.07951 18.3232 7.92049 18.3232 6.99275 18.8798C6.38169 19.2465 5.61831 19.2465 5.00725 18.8798C4.07951 18.3232 2.92049 18.3232 1.99275 18.8798L1.20774 19.3509C0.768659 19.6143 0.5 20.0888 0.5 20.6009C0.5 21.4059 1.15265 22.0586 1.95774 22.0586H2V23.0586C2 23.6109 2.44772 24.0586 3 24.0586H21.0916C21.6068 24.0586 22.0377 23.6672 22.087 23.1544L23 13.6697V8.05859C23.5523 8.05859 24 7.61088 24 7.05859V6.05859C24 5.50631 23.5523 5.05859 23 5.05859H18V0.0585938ZM23 7.05859V6.05859H12V7.05859H23ZM15 23.0586V22.0586H3V23.0586H15ZM10 11.0586H8C5.58104 11.0586 3.56329 12.7764 3.10002 15.0586H14.9C14.4367 12.7764 12.419 11.0586 10 11.0586ZM1.5 16.0586C1.22386 16.0586 1 16.2825 1 16.5586C1 16.8347 1.22386 17.0586 1.5 17.0586H16.5C16.7761 17.0586 17 16.8347 17 16.5586C17 16.2825 16.7761 16.0586 16.5 16.0586H1.5ZM1.95774 21.0586C1.70494 21.0586 1.5 20.8537 1.5 20.6009C1.5 20.4401 1.58436 20.2911 1.72223 20.2083L2.50725 19.7373C3.11831 19.3707 3.88169 19.3707 4.49275 19.7373C5.42049 20.294 6.57951 20.294 7.50725 19.7373C8.11831 19.3707 8.88169 19.3707 9.49275 19.7373L9.59251 19.7972C10.4525 20.3132 11.508 20.3848 12.4299 19.9898L13.4253 19.5632C14.0763 19.2841 14.8217 19.3347 15.4291 19.6991L16.2778 20.2083C16.4156 20.2911 16.5 20.4401 16.5 20.6009C16.5 20.8537 16.2951 21.0586 16.0423 21.0586H1.95774Z" fill="#101820"/>
</g>
</svg>
