<svg width="24" height="25" viewBox="0 0 24 25" fill="none" xmlns="http://www.w3.org/2000/svg">
<g opacity="0.6">
<path d="M8 7.05859V3.05859H9V7.05859H8Z" fill="#101820"/>
<path d="M8 12.0586V16.0586H9V12.0586H8Z" fill="#101820"/>
<path fill-rule="evenodd" clip-rule="evenodd" d="M19 20.0586C19 21.1632 18.1046 22.0586 17 22.0586V23.0586C17 23.6109 16.5523 24.0586 16 24.0586H15C14.4477 24.0586 14 23.6109 14 23.0586V22.0586H10V23.0586C10 23.6109 9.55228 24.0586 9 24.0586H8C7.44772 24.0586 7 23.6109 7 23.0586L7 22.0586C5.89543 22.0586 5 21.1632 5 20.0586V2.05859C5 0.954024 5.89543 0.0585938 7 0.0585938H17C18.1046 0.0585938 19 0.954024 19 2.05859V20.0586ZM7 1.05859H17C17.5523 1.05859 18 1.50631 18 2.05859V9.05859H6V2.05859C6 1.50631 6.44771 1.05859 7 1.05859ZM6 10.0586V20.0586C6 20.6109 6.44772 21.0586 7 21.0586H17C17.5523 21.0586 18 20.6109 18 20.0586V10.0586H6ZM15 22.0586H16V23.0586H15V22.0586ZM9 22.0586H8V23.0586H9V22.0586Z" fill="#101820"/>
</g>
</svg>
