<svg width="24" height="25" viewBox="0 0 24 25" fill="none" xmlns="http://www.w3.org/2000/svg">
<g opacity="0.6">
<path fill-rule="evenodd" clip-rule="evenodd" d="M6.47968 7.65231C7.03401 7.65231 7.48338 8.09404 7.48338 8.63893V9.13224H7.98523C8.53955 9.13224 8.98892 9.57397 8.98892 10.1189V11.1055C8.98892 11.6504 8.53955 12.0921 7.98523 12.0921H7.48338V12.5854C7.48338 13.1303 7.03401 13.572 6.47968 13.572H5.47599C4.92167 13.572 4.4723 13.1303 4.4723 12.5854V12.0921H3.97045C3.41613 12.0921 2.96676 11.6504 2.96676 11.1055V10.1189C2.96676 9.57397 3.41613 9.13224 3.97045 9.13224H4.4723V8.63893C4.4723 8.09404 4.92167 7.65231 5.47599 7.65231H6.47968ZM5.47599 10.1189V8.63893H6.47968V10.1189H7.98523V11.1055H6.47968V12.5854H5.47599V11.1055H3.97045V10.1189H5.47599Z" fill="#101820"/>
<path d="M18.0222 9.62555C18.5765 9.62555 19.0259 9.18383 19.0259 8.63893C19.0259 8.09404 18.5765 7.65231 18.0222 7.65231C17.4678 7.65231 17.0185 8.09404 17.0185 8.63893C17.0185 9.18383 17.4678 9.62555 18.0222 9.62555Z" fill="#101820"/>
<path d="M19.0259 12.5854C19.0259 13.1303 18.5765 13.572 18.0222 13.572C17.4678 13.572 17.0185 13.1303 17.0185 12.5854C17.0185 12.0405 17.4678 11.5988 18.0222 11.5988C18.5765 11.5988 19.0259 12.0405 19.0259 12.5854Z" fill="#101820"/>
<path d="M16.0148 11.5988C16.5691 11.5988 17.0185 11.1571 17.0185 10.6122C17.0185 10.0673 16.5691 9.62555 16.0148 9.62555C15.4605 9.62555 15.0111 10.0673 15.0111 10.6122C15.0111 11.1571 15.4605 11.5988 16.0148 11.5988Z" fill="#101820"/>
<path d="M21.0332 10.6122C21.0332 11.1571 20.5839 11.5988 20.0296 11.5988C19.4752 11.5988 19.0259 11.1571 19.0259 10.6122C19.0259 10.0673 19.4752 9.62555 20.0296 9.62555C20.5839 9.62555 21.0332 10.0673 21.0332 10.6122Z" fill="#101820"/>
<path fill-rule="evenodd" clip-rule="evenodd" d="M1.00957 8.15539C1.51807 5.25627 4.47847 3.43627 7.35284 4.25565L9.20447 4.78349C11.0305 5.30405 12.9695 5.30405 14.7955 4.78349L16.6472 4.25565C19.5215 3.43626 22.4819 5.25627 22.9904 8.15539L23.8692 13.1654C23.9856 13.829 24.0245 14.5034 23.9852 15.1757L23.8961 16.6993C23.6783 20.4251 18.5172 21.353 16.9718 17.9442C16.3897 16.6602 15.0936 15.833 13.6635 15.833H10.3365C8.90643 15.833 7.61026 16.6602 7.02817 17.9442C5.48284 21.353 0.321734 20.4251 0.1039 16.6993L0.0148231 15.1757C-0.0244806 14.5034 0.01444 13.829 0.130829 13.1654L1.00957 8.15539ZM13.6635 14.8464H10.3365C8.51014 14.8464 6.85478 15.9028 6.11139 17.5426C4.99429 20.0068 1.26341 19.336 1.10594 16.6427L1.01686 15.1191C0.981944 14.5218 1.01652 13.9226 1.11993 13.333L1.99867 8.32302C2.40547 6.00372 4.77379 4.54772 7.07329 5.20323L8.92492 5.73107C10.9336 6.30368 13.0664 6.30368 15.0751 5.73107L16.9267 5.20323C19.2262 4.54772 21.5945 6.00372 22.0013 8.32302L22.8801 13.333C22.9835 13.9226 23.0181 14.5218 22.9831 15.1191L22.8941 16.6427C22.7366 19.336 19.0057 20.0068 17.8886 17.5426C17.1452 15.9028 15.4899 14.8464 13.6635 14.8464Z" fill="#101820"/>
</g>
</svg>
