<svg width="24" height="16" viewBox="0 0 24 16" fill="none" xmlns="http://www.w3.org/2000/svg">
<g opacity="0.6">
<path fill-rule="evenodd" clip-rule="evenodd" d="M7 11.5586C8.65685 11.5586 10 10.2154 10 8.55859C10 6.90174 8.65685 5.55859 7 5.55859C5.34315 5.55859 4 6.90174 4 8.55859C4 10.2154 5.34315 11.5586 7 11.5586ZM7 10.5586C8.10457 10.5586 9 9.66316 9 8.55859C9 7.62667 8.36261 6.84362 7.5 6.6216V8.55859H6.5V6.6216C5.63739 6.84362 5 7.62667 5 8.55859C5 9.66316 5.89543 10.5586 7 10.5586Z" fill="#101820"/>
<path fill-rule="evenodd" clip-rule="evenodd" d="M20 8.55859C20 10.2154 18.6569 11.5586 17 11.5586C15.3431 11.5586 14 10.2154 14 8.55859C14 6.90174 15.3431 5.55859 17 5.55859C18.6569 5.55859 20 6.90174 20 8.55859ZM19 8.55859C19 9.66316 18.1046 10.5586 17 10.5586C15.8954 10.5586 15 9.66316 15 8.55859C15 7.62667 15.6374 6.84362 16.5 6.6216V8.55859H17.5V6.6216C18.3626 6.84362 19 7.62667 19 8.55859Z" fill="#101820"/>
<path fill-rule="evenodd" clip-rule="evenodd" d="M4.5 2.05859C4.5 1.78245 4.72386 1.55859 5 1.55859H5.5V0.558594H5C4.17157 0.558594 3.5 1.23017 3.5 2.05859V3.55859H3.35407C2.53626 3.55859 1.80084 4.0565 1.49711 4.81581L0.143047 8.20098C0.0485504 8.43722 0 8.68932 0 8.94376V11.5586C0 12.6632 0.89543 13.5586 2 13.5586L2 14.5586C2 15.1109 2.44772 15.5586 3 15.5586H5C5.55228 15.5586 6 15.1109 6 14.5586V13.5586H18V14.5586C18 15.1109 18.4477 15.5586 19 15.5586H21C21.5523 15.5586 22 15.1109 22 14.5586V13.5586C23.1046 13.5586 24 12.6632 24 11.5586V8.94376C24 8.68932 23.9515 8.43722 23.857 8.20098L22.5029 4.81581C22.1992 4.0565 21.4637 3.55859 20.6459 3.55859H20.5V2.05859C20.5 1.23017 19.8284 0.558594 19 0.558594H18.5V1.55859H19C19.2761 1.55859 19.5 1.78245 19.5 2.05859V3.55859H17.5V1.55859H16.5V3.55859H14.5V2.05859C14.5 1.78245 14.7239 1.55859 15 1.55859H15.5V0.558594H15C14.1716 0.558594 13.5 1.23017 13.5 2.05859V3.55859H10.5V2.05859C10.5 1.23017 9.82843 0.558594 9 0.558594H8.5V1.55859H9C9.27614 1.55859 9.5 1.78245 9.5 2.05859V3.55859H7.5V1.55859H6.5V3.55859H4.5V2.05859ZM20.6459 4.55859H3.35407C2.94516 4.55859 2.57745 4.80754 2.42559 5.1872L1.07152 8.57237C1.02428 8.69049 1 8.81654 1 8.94376V11.5586C1 12.1109 1.44772 12.5586 2 12.5586H22C22.5523 12.5586 23 12.1109 23 11.5586V8.94376C23 8.81654 22.9757 8.69049 22.9285 8.57237L21.5744 5.1872C21.4225 4.80754 21.0548 4.55859 20.6459 4.55859ZM21 14.5586V13.5586H19V14.5586H21ZM5 13.5586V14.5586H3V13.5586H5Z" fill="#101820"/>
</g>
</svg>
