<svg width="24" height="25" viewBox="0 0 24 25" fill="none" xmlns="http://www.w3.org/2000/svg">
<g opacity="0.5">
<path fill-rule="evenodd" clip-rule="evenodd" d="M2.55921 0.058594C3.40776 0.058146 4.09589 0.729851 4.09589 1.55859V6.05805H21.9512C23.2834 6.05805 24.261 7.28083 23.9378 8.54312L21.89 16.5431C21.6621 17.4335 20.843 18.0581 19.9034 18.0581H4.09589V19.5581C4.09589 19.8342 4.3251 20.0581 4.60784 20.0581H19.4544C20.5854 20.0581 21.5023 20.9535 21.5023 22.0581C21.5023 23.1626 20.5854 24.0581 19.4544 24.0581C18.3235 24.0581 17.4066 23.1626 17.4066 22.0581C17.4066 21.6938 17.5064 21.3522 17.6806 21.0581H7.91755C8.09178 21.3522 8.19151 21.6938 8.19151 22.0581C8.19151 23.1626 7.27467 24.0581 6.1437 24.0581C5.01273 24.0581 4.09589 23.1626 4.09589 22.0581C4.09589 21.687 4.19937 21.3395 4.37969 21.0416C3.63966 20.934 3.07199 20.3108 3.07199 19.5581V1.55859C3.07199 1.28235 2.84261 1.05844 2.55976 1.05859L0.000553524 1.05995L0 0.0599452L2.55921 0.058594ZM19.4544 21.0581C18.889 21.0581 18.4305 21.5058 18.4305 22.0581C18.4305 22.6103 18.889 23.0581 19.4544 23.0581C20.0199 23.0581 20.4784 22.6103 20.4784 22.0581C20.4784 21.5058 20.0199 21.0581 19.4544 21.0581ZM4.09589 9.55805V7.05805H8.19151V9.55805H4.09589ZM4.09589 13.5581V10.5581H8.19151V13.5581H4.09589ZM4.09589 17.0581V14.5581H8.19151V17.0581H4.09589ZM5.1198 22.0581C5.1198 21.5058 5.57821 21.0581 6.1437 21.0581C6.70919 21.0581 7.1676 21.5058 7.1676 22.0581C7.1676 22.6103 6.70919 23.0581 6.1437 23.0581C5.57821 23.0581 5.1198 22.6103 5.1198 22.0581ZM21.9512 7.05805H19.4544V9.55805H22.6226L22.9445 8.30059C23.1061 7.66944 22.6173 7.05805 21.9512 7.05805ZM22.3667 10.5581H19.4544V13.5581H21.5987L22.3667 10.5581ZM18.4305 10.5581V13.5581H14.3349V10.5581H18.4305ZM18.4305 14.5581H14.3349V17.0581H18.4305V14.5581ZM13.311 10.5581V13.5581H9.21541V10.5581H13.311ZM13.311 14.5581H9.21541V17.0581H13.311V14.5581ZM21.3428 14.5581H19.4544V17.0581H19.9034C20.3732 17.0581 20.7828 16.7458 20.8967 16.3006L21.3428 14.5581ZM18.4305 9.55805V7.05805H14.3349V9.55805H18.4305ZM13.311 9.55805V7.05805H9.21541V9.55805H13.311Z" fill="#101820"/>
</g>
</svg>
