<svg width="24" height="25" viewBox="0 0 24 25" fill="none" xmlns="http://www.w3.org/2000/svg">
<g opacity="0.6">
<path fill-rule="evenodd" clip-rule="evenodd" d="M5 7.55859V7.82616C4.70583 7.65599 4.36429 7.55859 4 7.55859C2.89543 7.55859 2 8.45402 2 9.55859V10.5586H1C0.447715 10.5586 0 11.0063 0 11.5586V12.5586C0 13.1109 0.447715 13.5586 1 13.5586H2V14.5586C2 15.6632 2.89543 16.5586 4 16.5586C4.36429 16.5586 4.70583 16.4612 5 16.291V16.5586C5 17.6632 5.89543 18.5586 7 18.5586C8.10457 18.5586 9 17.6632 9 16.5586V13.5586H15V16.5586C15 17.6632 15.8954 18.5586 17 18.5586C18.1046 18.5586 19 17.6632 19 16.5586V16.291C19.2942 16.4612 19.6357 16.5586 20 16.5586C21.1046 16.5586 22 15.6632 22 14.5586V13.5586H23C23.5523 13.5586 24 13.1109 24 12.5586V11.5586C24 11.0063 23.5523 10.5586 23 10.5586H22V9.55859C22 8.45402 21.1046 7.55859 20 7.55859C19.6357 7.55859 19.2942 7.65599 19 7.82616V7.55859C19 6.45402 18.1046 5.55859 17 5.55859C15.8954 5.55859 15 6.45402 15 7.55859V10.5586H9V7.55859C9 6.45402 8.10457 5.55859 7 5.55859C5.89543 5.55859 5 6.45402 5 7.55859ZM8 7.55859C8 7.00631 7.55228 6.55859 7 6.55859C6.44772 6.55859 6 7.00631 6 7.55859V16.5586C6 17.1109 6.44772 17.5586 7 17.5586C7.55228 17.5586 8 17.1109 8 16.5586V7.55859ZM19 9.55859V14.5586C19 15.1109 19.4477 15.5586 20 15.5586C20.5523 15.5586 21 15.1109 21 14.5586V9.55859C21 9.00631 20.5523 8.55859 20 8.55859C19.4477 8.55859 19 9.00631 19 9.55859ZM18 7.55859C18 7.00631 17.5523 6.55859 17 6.55859C16.4477 6.55859 16 7.00631 16 7.55859V16.5586C16 17.1109 16.4477 17.5586 17 17.5586C17.5523 17.5586 18 17.1109 18 16.5586V7.55859ZM22 11.5586V12.5586H23V11.5586H22ZM4 8.55859C4.55228 8.55859 5 9.00631 5 9.55859V14.5586C5 15.1109 4.55228 15.5586 4 15.5586C3.44772 15.5586 3 15.1109 3 14.5586V9.55859C3 9.00631 3.44772 8.55859 4 8.55859ZM1 11.5586H2V12.5586H1V11.5586ZM9 11.5586V12.5586H15V11.5586H9Z" fill="#101820"/>
</g>
</svg>
