<svg width="24" height="25" viewBox="0 0 24 25" fill="none" xmlns="http://www.w3.org/2000/svg">
<g opacity="0.6">
<path fill-rule="evenodd" clip-rule="evenodd" d="M8.5 6.1276C8.5 7.78446 7.15685 9.1276 5.5 9.1276C3.84315 9.1276 2.5 7.78446 2.5 6.1276C2.5 4.47075 3.84315 3.1276 5.5 3.1276C7.15685 3.1276 8.5 4.47075 8.5 6.1276ZM7.5 6.1276C7.5 7.23217 6.60457 8.1276 5.5 8.1276C4.39543 8.1276 3.5 7.23217 3.5 6.1276C3.5 5.02303 4.39543 4.1276 5.5 4.1276C6.60457 4.1276 7.5 5.02303 7.5 6.1276Z" fill="#101820"/>
<path fill-rule="evenodd" clip-rule="evenodd" d="M0 6.1276C0 2.67616 3.02501 0.00572827 6.44981 0.433827L23.124 2.51811C23.6245 2.58066 24 3.00606 24 3.51038V8.74482C24 9.24914 23.6245 9.67454 23.124 9.7371L10.6199 11.3001L12.1773 20.5799C12.3983 21.8964 11.5459 23.1543 10.2412 23.437L9.17156 23.6687C7.76916 23.9726 6.39936 23.0361 6.17338 21.6191L4.60016 11.7542C2.00591 11.2308 0 8.93816 0 6.1276ZM6.32577 1.42611L20.5 3.19788V9.05732L6.32577 10.8291C3.49783 11.1826 1 8.97755 1 6.1276C1 3.27765 3.49783 1.07261 6.32577 1.42611ZM23 8.74482L21.5 8.93232V3.32288L23 3.51038V8.74482ZM5.63059 11.8657L7.1609 21.4616C7.29649 22.3118 8.11837 22.8737 8.95981 22.6914L10.0294 22.4596C10.8122 22.29 11.3237 21.5353 11.1911 20.7454L9.62671 11.4243L6.44981 11.8214C6.17368 11.8559 5.90014 11.8703 5.63059 11.8657Z" fill="#101820"/>
</g>
</svg>
