<svg width="24" height="25" viewBox="0 0 24 25" fill="none" xmlns="http://www.w3.org/2000/svg">
<g opacity="0.6">
<path d="M8.83397 1.0313C8.98715 0.801532 9.29759 0.739446 9.52735 0.892622L10.6668 1.65227C11.8153 2.41791 11.7082 4.13859 10.4736 4.75586C9.92582 5.02976 9.87828 5.79325 10.3879 6.13297L11.5274 6.89262C11.7571 7.0458 11.8192 7.35623 11.666 7.586C11.5128 7.81576 11.2024 7.87785 10.9726 7.72467L9.83317 6.96502C8.68472 6.19938 8.79184 4.47871 10.0264 3.86143C10.5742 3.58754 10.6217 2.82405 10.1121 2.48432L8.97265 1.72467C8.74289 1.5715 8.6808 1.26106 8.83397 1.0313Z" fill="#101820"/>
<path fill-rule="evenodd" clip-rule="evenodd" d="M22.75 10.8086V7.30865H23.75V10.8086C23.75 11.3609 23.3023 11.8086 22.75 11.8086H21.25V21.3086C21.25 22.4132 20.3546 23.3086 19.25 23.3086C18.6527 23.3086 18.1165 23.0468 17.75 22.6316C17.3835 23.0468 16.8473 23.3086 16.25 23.3086C15.6527 23.3086 15.1165 23.0468 14.75 22.6316C14.3835 23.0468 13.8473 23.3086 13.25 23.3086C12.6527 23.3086 12.1165 23.0468 11.75 22.6316C11.3835 23.0468 10.8473 23.3086 10.25 23.3086C9.65265 23.3086 9.11647 23.0468 8.75 22.6316C8.38353 23.0468 7.84735 23.3086 7.25 23.3086C6.65265 23.3086 6.11647 23.0468 5.75 22.6316C5.38353 23.0468 4.84735 23.3086 4.25 23.3086C3.14543 23.3086 2.25 22.4132 2.25 21.3086V14.2233C2.09361 14.2786 1.92532 14.3086 1.75 14.3086C0.921573 14.3086 0.25 13.6371 0.25 12.8086V11.8086C0.25 10.9802 0.921573 10.3086 1.75 10.3086C1.99583 10.3086 2.22784 10.3678 2.43259 10.4726C2.74918 9.78555 3.4439 9.30865 4.25 9.30865C4.84735 9.30865 5.38353 9.57053 5.75 9.98574C6.11647 9.57053 6.65265 9.30865 7.25 9.30865C7.84735 9.30865 8.38353 9.57053 8.75 9.98574C9.11647 9.57053 9.65265 9.30865 10.25 9.30865C10.8473 9.30865 11.3835 9.57053 11.75 9.98574C12.1165 9.57053 12.6527 9.30865 13.25 9.30865C13.8473 9.30865 14.3835 9.57053 14.75 9.98574C15.1165 9.57053 15.6527 9.30865 16.25 9.30865C16.8473 9.30865 17.3835 9.57053 17.75 9.98574C18.1165 9.57053 18.6527 9.30865 19.25 9.30865C20.3546 9.30865 21.25 10.2041 21.25 11.3086V10.8086H22.75ZM3.25 21.3086C3.25 21.8609 3.69772 22.3086 4.25 22.3086C4.80228 22.3086 5.25 21.8609 5.25 21.3086V11.3086C5.25 10.7564 4.80228 10.3086 4.25 10.3086C3.69772 10.3086 3.25 10.7564 3.25 11.3086V21.3086ZM2.25 11.8086C2.25 11.5325 2.02614 11.3086 1.75 11.3086C1.47386 11.3086 1.25 11.5325 1.25 11.8086V12.8086C1.25 13.0848 1.47386 13.3086 1.75 13.3086C2.02614 13.3086 2.25 13.0848 2.25 12.8086V11.8086ZM17.25 21.3086V11.3086C17.25 10.7564 16.8023 10.3086 16.25 10.3086C15.6977 10.3086 15.25 10.7564 15.25 11.3086V21.3086C15.25 21.8609 15.6977 22.3086 16.25 22.3086C16.8023 22.3086 17.25 21.8609 17.25 21.3086ZM18.25 11.3086V21.3086C18.25 21.8609 18.6977 22.3086 19.25 22.3086C19.8023 22.3086 20.25 21.8609 20.25 21.3086V11.3086C20.25 10.7564 19.8023 10.3086 19.25 10.3086C18.6977 10.3086 18.25 10.7564 18.25 11.3086ZM13.25 10.3086C13.8023 10.3086 14.25 10.7564 14.25 11.3086V21.3086C14.25 21.8609 13.8023 22.3086 13.25 22.3086C12.6977 22.3086 12.25 21.8609 12.25 21.3086V11.3086C12.25 10.7564 12.6977 10.3086 13.25 10.3086ZM11.25 21.3086V11.3086C11.25 10.7564 10.8023 10.3086 10.25 10.3086C9.69771 10.3086 9.25 10.7564 9.25 11.3086V21.3086C9.25 21.8609 9.69772 22.3086 10.25 22.3086C10.8023 22.3086 11.25 21.8609 11.25 21.3086ZM7.25 10.3086C7.80228 10.3086 8.25 10.7564 8.25 11.3086V21.3086C8.25 21.8609 7.80228 22.3086 7.25 22.3086C6.69772 22.3086 6.25 21.8609 6.25 21.3086V11.3086C6.25 10.7564 6.69772 10.3086 7.25 10.3086Z" fill="#101820"/>
<path d="M13.5274 0.892622C13.2976 0.739446 12.9872 0.801532 12.834 1.0313C12.6808 1.26106 12.7429 1.5715 12.9726 1.72467L14.1121 2.48432C14.6217 2.82405 14.5742 3.58754 14.0264 3.86143C12.7918 4.47871 12.6847 6.19938 13.8332 6.96502L14.9726 7.72467C15.2024 7.87785 15.5128 7.81576 15.666 7.586C15.8192 7.35623 15.7571 7.0458 15.5274 6.89262L14.3879 6.13297C13.8783 5.79325 13.9258 5.02976 14.4736 4.75586C15.7082 4.13859 15.8153 2.41791 14.6668 1.65227L13.5274 0.892622Z" fill="#101820"/>
</g>
</svg>
