<svg width="24" height="24" viewBox="0 0 24 24" fill="none" xmlns="http://www.w3.org/2000/svg">
<path d="M11.1895 15.097H12.2947C12.2947 14.5942 12.3684 14.1228 12.5158 13.6828C12.6632 13.2366 12.9333 12.8406 13.3263 12.4949C13.7561 12.0927 14.1338 11.6936 14.4592 11.2976C14.7846 10.9017 15.0395 10.4806 15.2237 10.0343C15.4079 9.58182 15.5 9.07587 15.5 8.5165C15.5 7.81886 15.3649 7.20606 15.0947 6.67811C14.8307 6.15017 14.4439 5.7385 13.9342 5.4431C13.4307 5.1477 12.8105 5 12.0737 5C11.4228 5 10.8272 5.13513 10.2868 5.40539C9.75263 5.66936 9.32281 6.05589 8.99737 6.56498C8.67807 7.06779 8.51228 7.67744 8.5 8.39394H9.59605C9.60833 7.89113 9.71886 7.46375 9.92763 7.11178C10.1425 6.75354 10.4342 6.48013 10.8026 6.29158C11.1772 6.10303 11.6009 6.00875 12.0737 6.00875C12.5895 6.00875 13.0193 6.1156 13.3632 6.32929C13.707 6.54299 13.9649 6.83838 14.1368 7.21549C14.3088 7.59259 14.3947 8.02941 14.3947 8.52593C14.3947 9.02873 14.3211 9.45297 14.1737 9.79865C14.0325 10.1443 13.836 10.4617 13.5842 10.7508C13.3325 11.0337 13.0439 11.3416 12.7184 11.6747C12.3439 12.0519 12.0461 12.3975 11.825 12.7118C11.6039 13.026 11.4443 13.3686 11.3461 13.7394C11.2478 14.1102 11.1956 14.5627 11.1895 15.097Z" fill="#101820"/>
<path d="M11.2447 17.7084C11.1096 17.853 11.0421 18.0321 11.0421 18.2458C11.0421 18.4532 11.1096 18.6323 11.2447 18.7832C11.3798 18.9277 11.564 19 11.7974 19C12.0307 19 12.2149 18.9277 12.35 18.7832C12.4912 18.6323 12.5618 18.4532 12.5618 18.2458C12.5618 18.0321 12.4912 17.853 12.35 17.7084C12.2149 17.5576 12.0307 17.4822 11.7974 17.4822C11.564 17.4822 11.3798 17.5576 11.2447 17.7084Z" fill="#101820"/>
<path fill-rule="evenodd" clip-rule="evenodd" d="M24 12C24 18.6274 18.6274 24 12 24C5.37258 24 0 18.6274 0 12C0 5.37258 5.37258 0 12 0C18.6274 0 24 5.37258 24 12ZM23 12C23 18.0751 18.0751 23 12 23C5.92487 23 1 18.0751 1 12C1 5.92487 5.92487 1 12 1C18.0751 1 23 5.92487 23 12Z" fill="#101820"/>
</svg>
