<svg width="24" height="25" viewBox="0 0 24 25" fill="none" xmlns="http://www.w3.org/2000/svg">
<g opacity="0.6">
<path fill-rule="evenodd" clip-rule="evenodd" d="M14 20.0586V23.0586C14 23.6109 14.4477 24.0586 15 24.0586H16C16.5523 24.0586 17 23.6109 17 23.0586V9.05859H17.5C18.3284 9.05859 19 8.38702 19 7.55859C19 6.73017 18.3284 6.05859 17.5 6.05859H17V5.05859C17 2.29717 14.7614 0.0585938 12 0.0585938C9.23858 0.0585938 7 2.29717 7 5.05859V6.05859H6.5C5.67157 6.05859 5 6.73017 5 7.55859C5 8.38702 5.67157 9.05859 6.5 9.05859H7V23.0586C7 23.6109 7.44772 24.0586 8 24.0586H9C9.55228 24.0586 10 23.6109 10 23.0586V20.0586H14ZM16 12.0586V9.05859H13.8L13.2 12.0586H16ZM16 13.0586H15V23.0586H16V13.0586ZM14 19.0586V18.0586H10V19.0586H14ZM14 17.0586V13.0586H10V17.0586H14ZM12.1802 12.0586L12.7802 9.05859H11.2198L11.8198 12.0586H12.1802ZM8 9.05859H10.2L10.8 12.0586H8V9.05859ZM9 13.0586V23.0586H8V13.0586H9ZM6.5 8.05859C6.22386 8.05859 6 7.83474 6 7.55859C6 7.28245 6.22386 7.05859 6.5 7.05859H17.5C17.7761 7.05859 18 7.28245 18 7.55859C18 7.83474 17.7761 8.05859 17.5 8.05859H6.5ZM16 6.05859V5.05859C16 2.84945 14.2091 1.05859 12 1.05859C9.79086 1.05859 8 2.84945 8 5.05859V6.05859H16Z" fill="#101820"/>
</g>
</svg>
