<svg width="24" height="25" viewBox="0 0 24 25" fill="none" xmlns="http://www.w3.org/2000/svg">
<g opacity="0.6">
<path fill-rule="evenodd" clip-rule="evenodd" d="M11 7.05859C11 6.50631 11.4477 6.05859 12 6.05859H20C20.5523 6.05859 21 6.50631 21 7.05859V14.0586C21 14.6109 20.5523 15.0586 20 15.0586H12C11.4477 15.0586 11 14.6109 11 14.0586V7.05859ZM12 7.05859H20V14.0586H12V7.05859Z" fill="#101820"/>
<path d="M15 18.0586H12V17.0586H15V18.0586Z" fill="#101820"/>
<path d="M17 18.0586H20V17.0586H17V18.0586Z" fill="#101820"/>
<path fill-rule="evenodd" clip-rule="evenodd" d="M6 24.0586C7.65685 24.0586 9 22.7154 9 21.0586H22C23.1046 21.0586 24 20.1632 24 19.0586V5.05859C24 3.95402 23.1046 3.05859 22 3.05859H9C9 1.40174 7.65685 0.0585938 6 0.0585938H3C1.34315 0.0585938 0 1.40174 0 3.05859V21.0586C0 22.7154 1.34315 24.0586 3 24.0586H6ZM6 1.05859H3C1.89543 1.05859 1 1.95402 1 3.05859V21.0586C1 22.1632 1.89543 23.0586 3 23.0586H6C7.10457 23.0586 8 22.1632 8 21.0586V3.05859C8 1.95402 7.10457 1.05859 6 1.05859ZM9 20.0586V4.05859H22C22.5523 4.05859 23 4.50631 23 5.05859V19.0586C23 19.6109 22.5523 20.0586 22 20.0586H9Z" fill="#101820"/>
</g>
</svg>
