<svg width="24" height="25" viewBox="0 0 24 25" fill="none" xmlns="http://www.w3.org/2000/svg">
<g opacity="0.6">
<path d="M15.5 4.46016C15.9142 4.46016 16.25 4.12437 16.25 3.71016C16.25 3.29594 15.9142 2.96016 15.5 2.96016C15.0858 2.96016 14.75 3.29594 14.75 3.71016C14.75 4.12437 15.0858 4.46016 15.5 4.46016Z" fill="#101820"/>
<path d="M14.0996 6.71094C14.0996 7.12515 13.7638 7.46094 13.3496 7.46094C12.9354 7.46094 12.5996 7.12515 12.5996 6.71094C12.5996 6.29672 12.9354 5.96094 13.3496 5.96094C13.7638 5.96094 14.0996 6.29672 14.0996 6.71094Z" fill="#101820"/>
<path d="M12.4502 10.4609C12.8644 10.4609 13.2002 10.1252 13.2002 9.71094C13.2002 9.29672 12.8644 8.96094 12.4502 8.96094C12.036 8.96094 11.7002 9.29672 11.7002 9.71094C11.7002 10.1252 12.036 10.4609 12.4502 10.4609Z" fill="#101820"/>
<path d="M12.7002 12.7109C12.7002 13.1252 12.3644 13.4609 11.9502 13.4609C11.536 13.4609 11.2002 13.1252 11.2002 12.7109C11.2002 12.2967 11.536 11.9609 11.9502 11.9609C12.3644 11.9609 12.7002 12.2967 12.7002 12.7109Z" fill="#101820"/>
<path d="M11.75 16.4609C12.1642 16.4609 12.5 16.1252 12.5 15.7109C12.5 15.2967 12.1642 14.9609 11.75 14.9609C11.3358 14.9609 11 15.2967 11 15.7109C11 16.1252 11.3358 16.4609 11.75 16.4609Z" fill="#101820"/>
<path d="M17 6.71094C17 7.12515 17.3358 7.46094 17.75 7.46094C18.1642 7.46094 18.5 7.12515 18.5 6.71094C18.5 6.29672 18.1642 5.96094 17.75 5.96094C17.3358 5.96094 17 6.29672 17 6.71094Z" fill="#101820"/>
<path d="M18.6494 10.4609C18.2352 10.4609 17.8994 10.1252 17.8994 9.71094C17.8994 9.29672 18.2352 8.96094 18.6494 8.96094C19.0636 8.96094 19.3994 9.29672 19.3994 9.71094C19.3994 10.1252 19.0636 10.4609 18.6494 10.4609Z" fill="#101820"/>
<path d="M18.3994 12.7109C18.3994 13.1252 18.7352 13.4609 19.1494 13.4609C19.5636 13.4609 19.8994 13.1252 19.8994 12.7109C19.8994 12.2967 19.5636 11.9609 19.1494 11.9609C18.7352 11.9609 18.3994 12.2967 18.3994 12.7109Z" fill="#101820"/>
<path d="M19.3496 16.4609C18.9354 16.4609 18.5996 16.1252 18.5996 15.7109C18.5996 15.2967 18.9354 14.9609 19.3496 14.9609C19.7638 14.9609 20.0996 15.2967 20.0996 15.7109C20.0996 16.1252 19.7638 16.4609 19.3496 16.4609Z" fill="#101820"/>
<path fill-rule="evenodd" clip-rule="evenodd" d="M11.9373 2.6405C13.4219 -0.268188 17.5781 -0.268188 19.0627 2.6405L19.6578 3.80637C21.526 7.46645 22.5 11.5379 22.5 15.6472C22.5 16.6616 22.1224 17.5907 21.5 18.2988V21.6602C21.5 22.7647 20.6046 23.6602 19.5 23.6602H11.5C10.6794 23.6602 9.97426 23.166 9.66591 22.459H8.5C7.67157 22.459 7 21.7874 7 20.959V20.459C7 20.1828 6.77614 19.959 6.5 19.959H4.5C4.22386 19.959 4 20.1828 4 20.459V20.959C4 21.7874 3.32843 22.459 2.5 22.459H1.5V21.459H2.5C2.77614 21.459 3 21.2351 3 20.959V20.459C3 19.6306 3.67157 18.959 4.5 18.959H6.5C7.32843 18.959 8 19.6306 8 20.459V20.959C8 21.2351 8.22386 21.459 8.5 21.459H9.5V18.2988C8.87764 17.5907 8.5 16.6616 8.5 15.6472C8.5 11.5379 9.47402 7.46645 11.3422 3.80637L11.9373 2.6405ZM21.5 15.6472C21.5 17.3084 20.1526 18.6604 18.5 18.6604H12.5C10.8474 18.6604 9.5 17.3084 9.5 15.6472C9.5 11.6951 10.4369 7.77957 12.2329 4.26099L12.8279 3.09512C13.9414 0.913605 17.0586 0.913605 18.1721 3.09512L18.7671 4.26099C20.5631 7.77957 21.5 11.6951 21.5 15.6472ZM18.5 19.6604C19.2286 19.6604 19.9117 19.4642 20.5 19.1219V21.6602C20.5 22.2124 20.0523 22.6602 19.5 22.6602H11.5C10.9477 22.6602 10.5 22.2124 10.5 21.6602V19.1219C11.0883 19.4642 11.7714 19.6604 12.5 19.6604H18.5Z" fill="#101820"/>
</g>
</svg>
