<svg width="24" height="25" viewBox="0 0 24 25" fill="none" xmlns="http://www.w3.org/2000/svg">
<g opacity="0.6">
<path d="M6.5 3.05859V5.05859H7.5V3.05859H6.5Z" fill="#101820"/>
<path d="M10.5 3.55859H13.5V2.55859H10.5V3.55859Z" fill="#101820"/>
<path d="M17.5 5.05859H16.5V3.05859H17.5V5.05859Z" fill="#101820"/>
<path fill-rule="evenodd" clip-rule="evenodd" d="M9 5.05859V7.05859C9 7.61088 8.55229 8.05859 8 8.05859H1C0.447715 8.05859 0 7.61088 0 7.05859V0.0585938H24V7.05859C24 7.61088 23.5523 8.05859 23 8.05859H16C15.4477 8.05859 15 7.61088 15 7.05859V5.05859H9ZM1 1.05859H8V7.05859H1L1 1.05859ZM9 4.05859H15V1.05859H9V4.05859ZM16 7.05859H23V1.05859H16V7.05859Z" fill="#101820"/>
<path d="M16.5 18.0586V20.0586H17.5V18.0586H16.5Z" fill="#101820"/>
<path d="M13 20.0586V18.0586H14V20.0586H13Z" fill="#101820"/>
<path d="M10 18.0586V20.0586H11V18.0586H10Z" fill="#101820"/>
<path d="M6 21.0586H3V20.0586H6V21.0586Z" fill="#101820"/>
<path d="M6 16.5586H3V15.5586H6V16.5586Z" fill="#101820"/>
<path fill-rule="evenodd" clip-rule="evenodd" d="M20.5 12.0586H21.5V11.0586H22.5V12.1924C22.7989 12.3653 23 12.6885 23 13.0586V14.0586C23.5523 14.0586 24 14.5063 24 15.0586V23.0586C24 23.6109 23.5523 24.0586 23 24.0586H1C0.447716 24.0586 0 23.6109 0 23.0586V15.0586C0 14.5063 0.447715 14.0586 1 14.0586H17V13.0586C17 12.6885 17.2011 12.3653 17.5 12.1924V11.0586H18.5V12.0586H19.5V10.0586H20.5V12.0586ZM18 14.0586H22V13.0586H18V14.0586ZM16 15.0586V23.0586H23V15.0586H16ZM12.5 23.0586H15V15.0586H12.5V23.0586ZM11.5 23.0586H9V15.0586H11.5V23.0586ZM8 23.0586H1V19.5586H8V23.0586ZM1 18.5586V15.0586H8V18.5586H1Z" fill="#101820"/>
</g>
</svg>
