<svg width="24" height="25" viewBox="0 0 24 25" fill="none" xmlns="http://www.w3.org/2000/svg">
<g opacity="0.6">
<path fill-rule="evenodd" clip-rule="evenodd" d="M10 4.01938C10 5.10229 9.10457 5.98016 8 5.98016C6.89543 5.98016 6 5.10229 6 4.01938C6 2.93647 6.89543 2.05859 8 2.05859C9.10457 2.05859 10 2.93647 10 4.01938ZM9 4.01938C9 4.56083 8.55228 4.99977 8 4.99977C7.44772 4.99977 7 4.56083 7 4.01938C7 3.47792 7.44772 3.03899 8 3.03899C8.55228 3.03899 9 3.47792 9 4.01938Z" fill="#101820"/>
<path fill-rule="evenodd" clip-rule="evenodd" d="M22.5 10.8821H21.4646C21.7739 10.3576 21.9635 9.75557 21.9952 9.11425C21.9984 9.05033 22 8.98601 22 8.92134C22 6.75552 20.2091 4.99977 18 4.99977C16.8718 4.99977 15.8528 5.45765 15.1256 6.19419C14.778 6.05616 14.398 5.98016 14 5.98016C13.9183 5.98016 13.8374 5.98336 13.7574 5.98965C12.5567 6.08389 11.5543 6.87138 11.1691 7.94554C11.1131 7.94249 11.0567 7.94095 11 7.94095C10.2319 7.94095 9.53094 8.22397 9 8.68986C8.46906 8.22397 7.76811 7.94095 7 7.94095C5.69378 7.94095 4.58254 8.75939 4.17071 9.90173C4.06015 10.2084 4 10.5384 4 10.8821H1.5C0.671573 10.8821 0 11.5405 0 12.3527C0 13.123 0.604018 13.7549 1.37301 13.8181L3.02669 18.1414C3.48227 19.3325 4.48711 20.2108 5.6962 20.5418L4.7 21.2743L5.3 22.0586L7.16667 20.686H16.8333L18.7 22.0586L19.3 21.2743L18.3038 20.5418C19.5129 20.2108 20.5177 19.3325 20.9733 18.1414L22.627 13.8181C23.396 13.7549 24 13.123 24 12.3527C24 11.5405 23.3284 10.8821 22.5 10.8821ZM8.33309 9.42039L9 10.0056L9.66691 9.42039C10.0214 9.10932 10.4871 8.92134 11 8.92134C11.0382 8.92134 11.0761 8.92238 11.1136 8.92442L11.8634 8.96525L12.1124 8.27071C12.3866 7.50624 13.1296 6.96055 14 6.96055C14.2672 6.96055 14.5198 7.01141 14.7502 7.10287L15.3752 7.35105L15.8441 6.87605C16.3907 6.32242 17.1537 5.98016 18 5.98016C19.6569 5.98016 21 7.29697 21 8.92134C21 8.95492 20.9994 8.98836 20.9983 9.02166C20.9878 9.33004 20.9292 9.62552 20.8296 9.90173C20.6979 10.267 20.4944 10.5992 20.2361 10.8821H5C5 9.79921 5.89543 8.92134 7 8.92134C7.51288 8.92134 7.97858 9.10932 8.33309 9.42039ZM1.5 12.8429C1.22386 12.8429 1 12.6234 1 12.3527C1 12.082 1.22386 11.8625 1.5 11.8625H22.5C22.7761 11.8625 23 12.082 23 12.3527C23 12.6234 22.7761 12.8429 22.5 12.8429H1.5ZM3.96301 17.7972L2.443 13.8233H21.557L20.037 17.7972C19.5979 18.9451 18.4785 19.7057 17.228 19.7057H6.772C5.52147 19.7057 4.40211 18.9451 3.96301 17.7972Z" fill="#101820"/>
</g>
</svg>
