<svg width="24" height="25" viewBox="0 0 24 25" fill="none" xmlns="http://www.w3.org/2000/svg">
<path d="M23.3192 7.31424L23.2503 7.04047C21.9084 1.71277 14.6155 0.960847 12.2022 5.90005C12.116 6.07645 11.8631 6.0754 11.7786 5.89822C9.42246 0.963638 2.16164 1.65256 0.784027 6.94141L0.692572 7.29252C0.140845 9.41068 0.794647 11.6598 2.39737 13.157L11.2631 21.4395C11.6709 21.8205 12.3058 21.8205 12.7136 21.4395L21.6011 13.1367C23.1925 11.6501 23.85 9.4217 23.3192 7.31424Z" fill="#EB5757"/>
<path fill-rule="evenodd" clip-rule="evenodd" d="M11.3203 6.30016C9.16926 1.83197 2.54051 2.45578 1.28282 7.24475L1.19142 7.59276C0.686676 9.51472 1.28481 11.5555 2.75107 12.9141L11.6109 21.1234C11.8232 21.32 12.1536 21.32 12.3658 21.1234L21.2474 12.8939C22.7034 11.5449 23.305 9.52277 22.8194 7.61038L22.7505 7.33902C21.5249 2.51278 14.8632 1.83074 12.6585 6.30604C12.3864 6.85845 11.5876 6.85559 11.3203 6.30016ZM11.9934 5.40873C9.2128 0.604771 1.75104 1.46827 0.300108 6.99307L0.208713 7.34107C-0.389259 9.61801 0.319345 12.0357 2.05641 13.6452L10.9163 21.8545C11.5191 22.4131 12.4577 22.4131 13.0605 21.8545L21.9421 13.6251C23.6667 12.0271 24.3794 9.6318 23.8041 7.36651L23.7352 7.09516C22.3222 1.53095 14.8301 0.604145 11.9934 5.40873Z" fill="#EB5757"/>
</svg>
