<svg width="24" height="25" viewBox="0 0 24 25" fill="none" xmlns="http://www.w3.org/2000/svg">
<g opacity="0.6">
<path d="M19 8.05859C19.2761 8.05859 19.5 7.83474 19.5 7.55859C19.5 7.28245 19.2761 7.05859 19 7.05859C18.7239 7.05859 18.5 7.28245 18.5 7.55859C18.5 7.83474 18.7239 8.05859 19 8.05859Z" fill="#101820"/>
<path d="M21.5 7.55859C21.5 7.83474 21.2761 8.05859 21 8.05859C20.7239 8.05859 20.5 7.83474 20.5 7.55859C20.5 7.28245 20.7239 7.05859 21 7.05859C21.2761 7.05859 21.5 7.28245 21.5 7.55859Z" fill="#101820"/>
<path d="M19 10.0586C19.2761 10.0586 19.5 9.83474 19.5 9.55859C19.5 9.28245 19.2761 9.05859 19 9.05859C18.7239 9.05859 18.5 9.28245 18.5 9.55859C18.5 9.83474 18.7239 10.0586 19 10.0586Z" fill="#101820"/>
<path d="M21.5 9.55859C21.5 9.83474 21.2761 10.0586 21 10.0586C20.7239 10.0586 20.5 9.83474 20.5 9.55859C20.5 9.28245 20.7239 9.05859 21 9.05859C21.2761 9.05859 21.5 9.28245 21.5 9.55859Z" fill="#101820"/>
<path d="M19 12.0586C19.2761 12.0586 19.5 11.8347 19.5 11.5586C19.5 11.2825 19.2761 11.0586 19 11.0586C18.7239 11.0586 18.5 11.2825 18.5 11.5586C18.5 11.8347 18.7239 12.0586 19 12.0586Z" fill="#101820"/>
<path d="M21.5 11.5586C21.5 11.8347 21.2761 12.0586 21 12.0586C20.7239 12.0586 20.5 11.8347 20.5 11.5586C20.5 11.2825 20.7239 11.0586 21 11.0586C21.2761 11.0586 21.5 11.2825 21.5 11.5586Z" fill="#101820"/>
<path fill-rule="evenodd" clip-rule="evenodd" d="M20 17.0586C21.1046 17.0586 22 16.1632 22 15.0586C22 13.954 21.1046 13.0586 20 13.0586C18.8954 13.0586 18 13.954 18 15.0586C18 16.1632 18.8954 17.0586 20 17.0586ZM20 16.0586C20.5523 16.0586 21 15.6109 21 15.0586C21 14.5063 20.5523 14.0586 20 14.0586C19.4477 14.0586 19 14.5063 19 15.0586C19 15.6109 19.4477 16.0586 20 16.0586Z" fill="#101820"/>
<path d="M4.80882 8.8233C4.93877 8.57964 5.24164 8.48747 5.48529 8.61742L6.85949 9.35032C8.17417 10.0515 8.0691 11.9695 6.6857 12.5228C6.09192 12.7603 6.04682 13.5836 6.6111 13.8845L7.98529 14.6174C8.22895 14.7474 8.32113 15.0502 8.19118 15.2939C8.06123 15.5375 7.75836 15.6297 7.51471 15.4998L6.14051 14.7669C4.82583 14.0657 4.9309 12.1477 6.3143 11.5944C6.90808 11.3568 6.95318 10.5336 6.3889 10.2327L5.01471 9.49977C4.77105 9.36982 4.67887 9.06695 4.80882 8.8233Z" fill="#101820"/>
<path d="M9.48529 8.61742C9.24164 8.48747 8.93877 8.57964 8.80882 8.8233C8.67887 9.06695 8.77105 9.36982 9.01471 9.49977L10.3889 10.2327C10.9532 10.5336 10.9081 11.3568 10.3143 11.5944C8.9309 12.1477 8.82583 14.0657 10.1405 14.7669L11.5147 15.4998C11.7584 15.6297 12.0612 15.5375 12.1912 15.2939C12.3211 15.0502 12.2289 14.7474 11.9853 14.6174L10.6111 13.8845C10.0468 13.5836 10.0919 12.7603 10.6857 12.5228C12.0691 11.9695 12.1742 10.0515 10.8595 9.35032L9.48529 8.61742Z" fill="#101820"/>
<path fill-rule="evenodd" clip-rule="evenodd" d="M2 8.05859C2 6.95402 2.89543 6.05859 4 6.05859H13C14.1046 6.05859 15 6.95402 15 8.05859V16.0586C15 17.1632 14.1046 18.0586 13 18.0586H4C2.89543 18.0586 2 17.1632 2 16.0586V8.05859ZM4 7.05859H13C13.5523 7.05859 14 7.50631 14 8.05859V16.0586C14 16.6109 13.5523 17.0586 13 17.0586H4C3.44772 17.0586 3 16.6109 3 16.0586V8.05859C3 7.50631 3.44772 7.05859 4 7.05859Z" fill="#101820"/>
<path fill-rule="evenodd" clip-rule="evenodd" d="M0 6.05859C0 4.95402 0.895431 4.05859 2 4.05859H22C23.1046 4.05859 24 4.95402 24 6.05859V18.0586C24 19.1632 23.1046 20.0586 22 20.0586H2C0.89543 20.0586 0 19.1632 0 18.0586V6.05859ZM17 5.05859H22C22.5523 5.05859 23 5.50631 23 6.05859V18.0586C23 18.6109 22.5523 19.0586 22 19.0586H17V5.05859ZM16 5.05859H2C1.44772 5.05859 1 5.50631 1 6.05859V18.0586C1 18.6109 1.44772 19.0586 2 19.0586H16V5.05859Z" fill="#101820"/>
</g>
</svg>
