<svg width="24" height="25" viewBox="0 0 24 25" fill="none" xmlns="http://www.w3.org/2000/svg">
<g opacity="0.6">
<path fill-rule="evenodd" clip-rule="evenodd" d="M13.5422 4.05469C14.0175 1.77465 16.0869 0.0585938 18.5678 0.0585938C21.4 0.0585938 23.696 2.29516 23.696 5.0541C23.696 7.81304 21.4 10.0496 18.5678 10.0496C17.642 10.0496 16.7734 9.81061 16.0237 9.39248L10.6984 15.473V23.0375H15.6984C15.9746 23.0375 16.1984 23.2613 16.1984 23.5375C16.1984 23.8136 15.9746 24.0375 15.6984 24.0375H10.6984V24.0584H9.69842V24.0375H4.69842C4.42228 24.0375 4.19842 23.8136 4.19842 23.5375C4.19842 23.2613 4.42228 23.0375 4.69842 23.0375H9.69842V15.473L0.424819 4.88411C0.141726 4.56086 0.371276 4.05469 0.800961 4.05469H13.5422ZM22.696 5.0541C22.696 7.23621 20.8726 9.04961 18.5678 9.04961C17.8929 9.04961 17.2593 8.89413 16.7007 8.61944L19.972 4.88411C20.2551 4.56086 20.0256 4.05469 19.5959 4.05469H14.5704C15.0268 2.34503 16.6265 1.05859 18.5678 1.05859C20.8726 1.05859 22.696 2.872 22.696 5.0541ZM5.62231 9.03633C6.85646 8.2143 8.47468 8.2592 9.66135 9.1484L9.87626 9.30944C10.9599 10.1214 12.3515 10.4023 13.6652 10.0741L14.2184 9.93598L10.1984 14.5261L5.47594 9.13381L5.62231 9.03633ZM4.81135 8.37496L1.9035 5.05469H18.4934L15.3738 8.61665L13.4229 9.10396C12.4011 9.35917 11.3187 9.14072 10.4759 8.50918L10.261 8.34814C8.73529 7.20489 6.65472 7.14715 5.06796 8.20405L4.81135 8.37496Z" fill="#101820"/>
</g>
</svg>
