<svg width="24" height="25" viewBox="0 0 24 25" fill="none" xmlns="http://www.w3.org/2000/svg">
<g opacity="0.6">
<path d="M9.5 16.5586C9.5 16.8347 9.27614 17.0586 9 17.0586C8.72386 17.0586 8.5 16.8347 8.5 16.5586C8.5 16.2825 8.72386 16.0586 9 16.0586C9.27614 16.0586 9.5 16.2825 9.5 16.5586Z" fill="#101820"/>
<path d="M11 17.0586C11.2761 17.0586 11.5 16.8347 11.5 16.5586C11.5 16.2825 11.2761 16.0586 11 16.0586C10.7239 16.0586 10.5 16.2825 10.5 16.5586C10.5 16.8347 10.7239 17.0586 11 17.0586Z" fill="#101820"/>
<path d="M13.5 16.5586C13.5 16.8347 13.2761 17.0586 13 17.0586C12.7239 17.0586 12.5 16.8347 12.5 16.5586C12.5 16.2825 12.7239 16.0586 13 16.0586C13.2761 16.0586 13.5 16.2825 13.5 16.5586Z" fill="#101820"/>
<path d="M15 17.0586C15.2761 17.0586 15.5 16.8347 15.5 16.5586C15.5 16.2825 15.2761 16.0586 15 16.0586C14.7239 16.0586 14.5 16.2825 14.5 16.5586C14.5 16.8347 14.7239 17.0586 15 17.0586Z" fill="#101820"/>
<path d="M9.5 18.5586C9.5 18.8347 9.27614 19.0586 9 19.0586C8.72386 19.0586 8.5 18.8347 8.5 18.5586C8.5 18.2825 8.72386 18.0586 9 18.0586C9.27614 18.0586 9.5 18.2825 9.5 18.5586Z" fill="#101820"/>
<path d="M11 19.0586C11.2761 19.0586 11.5 18.8347 11.5 18.5586C11.5 18.2825 11.2761 18.0586 11 18.0586C10.7239 18.0586 10.5 18.2825 10.5 18.5586C10.5 18.8347 10.7239 19.0586 11 19.0586Z" fill="#101820"/>
<path d="M13.5 18.5586C13.5 18.8347 13.2761 19.0586 13 19.0586C12.7239 19.0586 12.5 18.8347 12.5 18.5586C12.5 18.2825 12.7239 18.0586 13 18.0586C13.2761 18.0586 13.5 18.2825 13.5 18.5586Z" fill="#101820"/>
<path d="M15 19.0586C15.2761 19.0586 15.5 18.8347 15.5 18.5586C15.5 18.2825 15.2761 18.0586 15 18.0586C14.7239 18.0586 14.5 18.2825 14.5 18.5586C14.5 18.8347 14.7239 19.0586 15 19.0586Z" fill="#101820"/>
<path d="M9.5 20.5586C9.5 20.8347 9.27614 21.0586 9 21.0586C8.72386 21.0586 8.5 20.8347 8.5 20.5586C8.5 20.2825 8.72386 20.0586 9 20.0586C9.27614 20.0586 9.5 20.2825 9.5 20.5586Z" fill="#101820"/>
<path d="M11 21.0586C11.2761 21.0586 11.5 20.8347 11.5 20.5586C11.5 20.2825 11.2761 20.0586 11 20.0586C10.7239 20.0586 10.5 20.2825 10.5 20.5586C10.5 20.8347 10.7239 21.0586 11 21.0586Z" fill="#101820"/>
<path d="M13.5 20.5586C13.5 20.8347 13.2761 21.0586 13 21.0586C12.7239 21.0586 12.5 20.8347 12.5 20.5586C12.5 20.2825 12.7239 20.0586 13 20.0586C13.2761 20.0586 13.5 20.2825 13.5 20.5586Z" fill="#101820"/>
<path d="M15 21.0586C15.2761 21.0586 15.5 20.8347 15.5 20.5586C15.5 20.2825 15.2761 20.0586 15 20.0586C14.7239 20.0586 14.5 20.2825 14.5 20.5586C14.5 20.8347 14.7239 21.0586 15 21.0586Z" fill="#101820"/>
<path fill-rule="evenodd" clip-rule="evenodd" d="M8 9.05859C7.44772 9.05859 7 9.50631 7 10.0586V13.0586C7 13.6109 7.44772 14.0586 8 14.0586H16C16.5523 14.0586 17 13.6109 17 13.0586V10.0586C17 9.50631 16.5523 9.05859 16 9.05859H8ZM16 10.0586H8V13.0586H16V10.0586Z" fill="#101820"/>
<path fill-rule="evenodd" clip-rule="evenodd" d="M3 9.05859C2.44772 9.05859 2 9.50631 2 10.0586V11.0586C2 11.6109 2.44772 12.0586 3 12.0586H5C5.55228 12.0586 6 11.6109 6 11.0586V10.0586C6 9.50631 5.55228 9.05859 5 9.05859H3ZM3 10.0586V11.0586H5V10.0586H3Z" fill="#101820"/>
<path fill-rule="evenodd" clip-rule="evenodd" d="M18 10.0586C18 9.50631 18.4477 9.05859 19 9.05859H21C21.5523 9.05859 22 9.50631 22 10.0586V11.0586C22 11.6109 21.5523 12.0586 21 12.0586H19C18.4477 12.0586 18 11.6109 18 11.0586V10.0586ZM19 11.0586V10.0586H21V11.0586H19Z" fill="#101820"/>
<path fill-rule="evenodd" clip-rule="evenodd" d="M3 13.5586C2.44772 13.5586 2 14.0063 2 14.5586V15.5586C2 16.1109 2.44772 16.5586 3 16.5586H5C5.55228 16.5586 6 16.1109 6 15.5586V14.5586C6 14.0063 5.55228 13.5586 5 13.5586H3ZM3 14.5586V15.5586H5V14.5586H3Z" fill="#101820"/>
<path fill-rule="evenodd" clip-rule="evenodd" d="M18 14.5586C18 14.0063 18.4477 13.5586 19 13.5586H21C21.5523 13.5586 22 14.0063 22 14.5586V15.5586C22 16.1109 21.5523 16.5586 21 16.5586H19C18.4477 16.5586 18 16.1109 18 15.5586V14.5586ZM19 15.5586V14.5586H21V15.5586H19Z" fill="#101820"/>
<path fill-rule="evenodd" clip-rule="evenodd" d="M3 18.0586C2.44772 18.0586 2 18.5063 2 19.0586V20.0586C2 20.6109 2.44772 21.0586 3 21.0586H5C5.55228 21.0586 6 20.6109 6 20.0586V19.0586C6 18.5063 5.55228 18.0586 5 18.0586H3ZM3 19.0586V20.0586H5V19.0586H3Z" fill="#101820"/>
<path fill-rule="evenodd" clip-rule="evenodd" d="M18 19.0586C18 18.5063 18.4477 18.0586 19 18.0586H21C21.5523 18.0586 22 18.5063 22 19.0586V20.0586C22 20.6109 21.5523 21.0586 21 21.0586H19C18.4477 21.0586 18 20.6109 18 20.0586V19.0586ZM19 20.0586V19.0586H21V20.0586H19Z" fill="#101820"/>
<path fill-rule="evenodd" clip-rule="evenodd" d="M0 4.05859C0 1.84946 1.79086 0.0585938 4 0.0585938H20C22.2091 0.0585938 24 1.84945 24 4.05859V20.0586C24 22.2677 22.2091 24.0586 20 24.0586H4C1.79086 24.0586 0 22.2677 0 20.0586V4.05859ZM4 1.05859H20C21.6569 1.05859 23 2.40174 23 4.05859L1 4.05859C1 2.40174 2.34315 1.05859 4 1.05859ZM5 5.05859H1V20.0586C1 21.7154 2.34315 23.0586 4 23.0586H20C21.6569 23.0586 23 21.7154 23 20.0586V5.05859H19V6.05859C19 6.61088 18.5523 7.05859 18 7.05859H6C5.44772 7.05859 5 6.61088 5 6.05859V5.05859ZM18 5.05859H6V6.05859H18V5.05859Z" fill="#101820"/>
</g>
</svg>
