<svg width="24" height="25" viewBox="0 0 24 25" fill="none" xmlns="http://www.w3.org/2000/svg">
<g opacity="0.6">
<path d="M6 0.0585938C6.1996 0.0585938 6.37189 0.179325 6.45206 0.353903L7.10557 1.7031C7.84312 3.22578 9.35079 4.18763 11 4.18763V5.21988C9.16805 5.21988 7.47813 4.25474 6.5 2.68794V4.58191L7.10557 5.83213C7.84312 7.35481 9.35079 8.31666 11 8.31666V9.34892C9.16805 9.34892 7.47813 8.38377 6.5 6.81697V8.71095L7.10557 9.96116C7.84312 11.4838 9.35079 12.4457 11 12.4457V13.4779C9.16805 13.4779 7.47813 12.5128 6.5 10.946V16.3167C7.38889 17.0048 8.61111 17.0048 9.5 16.3167L9.9 16.007C11.1444 15.0435 12.8556 15.0435 14.1 16.007L14.5 16.3167C15.3889 17.0048 16.6111 17.0048 17.5 16.3167L17.9 16.007C19.1444 15.0435 20.8556 15.0435 22.1 16.007L22.5 16.3167C22.9444 16.6607 23.4722 16.8328 24 16.8328V17.865C23.2611 17.865 22.5222 17.6242 21.9 17.1425L21.5 16.8328C20.6111 16.1446 19.3889 16.1446 18.5 16.8328L18.1 17.1425C16.8556 18.1059 15.1444 18.1059 13.9 17.1425L13.5 16.8328C12.6111 16.1446 11.3889 16.1446 10.5 16.8328L10.1 17.1425C8.85556 18.1059 7.14444 18.1059 5.9 17.1425L5.5 16.8328C4.61111 16.1446 3.38889 16.1446 2.5 16.8328L2.1 17.1425C1.47778 17.6242 0.738889 17.865 0 17.865V16.8328C0.527778 16.8328 1.05556 16.6607 1.5 16.3167L1.9 16.007C2.95424 15.1908 4.34338 15.066 5.5 15.6327V10.946C4.52187 12.5128 2.83195 13.4779 1 13.4779V12.4457C2.64921 12.4457 4.15688 11.4838 4.89443 9.96116L5.5 8.71095V6.81697C4.52187 8.38377 2.83195 9.34892 1 9.34892V8.31666C2.64921 8.31666 4.15688 7.35481 4.89443 5.83213L5.5 4.58191V2.68794C4.52187 4.25474 2.83195 5.21988 1 5.21988V4.18763C2.64921 4.18763 4.15688 3.22578 4.89443 1.7031L5.54794 0.353903C5.62811 0.179325 5.8004 0.0585938 6 0.0585938Z" fill="#101820"/>
<path fill-rule="evenodd" clip-rule="evenodd" d="M19 7.80053C20.6569 7.80053 22 6.41406 22 4.70375C22 2.99345 20.6569 1.60698 19 1.60698C17.3431 1.60698 16 2.99345 16 4.70375C16 6.41406 17.3431 7.80053 19 7.80053ZM19 6.76827C20.1046 6.76827 21 5.84396 21 4.70375C21 3.56355 20.1046 2.63924 19 2.63924C17.8954 2.63924 17 3.56355 17 4.70375C17 5.84396 17.8954 6.76827 19 6.76827Z" fill="#101820"/>
<path d="M24 24.0586C23.2611 24.0586 22.5222 23.8177 21.9 23.336L21.5 23.0263C20.6111 22.3382 19.3889 22.3382 18.5 23.0263L18.1 23.336C16.8556 24.2995 15.1444 24.2995 13.9 23.336L13.5 23.0263C12.6111 22.3382 11.3889 22.3382 10.5 23.0263L10.1 23.336C8.85556 24.2995 7.14444 24.2995 5.9 23.336L5.5 23.0263C4.61111 22.3382 3.38889 22.3382 2.5 23.0263L2.1 23.336C1.47778 23.8177 0.738889 24.0586 0 24.0586V23.0263C0.527778 23.0263 1.05556 22.8543 1.5 22.5102L1.9 22.2005C3.14444 21.2371 4.85556 21.2371 6.1 22.2005L6.5 22.5102C7.38889 23.1984 8.61111 23.1984 9.5 22.5102L9.9 22.2005C11.1444 21.2371 12.8556 21.2371 14.1 22.2005L14.5 22.5102C15.3889 23.1984 16.6111 23.1984 17.5 22.5102L17.9 22.2005C19.1444 21.2371 20.8556 21.2371 22.1 22.2005L22.5 22.5102C22.9444 22.8543 23.4722 23.0263 24 23.0263V24.0586Z" fill="#101820"/>
<path d="M21.9 20.2392C22.5222 20.721 23.2611 20.9618 24 20.9618V19.9296C23.4722 19.9296 22.9444 19.7575 22.5 19.4134L22.1 19.1038C20.8556 18.1403 19.1444 18.1403 17.9 19.1038L17.5 19.4134C16.6111 20.1016 15.3889 20.1016 14.5 19.4134L14.1 19.1038C12.8556 18.1403 11.1444 18.1403 9.9 19.1038L9.5 19.4134C8.61111 20.1016 7.38889 20.1016 6.5 19.4134L6.1 19.1038C4.85556 18.1403 3.14444 18.1403 1.9 19.1038L1.5 19.4134C1.05556 19.7575 0.527778 19.9296 0 19.9296V20.9618C0.738889 20.9618 1.47778 20.721 2.1 20.2392L2.5 19.9296C3.38889 19.2414 4.61111 19.2414 5.5 19.9296L5.9 20.2392C7.14444 21.2027 8.85556 21.2027 10.1 20.2392L10.5 19.9296C11.3889 19.2414 12.6111 19.2414 13.5 19.9296L13.9 20.2392C15.1444 21.2027 16.8556 21.2027 18.1 20.2392L18.5 19.9296C19.3889 19.2414 20.6111 19.2414 21.5 19.9296L21.9 20.2392Z" fill="#101820"/>
</g>
</svg>
