<svg width="24" height="25" viewBox="0 0 24 25" fill="none" xmlns="http://www.w3.org/2000/svg">
<g opacity="0.6">
<path fill-rule="evenodd" clip-rule="evenodd" d="M15 3.05859H22.5C23.3284 3.05859 24 2.38702 24 1.55859C24 0.730167 23.3284 0.0585938 22.5 0.0585938H1.5C0.671573 0.0585938 0 0.730167 0 1.55859C0 2.38702 0.671573 3.05859 1.5 3.05859H9C9 4.54509 10.0811 5.77908 11.5 6.01711V8.07618C7.86736 8.33255 5 11.3607 5 15.0586C5 18.9246 8.13401 22.0586 12 22.0586C15.866 22.0586 19 18.9246 19 15.0586C19 11.3607 16.1326 8.33255 12.5 8.07618V6.01711C13.9189 5.77908 15 4.54509 15 3.05859ZM22.5 1.05859H1.5C1.22386 1.05859 1 1.28245 1 1.55859C1 1.83474 1.22386 2.05859 1.5 2.05859H22.5C22.7761 2.05859 23 1.83474 23 1.55859C23 1.28245 22.7761 1.05859 22.5 1.05859ZM10 3.05859C10 4.16316 10.8954 5.05859 12 5.05859C13.1046 5.05859 14 4.16316 14 3.05859H10ZM11.5 9.7092C10.5233 10.6678 9.86561 11.8282 9.52681 13.0586H11.5V9.7092ZM8.49401 13.0586H6.34141C7.00963 11.168 8.59846 9.71237 10.5693 9.23024C9.52133 10.3401 8.82957 11.6649 8.49401 13.0586ZM6 15.0586C6 14.7179 6.0284 14.3838 6.08296 14.0586H8.3155C8.23737 14.7228 8.23737 15.3944 8.3155 16.0586H6.08296C6.0284 15.7334 6 15.3993 6 15.0586ZM10.5693 20.887C8.59846 20.4048 7.00963 18.9492 6.34141 17.0586H8.49401C8.82957 18.4523 9.52133 19.7771 10.5693 20.887ZM17.6586 17.0586C16.9904 18.9492 15.4015 20.4048 13.4307 20.887C14.4787 19.7771 15.1704 18.4523 15.506 17.0586H17.6586ZM18 15.0586C18 15.3993 17.9716 15.7334 17.917 16.0586H15.6845C15.7626 15.3944 15.7626 14.7228 15.6845 14.0586H17.917C17.9716 14.3838 18 14.7179 18 15.0586ZM13.4307 9.23024C15.4015 9.71237 16.9904 11.168 17.6586 13.0586H15.506C15.1704 11.6649 14.4787 10.3401 13.4307 9.23024ZM11.5 20.408V17.0586H9.52681C9.86561 18.289 10.5233 19.4494 11.5 20.408ZM9.32339 16.0586H11.5V14.0586H9.32339C9.23474 14.722 9.23474 15.3951 9.32339 16.0586ZM14.4732 17.0586C14.1344 18.289 13.4767 19.4494 12.5 20.408V17.0586H14.4732ZM14.6766 16.0586H12.5V14.0586H14.6766C14.7653 14.722 14.7653 15.3951 14.6766 16.0586ZM12.5 9.7092C13.4767 10.6678 14.1344 11.8282 14.4732 13.0586H12.5V9.7092Z" fill="#101820"/>
<path fill-rule="evenodd" clip-rule="evenodd" d="M18.9552 6.52907C18.9326 6.58254 18.8879 6.62355 18.8327 6.64144L16.5877 7.36832C16.4031 7.42806 16.4031 7.68912 16.5877 7.74887L18.8327 8.47575C18.8879 8.49363 18.9326 8.53464 18.9552 8.58812L19.8158 10.623C19.8846 10.7858 20.1154 10.7858 20.1842 10.623L21.0448 8.58812C21.0674 8.53464 21.1121 8.49363 21.1673 8.47575L23.4123 7.74887C23.5969 7.68912 23.5969 7.42806 23.4123 7.36832L21.1673 6.64144C21.1121 6.62355 21.0674 6.58254 21.0448 6.52907L20.1842 4.49418C20.1154 4.33138 19.8846 4.33137 19.8158 4.49417L18.9552 6.52907ZM20 6.626L19.8763 6.91856C19.7534 7.20901 19.5219 7.43816 19.2332 7.55859C19.5219 7.67903 19.7534 7.90818 19.8763 8.19862L20 8.49119L20.1237 8.19862C20.2466 7.90818 20.4781 7.67903 20.7668 7.55859C20.4781 7.43815 20.2466 7.20901 20.1237 6.91856L20 6.626Z" fill="#101820"/>
<path d="M2.49173 18.4322L2.81243 17.5655C2.87686 17.3914 3.12314 17.3914 3.18757 17.5655L3.50827 18.4322C3.51549 18.4517 3.52562 18.4697 3.53816 18.4858C3.54824 18.4987 3.55988 18.5104 3.5728 18.5204C3.58887 18.533 3.60691 18.5431 3.62643 18.5503L4.4931 18.871C4.66722 18.9355 4.66722 19.1817 4.4931 19.2462L3.62643 19.5669C3.60691 19.5741 3.58887 19.5842 3.5728 19.5968C3.55988 19.6068 3.54824 19.6185 3.53816 19.6314C3.52562 19.6475 3.51549 19.6655 3.50827 19.685L3.18757 20.5517C3.12314 20.7258 2.87686 20.7258 2.81243 20.5517L2.49173 19.685C2.48451 19.6655 2.47438 19.6475 2.46184 19.6314C2.45176 19.6185 2.44012 19.6068 2.4272 19.5968C2.41114 19.5842 2.39309 19.5741 2.37357 19.5669L1.5069 19.2462C1.33278 19.1817 1.33278 18.9355 1.5069 18.871L2.37357 18.5503C2.39309 18.5431 2.41114 18.533 2.4272 18.5204C2.44012 18.5104 2.45176 18.4987 2.46184 18.4858C2.47438 18.4697 2.48451 18.4517 2.49173 18.4322Z" fill="#101820"/>
<path fill-rule="evenodd" clip-rule="evenodd" d="M2.22164 6.16207C2.20139 6.21682 2.15822 6.25998 2.10348 6.28024L0.506901 6.87102C0.332778 6.93546 0.332778 7.18173 0.506901 7.24616L2.10348 7.83695C2.15822 7.85721 2.20139 7.90037 2.22164 7.95511L2.81243 9.55169C2.87686 9.72582 3.12314 9.72582 3.18757 9.55169L3.77836 7.95511C3.79861 7.90037 3.84178 7.85721 3.89652 7.83695L5.4931 7.24616C5.66722 7.18173 5.66722 6.93545 5.4931 6.87102L3.89652 6.28024C3.84178 6.25998 3.79861 6.21682 3.77836 6.16207L3.18757 4.5655C3.12314 4.39137 2.87686 4.39137 2.81243 4.5655L2.22164 6.16207ZM3 6.8047C2.92859 6.90157 2.84298 6.98718 2.74611 7.05859C2.84298 7.13001 2.92859 7.21562 3 7.31248C3.07141 7.21562 3.15702 7.13001 3.25389 7.05859C3.15702 6.98718 3.07141 6.90157 3 6.8047Z" fill="#101820"/>
<path d="M19.4917 20.4322L19.8124 19.5655C19.8769 19.3914 20.1231 19.3914 20.1876 19.5655L20.5083 20.4322C20.5155 20.4517 20.5256 20.4697 20.5382 20.4858C20.5482 20.4987 20.5599 20.5104 20.5728 20.5204C20.5889 20.533 20.6069 20.5431 20.6264 20.5503L21.4931 20.871C21.6672 20.9355 21.6672 21.1817 21.4931 21.2462L20.6264 21.5669C20.6069 21.5741 20.5889 21.5842 20.5728 21.5968C20.5599 21.6068 20.5482 21.6185 20.5382 21.6314C20.5256 21.6475 20.5155 21.6655 20.5083 21.685L20.1876 22.5517C20.1231 22.7258 19.8769 22.7258 19.8124 22.5517L19.4917 21.685C19.4845 21.6655 19.4744 21.6475 19.4618 21.6314C19.4518 21.6185 19.4401 21.6068 19.4272 21.5968C19.4111 21.5842 19.3931 21.5741 19.3736 21.5669L18.5069 21.2462C18.3328 21.1817 18.3328 20.9355 18.5069 20.871L19.3736 20.5503C19.3931 20.5431 19.4111 20.533 19.4272 20.5204C19.4401 20.5104 19.4518 20.4987 19.4618 20.4858C19.4744 20.4697 19.4845 20.4517 19.4917 20.4322Z" fill="#101820"/>
</g>
</svg>
