<svg width="24" height="25" viewBox="0 0 24 25" fill="none" xmlns="http://www.w3.org/2000/svg">
<g opacity="0.6">
<path d="M8.58397 10.7812C8.73715 10.5515 9.04759 10.4894 9.27735 10.6426L10.4168 11.4022C11.5653 12.1679 11.4582 13.8885 10.2236 14.5058C9.67582 14.7797 9.62828 15.5432 10.1379 15.8829L11.2774 16.6426C11.5071 16.7957 11.5692 17.1062 11.416 17.3359C11.2628 17.5657 10.9524 17.6278 10.7226 17.4746L9.58317 16.715C8.43472 15.9493 8.54184 14.2287 9.77639 13.6114C10.3242 13.3375 10.3717 12.574 9.86213 12.2343L8.72265 11.4746C8.49289 11.3214 8.4308 11.011 8.58397 10.7812Z" fill="#101820"/>
<path d="M13.2774 10.6426C13.0476 10.4894 12.7372 10.5515 12.584 10.7812C12.4308 11.011 12.4929 11.3214 12.7226 11.4746L13.8621 12.2343C14.3717 12.574 14.3242 13.3375 13.7764 13.6114C12.5418 14.2287 12.4347 15.9493 13.5832 16.715L14.7226 17.4746C14.9524 17.6278 15.2628 17.5657 15.416 17.3359C15.5692 17.1062 15.5071 16.7957 15.2774 16.6426L14.1379 15.8829C13.6283 15.5432 13.6758 14.7797 14.2236 14.5058C15.4582 13.8885 15.5653 12.1679 14.4168 11.4022L13.2774 10.6426Z" fill="#101820"/>
<path fill-rule="evenodd" clip-rule="evenodd" d="M4 8.05859C3.44772 8.05859 3 8.50631 3 9.05859V19.0586C3 19.6109 3.44772 20.0586 4 20.0586H20C20.5523 20.0586 21 19.6109 21 19.0586V9.05859C21 8.50631 20.5523 8.05859 20 8.05859H4ZM20 9.05859H4V19.0586H20V9.05859Z" fill="#101820"/>
<path d="M9 6.05859H15V5.05859H9V6.05859Z" fill="#101820"/>
<path fill-rule="evenodd" clip-rule="evenodd" d="M5 7.05859C6.10457 7.05859 7 6.16316 7 5.05859C7 3.95402 6.10457 3.05859 5 3.05859C3.89543 3.05859 3 3.95402 3 5.05859C3 6.16316 3.89543 7.05859 5 7.05859ZM5 6.05859C5.55228 6.05859 6 5.61088 6 5.05859C6 4.50631 5.55228 4.05859 5 4.05859C4.44772 4.05859 4 4.50631 4 5.05859C4 5.61088 4.44772 6.05859 5 6.05859Z" fill="#101820"/>
<path fill-rule="evenodd" clip-rule="evenodd" d="M21 5.05859C21 6.16316 20.1046 7.05859 19 7.05859C17.8954 7.05859 17 6.16316 17 5.05859C17 3.95402 17.8954 3.05859 19 3.05859C20.1046 3.05859 21 3.95402 21 5.05859ZM20 5.05859C20 5.61088 19.5523 6.05859 19 6.05859C18.4477 6.05859 18 5.61088 18 5.05859C18 4.50631 18.4477 4.05859 19 4.05859C19.5523 4.05859 20 4.50631 20 5.05859Z" fill="#101820"/>
<path fill-rule="evenodd" clip-rule="evenodd" d="M1 1.05859C0.447715 1.05859 0 1.50631 0 2.05859V22.0586C0 22.6109 0.447716 23.0586 1 23.0586H23C23.5523 23.0586 24 22.6109 24 22.0586V2.05859C24 1.50631 23.5523 1.05859 23 1.05859H1ZM23 2.05859H1V22.0586H23V2.05859Z" fill="#101820"/>
</g>
</svg>
