<svg width="24" height="25" viewBox="0 0 24 25" fill="none" xmlns="http://www.w3.org/2000/svg">
<g opacity="0.6">
<path fill-rule="evenodd" clip-rule="evenodd" d="M22 7.85208C22 8.95665 21.1046 9.85208 20 9.85208C18.8954 9.85208 18 8.95665 18 7.85208C18 6.74751 18.8954 5.85208 20 5.85208C21.1046 5.85208 22 6.74751 22 7.85208ZM21 7.85208C21 8.40436 20.5523 8.85208 20 8.85208C19.4477 8.85208 19 8.40436 19 7.85208C19 7.29979 19.4477 6.85208 20 6.85208C20.5523 6.85208 21 7.29979 21 7.85208Z" fill="#101820"/>
<path fill-rule="evenodd" clip-rule="evenodd" d="M0 1.32911C0 0.621647 0.714526 0.137889 1.37139 0.400634L7.32119 2.78056C7.43931 2.8278 7.56536 2.85208 7.69258 2.85208H16.3074C16.4346 2.85208 16.5607 2.8278 16.6788 2.78056L22.6286 0.400635C23.2855 0.137889 24 0.621647 24 1.32911V22.375C24 23.0825 23.2855 23.5663 22.6286 23.3035L16.6788 20.9236C16.5607 20.8764 16.4346 20.8521 16.3074 20.8521H7.72185C7.57573 20.8521 7.43138 20.8841 7.29896 20.9459L1.42289 23.6881C0.759904 23.9975 0 23.5135 0 22.7819V1.32911ZM23 20.5158V22.375L19.2818 20.8878L17 17.7186V15.1123L18.0053 13.7048L23 20.5158ZM17 13.3918L17.1916 13.1236C17.5874 12.5695 18.4091 12.5644 18.8117 13.1135L23 18.8248V1.32911L17.0502 3.70903C17.0335 3.71569 17.0168 3.72213 17 3.72833V13.3918ZM16 3.85208H8V10.4881L9.20186 9.03317C9.61919 8.52799 10.4015 8.55398 10.7844 9.08575L15.4486 15.5638L16 14.7918V3.85208ZM16 18.0411L9.97282 9.67005L8 12.0582V19.8521H16V18.0411ZM17 19.9758C17.0168 19.982 17.0335 19.9885 17.0502 19.9951L17.5512 20.1955L17 19.43V19.9758ZM1 20.5319L7 13.2687V19.9869C6.95818 20.0031 6.91684 20.0207 6.87608 20.0397L1 22.7819V20.5319ZM7 11.6986V3.72833C6.98319 3.72213 6.96646 3.71569 6.9498 3.70903L1 1.32911V18.9617L7 11.6986Z" fill="#101820"/>
</g>
</svg>
