<svg width="24" height="25" viewBox="0 0 24 25" fill="none" xmlns="http://www.w3.org/2000/svg">
<g opacity="0.6">
<path fill-rule="evenodd" clip-rule="evenodd" d="M9.47328 12.0586V7.36079H12.0992C12.6743 7.36079 13.1399 7.47343 13.4962 7.6987C13.8524 7.91848 14.112 8.20969 14.2748 8.57233C14.4427 8.93497 14.5267 9.32233 14.5267 9.73442C14.5267 10.185 14.4427 10.5861 14.2748 10.9377C14.112 11.2894 13.8524 11.5641 13.4962 11.7619C13.1399 11.9597 12.6743 12.0586 12.0992 12.0586H9.47328ZM10.4733 11.0586V8.36079H12.0992C12.5518 8.36079 12.8137 8.45028 12.9617 8.54389L12.9711 8.54976C13.1666 8.67034 13.2862 8.81186 13.3626 8.98199L13.3674 8.99256C13.4724 9.21934 13.5267 9.46282 13.5267 9.73442C13.5267 10.0591 13.4668 10.3092 13.3724 10.5068L13.3674 10.5175C13.2983 10.6666 13.1919 10.787 13.0107 10.8876C12.8516 10.976 12.5704 11.0586 12.0992 11.0586H10.4733Z" fill="#101820"/>
<path fill-rule="evenodd" clip-rule="evenodd" d="M10.4733 14.3526H12.0992C13.0456 14.3526 13.9135 14.1952 14.6639 13.8327L14.6708 13.8293C15.4265 13.4572 16.0218 12.9016 16.4251 12.171C16.8243 11.4478 17 10.6165 17 9.71793C17 8.86475 16.8182 8.06746 16.4282 7.35294C16.031 6.61972 15.4468 6.04936 14.704 5.64841C13.9434 5.23777 13.0605 5.05859 12.0992 5.05859H7V19.0586H10.4733V14.3526ZM9.47328 13.3526H12.0992C12.9389 13.3526 13.6489 13.2124 14.229 12.9322C14.8092 12.6465 15.2494 12.2317 15.5496 11.6877C15.8499 11.1438 16 10.4872 16 9.71793C16 9.00914 15.8499 8.38002 15.5496 7.83057C15.2494 7.27563 14.8092 6.84156 14.229 6.52837C13.6489 6.21519 12.9389 6.05859 12.0992 6.05859H8V18.0586H9.47328V13.3526Z" fill="#101820"/>
<path fill-rule="evenodd" clip-rule="evenodd" d="M0 4.05859C0 1.84946 1.79086 0.0585938 4 0.0585938H20C22.2091 0.0585938 24 1.84945 24 4.05859V20.0586C24 22.2677 22.2091 24.0586 20 24.0586H4C1.79086 24.0586 0 22.2677 0 20.0586V4.05859ZM4 1.05859H20C21.6569 1.05859 23 2.40174 23 4.05859V20.0586C23 21.7154 21.6569 23.0586 20 23.0586H4C2.34315 23.0586 1 21.7154 1 20.0586V4.05859C1 2.40174 2.34315 1.05859 4 1.05859Z" fill="#101820"/>
</g>
</svg>
