<svg width="51" height="50" viewBox="0 0 51 50" fill="none" xmlns="http://www.w3.org/2000/svg">
<ellipse cx="21.5861" cy="28.9043" rx="20.8361" ry="20.5" fill="#E1EDFF"/>
<path fill-rule="evenodd" clip-rule="evenodd" d="M38.23 0.839844C37.6411 1.39974 37.3466 2.08008 37.3466 2.88086C37.3466 3.67513 37.6444 4.35221 38.2399 4.91211C38.8355 5.46549 39.5534 5.74219 40.3938 5.74219C41.2342 5.74219 41.9489 5.46549 42.5378 4.91211C43.1267 4.35221 43.4212 3.67513 43.4212 2.88086C43.4212 2.08008 43.1267 1.39974 42.5378 0.839844C41.9489 0.279948 41.2342 0 40.3938 0C39.5468 0 38.8256 0.279948 38.23 0.839844ZM41.7934 1.41602C42.1904 1.81966 42.3889 2.30794 42.3889 2.88086C42.3889 3.44076 42.1937 3.92904 41.8033 4.3457C41.4129 4.75586 40.9431 4.96094 40.3938 4.96094C39.8446 4.96094 39.3715 4.75911 38.9744 4.35547C38.5774 3.94531 38.3789 3.45378 38.3789 2.88086C38.3789 2.32096 38.5741 1.83594 38.9645 1.42578C39.3615 1.00911 39.838 0.800781 40.3938 0.800781C40.9298 0.800781 41.3963 1.00586 41.7934 1.41602Z" fill="#002D72"/>
<path d="M43.5304 7.06055L37.8528 13.8672L38.5476 14.4824L44.0961 7.51953L49.7637 0.722656L49.059 0.126953L43.5304 7.06055Z" fill="#002D72"/>
<path fill-rule="evenodd" clip-rule="evenodd" d="M45.0589 9.70703C44.47 10.2669 44.1755 10.9408 44.1755 11.7285C44.1755 12.5293 44.47 13.2096 45.0589 13.7695C45.6545 14.3229 46.3691 14.5996 47.2029 14.5996C48.0499 14.5996 48.7679 14.3229 49.3568 13.7695C49.9523 13.2096 50.2501 12.5293 50.2501 11.7285C50.2501 10.9342 49.9523 10.2604 49.3568 9.70703C48.7612 9.14714 48.0433 8.86719 47.2029 8.86719C46.3691 8.86719 45.6545 9.14714 45.0589 9.70703ZM49.198 11.7285C49.198 12.2949 49.0028 12.7832 48.6124 13.1934C48.2286 13.6035 47.7587 13.8086 47.2029 13.8086C46.6603 13.8086 46.1905 13.6068 45.7934 13.2031C45.403 12.7995 45.2078 12.3079 45.2078 11.7285C45.2078 11.1686 45.403 10.6836 45.7934 10.2734C46.1839 9.85677 46.6537 9.64844 47.2029 9.64844C47.7323 9.64844 48.1955 9.85352 48.5925 10.2637C48.9961 10.6738 49.198 11.1621 49.198 11.7285Z" fill="#002D72"/>
<path fill-rule="evenodd" clip-rule="evenodd" d="M24.0263 4.83398C23.7483 5.68685 23.6094 6.54297 23.6094 7.40234C23.6094 8.05339 23.6888 8.71094 23.8476 9.375C24.0064 10.0326 24.2512 10.6706 24.5821 11.2891C24.9196 11.9076 25.3199 12.4609 25.7831 12.9492C26.2463 13.431 26.8055 13.8216 27.4606 14.1211C28.1223 14.4206 28.8303 14.5801 29.5847 14.5996C30.2993 14.5931 30.9743 14.4499 31.6095 14.1699C32.2514 13.89 32.8072 13.5156 33.2771 13.0469C33.7469 12.5716 34.1538 12.0312 34.4979 11.4258C34.842 10.8138 35.1001 10.1628 35.2721 9.47266C35.4508 8.78255 35.5401 8.09245 35.5401 7.40234C35.5401 6.88151 35.4839 6.34766 35.3714 5.80078C35.2589 5.2474 35.0935 4.70052 34.8751 4.16016C34.6567 3.61979 34.3755 3.11523 34.0314 2.64648C33.6939 2.17122 33.3101 1.7513 32.88 1.38672C32.4565 1.02214 31.9602 0.735677 31.3912 0.527344C30.8221 0.3125 30.2199 0.205078 29.5847 0.205078C28.698 0.205078 27.8708 0.419922 27.1032 0.849609C26.3423 1.2793 25.7103 1.83919 25.2074 2.5293C24.7045 3.21289 24.3108 3.98112 24.0263 4.83398ZM31.2224 12.9688C30.7195 13.2161 30.1736 13.3398 29.5847 13.3398C28.8766 13.3398 28.2315 13.1641 27.6492 12.8125C27.0735 12.4544 26.6036 11.9857 26.2397 11.4062C25.8758 10.8268 25.5912 10.1953 25.3861 9.51172C25.1876 8.82161 25.0784 8.11849 25.0585 7.40234C25.0585 6.88802 25.1148 6.36393 25.2273 5.83008C25.3464 5.28971 25.5284 4.75911 25.7732 4.23828C26.018 3.71094 26.3125 3.24219 26.6566 2.83203C27.0073 2.42188 27.4341 2.0931 27.937 1.8457C28.4465 1.5918 28.9958 1.46484 29.5847 1.46484C30.1405 1.46484 30.6633 1.58203 31.1529 1.81641C31.6426 2.05078 32.0661 2.36654 32.4234 2.76367C32.7808 3.1543 33.0885 3.60352 33.3465 4.11133C33.6046 4.61914 33.7965 5.15625 33.9222 5.72266C34.0546 6.28255 34.1208 6.84245 34.1208 7.40234C34.1208 7.91667 34.0612 8.44401 33.9421 8.98438C33.8296 9.52474 33.6476 10.0586 33.3962 10.5859C33.1447 11.1068 32.8436 11.5723 32.4929 11.9824C32.1488 12.3861 31.7253 12.7148 31.2224 12.9688Z" fill="#002D72"/>
<path fill-rule="evenodd" clip-rule="evenodd" d="M29.7256 24.4043C29.7256 25.0016 29.9875 25.5378 30.4027 25.9043C29.9875 26.2708 29.7256 26.8069 29.7256 27.4043V28.4043C29.7256 29.0016 29.9875 29.5378 30.4027 29.9043C29.9875 30.2708 29.7256 30.8069 29.7256 31.4043V32.4043C29.7256 33.0016 29.9875 33.5378 30.4027 33.9043C29.9875 34.2708 29.7256 34.8069 29.7256 35.4043V36.4043C29.7256 37.5089 30.621 38.4043 31.7256 38.4043H43.7256C44.8302 38.4043 45.7256 37.5089 45.7256 36.4043V35.4043C45.7256 34.8069 45.4637 34.2708 45.0485 33.9043C45.4637 33.5378 45.7256 33.0016 45.7256 32.4043V31.4043C45.7256 30.8069 45.4637 30.2708 45.0485 29.9043C45.4637 29.5378 45.7256 29.0016 45.7256 28.4043V27.4043C45.7256 26.8069 45.4637 26.2708 45.0485 25.9043C45.4637 25.5378 45.7256 25.0016 45.7256 24.4043V23.4043C45.7256 22.2997 44.8302 21.4043 43.7256 21.4043H31.7256C30.621 21.4043 29.7256 22.2997 29.7256 23.4043V24.4043ZM43.7256 22.4043H31.7256C31.1733 22.4043 30.7256 22.852 30.7256 23.4043V24.4043C30.7256 24.9566 31.1733 25.4043 31.7256 25.4043H43.7256C44.2779 25.4043 44.7256 24.9566 44.7256 24.4043V23.4043C44.7256 22.852 44.2779 22.4043 43.7256 22.4043ZM31.7256 26.4043H43.7256C44.2779 26.4043 44.7256 26.852 44.7256 27.4043V28.4043C44.7256 28.9566 44.2779 29.4043 43.7256 29.4043H31.7256C31.1733 29.4043 30.7256 28.9566 30.7256 28.4043V27.4043C30.7256 26.852 31.1733 26.4043 31.7256 26.4043ZM43.7256 30.4043H31.7256C31.1733 30.4043 30.7256 30.852 30.7256 31.4043V32.4043C30.7256 32.9566 31.1733 33.4043 31.7256 33.4043H43.7256C44.2779 33.4043 44.7256 32.9566 44.7256 32.4043V31.4043C44.7256 30.852 44.2779 30.4043 43.7256 30.4043ZM31.7256 34.4043H43.7256C44.2779 34.4043 44.7256 34.852 44.7256 35.4043V36.4043C44.7256 36.9566 44.2779 37.4043 43.7256 37.4043H31.7256C31.1733 37.4043 30.7256 36.9566 30.7256 36.4043V35.4043C30.7256 34.852 31.1733 34.4043 31.7256 34.4043Z" fill="#002D72"/>
</svg>
