<svg width="24" height="25" viewBox="0 0 24 25" fill="none" xmlns="http://www.w3.org/2000/svg">
<g opacity="0.6">
<path fill-rule="evenodd" clip-rule="evenodd" d="M10 5.05859V10.0586H5C4.44772 10.0586 4 10.5063 4 11.0586V13.0586C4 13.6109 4.44772 14.0586 5 14.0586H10V19.0586C10 19.6109 10.4477 20.0586 11 20.0586H13C13.5523 20.0586 14 19.6109 14 19.0586V14.0586H19C19.5523 14.0586 20 13.6109 20 13.0586V11.0586C20 10.5063 19.5523 10.0586 19 10.0586H14V5.05859C14 4.50631 13.5523 4.05859 13 4.05859H11C10.4477 4.05859 10 4.50631 10 5.05859ZM11 11.0586V5.05859H13V11.0586H19V13.0586H13V19.0586H11V13.0586H5V11.0586H11Z" fill="#101820"/>
<path fill-rule="evenodd" clip-rule="evenodd" d="M0 4.05859C0 1.84946 1.79086 0.0585938 4 0.0585938H20C22.2091 0.0585938 24 1.84945 24 4.05859V20.0586C24 22.2677 22.2091 24.0586 20 24.0586H4C1.79086 24.0586 0 22.2677 0 20.0586V4.05859ZM4 1.05859H20C21.6569 1.05859 23 2.40174 23 4.05859V20.0586C23 21.7154 21.6569 23.0586 20 23.0586H4C2.34315 23.0586 1 21.7154 1 20.0586V4.05859C1 2.40174 2.34315 1.05859 4 1.05859Z" fill="#101820"/>
</g>
</svg>
