<svg width="24" height="25" viewBox="0 0 24 25" fill="none" xmlns="http://www.w3.org/2000/svg">
<g opacity="0.6">
<path fill-rule="evenodd" clip-rule="evenodd" d="M1.5 3.05859C1.22386 3.05859 1 3.28245 1 3.55859V22.0586H0V3.55859C0 2.73017 0.671573 2.05859 1.5 2.05859H22.5C23.3284 2.05859 24 2.73017 24 3.55859V22.0586H23V3.55859C23 3.28245 22.7761 3.05859 22.5 3.05859H21V16.1439C21.5826 16.3499 22 16.9055 22 17.5586C22 18.387 21.3284 19.0586 20.5 19.0586H14.5C13.6716 19.0586 13 18.387 13 17.5586C13 16.9055 13.4174 16.3499 14 16.1439V3.05859H10V16.1439C10.5826 16.3499 11 16.9055 11 17.5586C11 18.387 10.3284 19.0586 9.5 19.0586H3.5C2.67157 19.0586 2 18.387 2 17.5586C2 16.9055 2.4174 16.3499 3 16.1439V3.05859H1.5ZM14.5 17.0586C14.2239 17.0586 14 17.2825 14 17.5586C14 17.8347 14.2239 18.0586 14.5 18.0586H20.5C20.7761 18.0586 21 17.8347 21 17.5586C21 17.2825 20.7761 17.0586 20.5 17.0586H14.5ZM20 16.0586H15V3.05859H20V16.0586ZM9.5 17.0586C9.77614 17.0586 10 17.2825 10 17.5586C10 17.8347 9.77614 18.0586 9.5 18.0586H3.5C3.22386 18.0586 3 17.8347 3 17.5586C3 17.2825 3.22386 17.0586 3.5 17.0586H9.5ZM9 16.0586H4V3.05859H9V16.0586Z" fill="#101820"/>
</g>
</svg>
