<svg width="24" height="24" viewBox="0 0 24 24" fill="none" xmlns="http://www.w3.org/2000/svg">
<path d="M16.431 6.81034C16.431 9.46702 14.2774 11.6207 11.6207 11.6207C8.96401 11.6207 6.81034 9.46702 6.81034 6.81034C6.81034 4.15366 8.96401 2 11.6207 2C14.2774 2 16.431 4.15366 16.431 6.81034ZM1.51232 23C1.63877 20.4603 2.73102 18.4972 4.4237 17.1386C6.23778 15.6825 8.77444 14.8966 11.6207 14.8966C14.4669 14.8966 17.0036 15.6825 18.8177 17.1386C20.5104 18.4972 21.6026 20.4603 21.7291 23H21.6995H21.6559H21.6126H21.5696H21.5267H21.4842H21.4418H21.3997H21.3579H21.3163H21.2749H21.2337H21.1928H21.1521H21.1117H21.0715H21.0315H20.9917H20.9522H20.9129H20.8739H20.835H20.7964H20.758H20.7199H20.6819H20.6442H20.6067H20.5694H20.5324H20.4956H20.4589H20.4225H20.3863H20.3504H20.3146H20.2791H20.2437H20.2086H20.1737H20.139H20.1045H20.0702H20.0362H20.0023H19.9686H19.9352H19.9019H19.8688H19.836H19.8033H19.7709H19.7386H19.7066H19.6747H19.643H19.6116H19.5803H19.5492H19.5183H19.4876H19.4571H19.4268H19.3967H19.3667H19.337H19.3074H19.278H19.2488H19.2198H19.191H19.1623H19.1339H19.1056H19.0775H19.0495H19.0218H18.9942H18.9668H18.9396H18.9125H18.8856H18.8589H18.8324H18.806H18.7798H18.7538H18.7279H18.7022H18.6766H18.6513H18.6261H18.601H18.5761H18.5514H18.5268H18.5024H18.4782H18.4541H18.4302H18.4064H18.3828H18.3593H18.336H18.3128H18.2898H18.2669H18.2442H18.2216H18.1992H18.1769H18.1548H18.1328H18.111H18.0893H18.0677H18.0463H18.025H18.0039H17.9829H17.962H17.9413H17.9207H17.9002H17.8799H17.8597H17.8397H17.8197H17.7999H17.7803H17.7607H17.7413H17.722H17.7029H17.6838H17.6649H17.6461H17.6275H17.6089H17.5905H17.5722H17.554H17.5359H17.518H17.5001H17.4824H17.4648H17.4473H17.4299H17.4126H17.3954H17.3784H17.3614H17.3446H17.3278H17.3112H17.2947H17.2783H17.2619H17.2457H17.2296H17.2136H17.1977H17.1818H17.1661H17.1505H17.135H17.1195H17.1042H17.0889H17.0738H17.0587H17.0437H17.0288H17.014H16.9993H16.9847H16.9702H16.9557H16.9413H16.9271H16.9129H16.8987H16.8847H16.8707H16.8568H16.843H16.8293H16.8156H16.802H16.7885H16.7751H16.7617H16.7484H16.7352H16.7221H16.709H16.696H16.683H16.6701H16.6573H16.6446H16.6319H16.6192H16.6067H16.5941H16.5817H16.5693H16.557H16.5447H16.5325H16.5203H16.5082H16.4961H16.4841H16.4722H16.4602H16.4484H16.4366H16.4248H16.4131H16.4014H16.3898H16.3782H16.3667H16.3552H16.3437H16.3323H16.321H16.3096H16.2983H16.2871H16.2758H16.2646H16.2535H16.2424H16.2313H16.2202H16.2092H16.1982H16.1872H16.1763H16.1653H16.1544H16.1436H16.1327H16.1219H16.1111H16.1003H16.0896H16.0789H16.0681H16.0574H16.0468H16.0361H16.0254H16.0148H16.0042H15.9936H15.983H15.9724H15.9618H15.9512H15.9406H15.9301H15.9195H15.909H15.8984H15.8879H15.8774H15.8668H15.8563H15.8458H15.8352H15.8247H15.8141H15.8036H15.793H15.7825H15.7719H15.7613H15.7508H15.7402H15.7296H15.719H15.7083H15.6977H15.687H15.6764H15.6657H15.655H15.6443H15.6335H15.6228H15.612H15.6012H15.5904H15.5796H15.5687H15.5578H15.5469H15.536H15.525H15.514H15.503H15.4919H15.4808H15.4697H15.4585H15.4473H15.4361H15.4249H15.4136H15.4022H15.3909H15.3795H15.368H15.3565H15.345H15.3334H15.3218H15.3101H15.2984H15.2866H15.2748H15.263H15.2511H15.2391H15.2271H15.2151H15.203H15.1908H15.1786H15.1663H15.154H15.1416H15.1291H15.1166H15.1041H15.0914H15.0788H15.066H15.0532H15.0403H15.0274H15.0144H15.0013H14.9881H14.9749H14.9616H14.9483H14.9348H14.9213H14.9078H14.8941H14.8804H14.8666H14.8527H14.8387H14.8247H14.8106H14.7964H14.7821H14.7677H14.7533H14.7388H14.7241H14.7094H14.6946H14.6798H14.6648H14.6497H14.6346H14.6193H14.604H14.5886H14.5731H14.5574H14.5417H14.5259H14.51H14.494H14.4779H14.4617H14.4454H14.429H14.4124H14.3958H14.3791H14.3623H14.3453H14.3283H14.3111H14.2938H14.2765H14.259H14.2414H14.2236H14.2058H14.1879H14.1698H14.1516H14.1333H14.1149H14.0964H14.0777H14.0589H14.04H14.021H14.0018H13.9826H13.9632H13.9436H13.924H13.9042H13.8843H13.8642H13.844H13.8237H13.8033H13.7827H13.762H13.7411H13.7202H13.699H13.6778H13.6564H13.6348H13.6131H13.5913H13.5693H13.5472H13.5249H13.5025H13.48H13.4573H13.4344H13.4114H13.3883H13.365H13.3415H13.3179H13.2941H13.2702H13.2461H13.2219H13.1975H13.1729H13.1482H13.1234H13.0983H13.0731H13.0478H13.0223H12.9966H12.9707H12.9447H12.9185H12.8921H12.8656H12.8389H12.812H12.785H12.7578H12.7304H12.7028H12.6751H12.6472H12.6191H12.5908H12.5624H12.5337H12.5049H12.4759H12.4467H12.4174H12.3878H12.3581H12.3281H12.298H12.2677H12.2372H12.2066H12.1757H12.1446H12.1134H12.0819H12.0503H12.0184H11.9864H11.9541H11.9217H11.8891H11.8562H11.8232H11.79H11.7565H11.7229H11.689H11.655H11.6207H11.5864H11.5523H11.5183H11.4845H11.4509H11.4174H11.3841H11.3509H11.3179H11.2851H11.2524H11.2199H11.1875H11.1553H11.1233H11.0914H11.0596H11.028H10.9966H10.9653H10.9342H10.9032H10.8723H10.8417H10.8111H10.7807H10.7505H10.7204H10.6904H10.6606H10.631H10.6015H10.5721H10.5429H10.5138H10.4848H10.456H10.4274H10.3988H10.3704H10.3422H10.3141H10.2861H10.2583H10.2306H10.203H10.1756H10.1483H10.1211H10.0941H10.0672H10.0404H10.0138H9.98727H9.96089H9.93464H9.90851H9.88252H9.85665H9.8309H9.80528H9.77979H9.75442H9.72917H9.70405H9.67905H9.65417H9.62941H9.60477H9.58025H9.55584H9.53156H9.50739H9.48334H9.45941H9.43559H9.41189H9.3883H9.36483H9.34146H9.31821H9.29508H9.27205H9.24913H9.22632H9.20362H9.18104H9.15855H9.13618H9.11391H9.09174H9.06969H9.04773H9.02588H9.00414H8.98249H8.96095H8.93951H8.91817H8.89693H8.87578H8.85474H8.8338H8.81295H8.7922H8.77154H8.75098H8.73052H8.71014H8.68987H8.66968H8.64959H8.62959H8.60967H8.58985H8.57012H8.55048H8.53093H8.51146H8.49208H8.47278H8.45358H8.43445H8.41541H8.39646H8.37758H8.35879H8.34009H8.32146H8.30291H8.28444H8.26605H8.24774H8.22951H8.21136H8.19328H8.17527H8.15735H8.13949H8.12171H8.10401H8.08637H8.06881H8.05132H8.0339H8.01655H7.99927H7.98206H7.96491H7.94784H7.93083H7.91388H7.897H7.88019H7.86344H7.84675H7.83013H7.81356H7.79706H7.78062H7.76425H7.74793H7.73166H7.71546H7.69932H7.68323H7.6672H7.65122H7.6353H7.61943H7.60362H7.58786H7.57215H7.55649H7.54089H7.52533H7.50983H7.49437H7.47896H7.4636H7.44829H7.43302H7.4178H7.40263H7.3875H7.37241H7.35737H7.34237H7.32741H7.31249H7.29761H7.28278H7.26798H7.25322H7.2385H7.22381H7.20917H7.19456H7.17998H7.16544H7.15093H7.13646H7.12202H7.10761H7.09324H7.07889H7.06458H7.05029H7.03603H7.02181H7.0076H6.99343H6.97928H6.96516H6.95106H6.93699H6.92294H6.90892H6.89491H6.88093H6.86697H6.85303H6.83911H6.82521H6.81133H6.79746H6.78361H6.76978H6.75597H6.74217H6.72838H6.71461H6.70085H6.68711H6.67337H6.65965H6.64594H6.63224H6.61855H6.60486H6.59119H6.57752H6.56386H6.55021H6.53656H6.52291H6.50927H6.49563H6.482H6.46837H6.45474H6.44111H6.42748H6.41385H6.40022H6.38659H6.37296H6.35932H6.34568H6.33203H6.31838H6.30473H6.29106H6.2774H6.26372H6.25004H6.23634H6.22264H6.20893H6.1952H6.18147H6.16772H6.15396H6.14019H6.1264H6.1126H6.09878H6.08495H6.0711H6.05723H6.04334H6.02944H6.01552H6.00157H5.98761H5.97362H5.95962H5.94559H5.93154H5.91746H5.90336H5.88923H5.87508H5.8609H5.8467H5.83247H5.8182H5.80392H5.7896H5.77524H5.76086H5.74645H5.73201H5.71753H5.70302H5.68847H5.67389H5.65927H5.64462H5.62993H5.61521H5.60044H5.58564H5.5708H5.55591H5.54099H5.52602H5.51102H5.49597H5.48087H5.46574H5.45055H5.43533H5.42005H5.40473H5.38937H5.37395H5.35849H5.34298H5.32741H5.3118H5.29614H5.28042H5.26465H5.24883H5.23296H5.21703H5.20104H5.185H5.1689H5.15275H5.13654H5.12027H5.10394H5.08755H5.0711H5.05459H5.03802H5.02139H5.00469H4.98793H4.97111H4.95422H4.93727H4.92025H4.90316H4.88601H4.86878H4.85149H4.83413H4.8167H4.7992H4.78163H4.76398H4.74627H4.72848H4.71061H4.69267H4.67466H4.65657H4.6384H4.62016H4.60183H4.58343H4.56495H4.5464H4.52776H4.50904H4.49023H4.47135H4.45238H4.43333H4.41419H4.39497H4.37566H4.35627H4.33679H4.31722H4.29757H4.27782H4.25799H4.23807H4.21805H4.19794H4.17774H4.15745H4.13707H4.11659H4.09601H4.07534H4.05458H4.03372H4.01276H3.9917H3.97054H3.94929H3.92793H3.90647H3.88492H3.86326H3.84149H3.81963H3.79766H3.77559H3.75341H3.73112H3.70873H3.68623H3.66363H3.64091H3.61809H3.59515H3.57211H3.54896H3.52569H3.50231H3.47882H3.45521H3.43149H3.40766H3.38371H3.35964H3.33546H3.31116H3.28674H3.2622H3.23754H3.21276H3.18786H3.16284H3.1377H3.11244H3.08705H3.06154H3.0359H3.01014H2.98425H2.95823H2.93209H2.90582H2.87942H2.85289H2.82623H2.79944H2.77252H2.74547H2.71829H2.69097H2.66352H2.63593H2.60821H2.58035H2.55236H2.52423H2.49596H2.46755H2.43901H2.41032H2.3815H2.35253H2.32342H2.29417H2.26478H2.23524H2.20556H2.17573H2.14576H2.11565H2.08538H2.05497H2.02441H1.9937H1.96284H1.93183H1.90067H1.86936H1.8379H1.80628H1.77451H1.74259H1.71051H1.67828H1.64589H1.61334H1.58064H1.54778H1.51476H1.51232Z" stroke="#101820"/>
</svg>
