<svg width="24" height="25" viewBox="0 0 24 25" fill="none" xmlns="http://www.w3.org/2000/svg">
<g opacity="0.6">
<path fill-rule="evenodd" clip-rule="evenodd" d="M2 7.00858C1.99872 7.00832 1.99744 7.00806 1.99616 7.0078C0.856955 6.77469 0 5.76672 0 4.55859C0 3.17788 1.11929 2.05859 2.5 2.05859H21.5C22.8807 2.05859 24 3.17788 24 4.55859C24 5.76807 23.1411 6.77695 22 7.00858V12.0586C22 17.5814 17.5228 22.0586 12 22.0586C6.47715 22.0586 2 17.5814 2 12.0586V7.00858ZM22.7039 5.45355C22.8648 5.23732 22.9689 4.97633 22.9941 4.69297C22.998 4.6487 23 4.60388 23 4.55859C23 3.73017 22.3284 3.05859 21.5 3.05859H2.5C1.67157 3.05859 1 3.73017 1 4.55859C1 4.89543 1.11103 5.20634 1.29848 5.45672C1.57206 5.82212 2.00841 6.05859 2.5 6.05859H21.5C21.993 6.05859 22.4305 5.82075 22.7039 5.45355ZM3 12.0586C3 17.0292 7.02944 21.0586 12 21.0586C16.9706 21.0586 21 17.0292 21 12.0586V7.05859H3V12.0586ZM17 14.0586C17 16.82 14.7614 19.0586 12 19.0586C9.23858 19.0586 7 16.82 7 14.0586C7 11.2972 9.23858 9.05859 12 9.05859C14.7614 9.05859 17 11.2972 17 14.0586ZM12 18.0586C14.2091 18.0586 16 16.2677 16 14.0586C16 11.8495 14.2091 10.0586 12 10.0586C9.79086 10.0586 8 11.8495 8 14.0586C8 16.2677 9.79086 18.0586 12 18.0586ZM14.5 14.0586C14.5 15.4393 13.3807 16.5586 12 16.5586C10.6193 16.5586 9.5 15.4393 9.5 14.0586C9.5 12.6779 10.6193 11.5586 12 11.5586C13.3807 11.5586 14.5 12.6779 14.5 14.0586ZM12 15.5586C12.8284 15.5586 13.5 14.887 13.5 14.0586C13.5 13.2302 12.8284 12.5586 12 12.5586C11.1716 12.5586 10.5 13.2302 10.5 14.0586C10.5 14.887 11.1716 15.5586 12 15.5586ZM18 9.05859C17.4477 9.05859 17 9.50631 17 10.0586C17 10.6109 17.4477 11.0586 18 11.0586C18.5523 11.0586 19 10.6109 19 10.0586C19 9.50631 18.5523 9.05859 18 9.05859Z" fill="#101820"/>
</g>
</svg>
