<svg width="24" height="25" viewBox="0 0 24 25" fill="none" xmlns="http://www.w3.org/2000/svg">
<g opacity="0.6">
<path d="M17 6.55859H7V5.55859H17V6.55859Z" fill="#101820"/>
<path d="M7 10.5586H17V9.55859H7V10.5586Z" fill="#101820"/>
<path d="M17 14.5586H7V13.5586H17V14.5586Z" fill="#101820"/>
<path d="M7 18.5586H13V17.5586H7V18.5586Z" fill="#101820"/>
<path fill-rule="evenodd" clip-rule="evenodd" d="M5 0.0585938C3.89543 0.0585938 3 0.954024 3 2.05859V22.0586C3 23.1632 3.89543 24.0586 5 24.0586H19C20.1046 24.0586 21 23.1632 21 22.0586V2.05859C21 0.954024 20.1046 0.0585938 19 0.0585938H5ZM19 1.05859H5C4.44771 1.05859 4 1.50631 4 2.05859V22.0586C4 22.6109 4.44772 23.0586 5 23.0586H19C19.5523 23.0586 20 22.6109 20 22.0586V2.05859C20 1.50631 19.5523 1.05859 19 1.05859Z" fill="#101820"/>
</g>
</svg>
