<svg width="51" height="50" viewBox="0 0 51 50" fill="none" xmlns="http://www.w3.org/2000/svg">
<circle cx="21.25" cy="28.8588" r="20.5" fill="#E1EDFF"/>
<path d="M42.5808 12.7337L41.9192 11.9839L33.7342 19.2059L29.0623 15.4684L28.4377 16.2493L33.7658 20.5117L42.5808 12.7337Z" fill="#002D72"/>
<path fill-rule="evenodd" clip-rule="evenodd" d="M36.6428 0.164837C36.0679 -0.0549456 35.4321 -0.0549459 34.8572 0.164837L22.8572 4.75256C21.8893 5.12262 21.25 6.05146 21.25 7.08773V13.5847C21.25 19.8383 24.1045 25.7499 29.0019 29.6388L34.1954 33.7628C35.1057 34.4857 36.3943 34.4857 37.3047 33.7628L42.4981 29.6388C47.3955 25.7499 50.25 19.8383 50.25 13.5847V7.08773C50.25 6.05146 49.6107 5.12262 48.6428 4.75256L36.6428 0.164837ZM35.2143 1.0989C35.5593 0.967032 35.9407 0.967033 36.2857 1.0989L48.2857 5.68663C48.8664 5.90866 49.25 6.46597 49.25 7.08773V13.5847C49.25 19.5332 46.5348 25.1565 41.8763 28.8557L36.6828 32.9797C36.1366 33.4134 35.3634 33.4134 34.8172 32.9797L29.6237 28.8557C24.9652 25.1565 22.25 19.5332 22.25 13.5847V7.08773C22.25 6.46597 22.6336 5.90866 23.2143 5.68663L35.2143 1.0989Z" fill="#002D72"/>
</svg>
