<svg width="24" height="25" viewBox="0 0 24 25" fill="none" xmlns="http://www.w3.org/2000/svg">
<g opacity="0.6">
<path fill-rule="evenodd" clip-rule="evenodd" d="M10 10.0586C10 8.95402 10.8954 8.05859 12 8.05859C13.1046 8.05859 14 8.95402 14 10.0586C14 11.1632 13.1046 12.0586 12 12.0586C10.8954 12.0586 10 11.1632 10 10.0586ZM12 11.0586C11.4477 11.0586 11 10.6109 11 10.0586C11 9.50631 11.4477 9.05859 12 9.05859C12.5523 9.05859 13 9.50631 13 10.0586C13 10.6109 12.5523 11.0586 12 11.0586Z" fill="#101820"/>
<path fill-rule="evenodd" clip-rule="evenodd" d="M8.12602 11.0586C8.4878 12.4642 9.59439 13.5708 11 13.9326V15.0586H13V13.9326C14.4056 13.5708 15.5122 12.4642 15.874 11.0586H17V9.05859H15.874C15.5122 7.65299 14.4056 6.54639 13 6.18461V5.05859H11V6.18461C9.59439 6.54639 8.4878 7.65299 8.12602 9.05859H7V11.0586H8.12602ZM9 10.0586C9 11.7154 10.3431 13.0586 12 13.0586C13.6569 13.0586 15 11.7154 15 10.0586C15 8.40174 13.6569 7.05859 12 7.05859C10.3431 7.05859 9 8.40174 9 10.0586Z" fill="#101820"/>
<path fill-rule="evenodd" clip-rule="evenodd" d="M21 9.55859V10.5586C21.5523 10.5586 22 11.0063 22 11.5586V13.5586C22 14.1109 21.5523 14.5586 21 14.5586V15.0586C21 16.1632 20.1046 17.0586 19 17.0586H5C3.89543 17.0586 3 16.1632 3 15.0586V5.05859C3 3.95402 3.89543 3.05859 5 3.05859H19C20.1046 3.05859 21 3.95402 21 5.05859V5.55859C21.5523 5.55859 22 6.00631 22 6.55859V8.55859C22 9.11088 21.5523 9.55859 21 9.55859ZM20 8.55859V6.55859H21V8.55859H20ZM20 9.55859C19.4477 9.55859 19 9.11088 19 8.55859V6.55859C19 6.00631 19.4477 5.55859 20 5.55859V5.05859C20 4.50631 19.5523 4.05859 19 4.05859H5C4.44772 4.05859 4 4.50631 4 5.05859V15.0586C4 15.6109 4.44772 16.0586 5 16.0586H19C19.5523 16.0586 20 15.6109 20 15.0586V14.5586C19.4477 14.5586 19 14.1109 19 13.5586V11.5586C19 11.0063 19.4477 10.5586 20 10.5586V9.55859ZM21 13.5586V11.5586H20V13.5586H21Z" fill="#101820"/>
<path fill-rule="evenodd" clip-rule="evenodd" d="M24 17.0586C24 18.7154 22.6569 20.0586 21 20.0586V22.0586C21 22.6109 20.5523 23.0586 20 23.0586H18C17.4477 23.0586 17 22.6109 17 22.0586V20.0586H7V22.0586C7 22.6109 6.55228 23.0586 6 23.0586H4C3.44772 23.0586 3 22.6109 3 22.0586V20.0586C1.34315 20.0586 0 18.7154 0 17.0586V3.05859C0 1.40174 1.34315 0.0585938 3 0.0585938H21C22.6569 0.0585938 24 1.40174 24 3.05859V17.0586ZM3 1.05859H21C22.1046 1.05859 23 1.95402 23 3.05859V17.0586C23 18.1632 22.1046 19.0586 21 19.0586H3C1.89543 19.0586 1 18.1632 1 17.0586V3.05859C1 1.95402 1.89543 1.05859 3 1.05859ZM18 22.0586V20.0586H20V22.0586H18ZM6 20.0586H4V22.0586H6V20.0586Z" fill="#101820"/>
</g>
</svg>
