<svg width="24" height="25" viewBox="0 0 24 25" fill="none" xmlns="http://www.w3.org/2000/svg">
<g opacity="0.6">
<path d="M8.58506 7.64246C8.73913 7.41329 9.04981 7.35242 9.27897 7.50649L10.4201 8.27373C11.5691 9.0462 11.4614 10.77 10.2251 11.3933C9.67159 11.6724 9.62334 12.4442 10.1378 12.7901L11.279 13.5574C11.5081 13.7114 11.569 14.0221 11.4149 14.2513C11.2609 14.4804 10.9502 14.5413 10.721 14.3872L9.57985 13.62C8.43088 12.8475 8.53864 11.1238 9.77488 10.5004C10.3284 10.2213 10.3767 9.44948 9.86221 9.1036L8.72103 8.33637C8.49186 8.1823 8.43099 7.87162 8.58506 7.64246Z" fill="#101820"/>
<path d="M13.279 7.50649C13.0498 7.35242 12.7391 7.41329 12.5851 7.64246C12.431 7.87162 12.4919 8.1823 12.721 8.33637L13.8622 9.1036C14.3767 9.44948 14.3284 10.2213 13.7749 10.5004C12.5386 11.1238 12.4309 12.8475 13.5799 13.62L14.721 14.3872C14.9502 14.5413 15.2609 14.4804 15.4149 14.2513C15.569 14.0221 15.5081 13.7114 15.279 13.5574L14.1378 12.7901C13.6233 12.4442 13.6716 11.6724 14.2251 11.3933C15.4614 10.77 15.5691 9.0462 14.4201 8.27373L13.279 7.50649Z" fill="#101820"/>
<path fill-rule="evenodd" clip-rule="evenodd" d="M24 23.0571C24 23.6094 23.5523 24.0571 23 24.0571H1C0.447716 24.0571 0 23.6094 0 23.0571V8.4541C0 8.12113 0.165731 7.81001 0.442056 7.62423L11.4421 0.228715C11.7794 0.0018868 12.2206 0.00188662 12.5579 0.228715L23.5579 7.62423C23.8343 7.81001 24 8.12113 24 8.45411V23.0571ZM23 17.002V8.45411L12 1.05859L1 8.45411V17.002H9V18.002H1V23.0571H6V18.0062H7V23.0571H17V18.0062H18V23.0571H23V18.002H15V17.002H23Z" fill="#101820"/>
</g>
</svg>
