<svg width="24" height="25" viewBox="0 0 24 25" fill="none" xmlns="http://www.w3.org/2000/svg">
<g opacity="0.6">
<path fill-rule="evenodd" clip-rule="evenodd" d="M8.0628 10.1768V6.21568H10.2977C10.7871 6.21568 11.1834 6.31065 11.4866 6.5006C11.7898 6.68591 12.0107 6.93146 12.1493 7.23722C12.2922 7.54299 12.3636 7.86961 12.3636 8.21708C12.3636 8.59697 12.2922 8.93517 12.1493 9.23168C12.0107 9.52818 11.7898 9.75982 11.4866 9.9266C11.1834 10.0934 10.7871 10.1768 10.2977 10.1768H8.0628ZM10.2977 9.16496H9.08409V7.2275H10.2977C10.6619 7.2275 10.8502 7.29905 10.9407 7.35577L10.9503 7.36172C11.0893 7.44666 11.1673 7.54074 11.2176 7.65173L11.2225 7.66242C11.3012 7.83073 11.3424 8.01176 11.3424 8.21708C11.3424 8.46959 11.2954 8.65503 11.2277 8.79563L11.2225 8.80648C11.1797 8.8981 11.1152 8.97357 10.9908 9.04201C10.8889 9.09804 10.681 9.16496 10.2977 9.16496Z" fill="#101820"/>
<path d="M20.7698 15.4024L20.0941 14.6437L16.9508 17.3915L15.2475 16.0416L14.6096 16.8317L16.9829 18.7128L20.7698 15.4024Z" fill="#101820"/>
<path fill-rule="evenodd" clip-rule="evenodd" d="M4.08516 20.295H13.6137C14.4178 21.5689 15.4423 22.7138 16.6582 23.6704C17.3161 24.188 18.2482 24.188 18.9061 23.6704C22.1227 21.1399 24 17.2913 24 13.2218C24 12.4801 23.5382 11.8153 22.8389 11.5505L20.4258 10.6365V4.10587C20.4258 1.87062 18.5968 0.0585938 16.3406 0.0585938H4.08516C1.82899 0.0585938 0 1.87062 0 4.10587V16.2477C0 18.4829 1.82899 20.295 4.08516 20.295ZM16.3406 1.07041H4.08516C2.39303 1.07041 1.02129 2.42943 1.02129 4.10587V16.2477C1.02129 17.9241 2.39303 19.2831 4.08516 19.2831H13.0353C12.0805 17.4289 11.5643 15.3557 11.5643 13.2218C11.5643 12.7753 11.7317 12.3566 12.0175 12.0363C11.487 12.2051 10.9083 12.2796 10.2977 12.2796H9.08409V16.2477H5.78764V4.10587H10.2977C11.1364 4.10587 11.9173 4.26076 12.5954 4.62343C13.2552 4.97629 13.7769 5.48015 14.1314 6.12839C14.4787 6.75873 14.6388 7.45938 14.6388 8.20318C14.6388 8.9826 14.4849 9.71301 14.1283 10.353C13.9195 10.7278 13.653 11.0505 13.3351 11.3195L16.8704 9.9805C17.4575 9.75812 18.1068 9.75812 18.6939 9.9805L19.4045 10.2496V4.10587C19.4045 2.42943 18.0328 1.07041 16.3406 1.07041ZM6.80893 5.11769H10.2977C11.0123 5.11769 11.6165 5.24972 12.1103 5.5138C12.604 5.77787 12.9787 6.14387 13.2342 6.61179C13.4897 7.07507 13.6175 7.60554 13.6175 8.20318C13.6175 8.85178 13.4897 9.40541 13.2342 9.86406C12.9787 10.3227 12.604 10.6725 12.1103 10.9134C11.6165 11.1497 11.0123 11.2678 10.2977 11.2678H8.0628V15.2359H6.80893V5.11769ZM18.3292 10.9256C17.9769 10.7922 17.5874 10.7922 17.2351 10.9256L13.0901 12.4956C12.7863 12.6107 12.5856 12.8995 12.5856 13.2218C12.5856 16.9824 14.3205 20.5393 17.2933 22.878C17.5793 23.103 17.985 23.103 18.271 22.878C21.2438 20.5393 22.9787 16.9824 22.9787 13.2218C22.9787 12.8995 22.778 12.6107 22.4742 12.4956L18.3292 10.9256Z" fill="#101820"/>
</g>
</svg>
