<svg width="24" height="25" viewBox="0 0 24 25" fill="none" xmlns="http://www.w3.org/2000/svg">
<path fill-rule="evenodd" clip-rule="evenodd" d="M20 8.05859C22.2091 8.05859 24 6.26773 24 4.05859C24 1.84945 22.2091 0.0585938 20 0.0585938C17.7909 0.0585938 16 1.84945 16 4.05859C16 4.44363 16.0544 4.81596 16.1559 5.16831L7.05673 9.47846C6.32299 8.61007 5.2259 8.05859 4 8.05859C1.79086 8.05859 0 9.84945 0 12.0586C0 14.2677 1.79086 16.0586 4 16.0586C5.2259 16.0586 6.32299 15.5071 7.05673 14.6387L16.1559 18.9489C16.0544 19.3012 16 19.6736 16 20.0586C16 22.2677 17.7909 24.0586 20 24.0586C22.2091 24.0586 24 22.2677 24 20.0586C24 17.8495 22.2091 16.0586 20 16.0586C18.5313 16.0586 17.2475 16.8501 16.5519 18.0299L7.60578 13.7923C7.85843 13.2678 8 12.6797 8 12.0586C8 11.4375 7.85843 10.8494 7.60578 10.3249L16.5519 6.08728C17.2475 7.26704 18.5313 8.05859 20 8.05859ZM20 7.05859C21.6569 7.05859 23 5.71545 23 4.05859C23 2.40174 21.6569 1.05859 20 1.05859C18.3431 1.05859 17 2.40174 17 4.05859C17 5.71545 18.3431 7.05859 20 7.05859ZM4 15.0586C5.65685 15.0586 7 13.7154 7 12.0586C7 10.4017 5.65685 9.05859 4 9.05859C2.34315 9.05859 1 10.4017 1 12.0586C1 13.7154 2.34315 15.0586 4 15.0586ZM23 20.0586C23 21.7154 21.6569 23.0586 20 23.0586C18.3431 23.0586 17 21.7154 17 20.0586C17 18.4017 18.3431 17.0586 20 17.0586C21.6569 17.0586 23 18.4017 23 20.0586Z" fill="#101820"/>
</svg>
