<svg width="24" height="25" viewBox="0 0 24 25" fill="none" xmlns="http://www.w3.org/2000/svg">
<g opacity="0.6">
<path fill-rule="evenodd" clip-rule="evenodd" d="M14.5195 5.55859V6.76758H15.5274C16.0841 6.76758 16.5354 7.21529 16.5354 7.76758V14.0176C16.5354 14.5699 16.0841 15.0176 15.5274 15.0176H8.47186C7.9152 15.0176 7.46393 14.5699 7.46393 14.0176V7.76758C7.46393 7.21529 7.9152 6.76758 8.47186 6.76758H9.4798V5.55859C9.4798 4.17788 10.608 3.05859 11.9996 3.05859C13.3913 3.05859 14.5195 4.17788 14.5195 5.55859ZM10.4877 5.55859C10.4877 4.73017 11.1646 4.05859 11.9996 4.05859C12.8346 4.05859 13.5116 4.73017 13.5116 5.55859V6.76758H10.4877V5.55859ZM15.5274 7.76758H14.5195V9.05859H13.5116V7.76758H10.4877V9.05859H9.4798V7.76758H8.47186V14.0176H15.5274V7.76758Z" fill="#101820"/>
<path fill-rule="evenodd" clip-rule="evenodd" d="M2.92821 9.05859C2.92821 4.08803 6.98963 0.0585938 11.9996 0.0585938C17.0097 0.0585938 21.0711 4.08803 21.0711 9.05859V9.60786C21.0711 12.2846 19.9387 14.8384 17.9499 16.6471L12.5334 21.5732C12.2314 21.8478 11.7679 21.8478 11.4659 21.5732L9.80051 20.0586H5.42888L3.00983 23.0586H20.9902L18.5711 20.0586H14.1991L15.2987 19.0586H18.5711C18.8773 19.0586 19.1669 19.1967 19.3582 19.4339L21.7772 22.4339C22.3052 23.0887 21.8353 24.0586 20.9902 24.0586H3.00983C2.16467 24.0586 1.69479 23.0887 2.22276 22.4339L4.64181 19.4339C4.83309 19.1967 5.12268 19.0586 5.42888 19.0586H8.70094L6.04938 16.6471C4.06056 14.8384 2.92821 12.2846 2.92821 9.60786V9.05859ZM20.0631 9.05859V9.60786C20.0631 12.0043 19.0494 14.2907 17.2688 15.91L11.9996 20.702L6.73047 15.91C4.94992 14.2907 3.93615 12.0043 3.93615 9.60786V9.05859C3.93615 4.64032 7.5463 1.05859 11.9996 1.05859C16.453 1.05859 20.0631 4.64032 20.0631 9.05859Z" fill="#101820"/>
</g>
</svg>
