<svg width="24" height="25" viewBox="0 0 24 25" fill="none" xmlns="http://www.w3.org/2000/svg">
<g opacity="0.6">
<path fill-rule="evenodd" clip-rule="evenodd" d="M13 1.06836H11V4.16838C9.04087 4.56606 7.4977 6.10923 7.10002 8.06836H7C6.44772 8.06836 6 8.51607 6 9.06836V10.0684C6 10.6206 6.44772 11.0684 7 11.0684H17C17.5523 11.0684 18 10.6206 18 10.0684V9.06836C18 8.51607 17.5523 8.06836 17 8.06836H16.9C16.5023 6.10923 14.9591 4.56606 13 4.16838V1.06836ZM12 5.06836C13.8638 5.06836 15.4299 6.34313 15.874 8.06836H8.12602C8.57006 6.34313 10.1362 5.06836 12 5.06836ZM17 9.06836V10.0684H7L7 9.06836H17Z" fill="#101820"/>
<path fill-rule="evenodd" clip-rule="evenodd" d="M12 12.0684L13.2948 15.0821C13.6544 15.9191 13.1372 16.8723 12.2394 17.0271C12.081 17.0544 11.919 17.0544 11.7606 17.0271C10.8628 16.8723 10.3456 15.9191 10.7052 15.0821L12 12.0684ZM11.624 15.4768L12 14.6017L12.376 15.4768C12.4804 15.7199 12.3302 15.9967 12.0695 16.0416C12.0235 16.0496 11.9765 16.0496 11.9305 16.0416C11.6698 15.9967 11.5196 15.7199 11.624 15.4768Z" fill="#101820"/>
<path fill-rule="evenodd" clip-rule="evenodd" d="M12 18.0684L10.7052 21.0821C10.3456 21.9191 10.8628 22.8723 11.7606 23.0271C11.919 23.0544 12.081 23.0544 12.2394 23.0271C13.1372 22.8723 13.6544 21.9191 13.2948 21.0821L12 18.0684ZM12 20.6017L11.624 21.4768C11.5196 21.7199 11.6698 21.9967 11.9305 22.0416C11.9765 22.0496 12.0235 22.0496 12.0695 22.0416C12.3302 21.9967 12.4804 21.7199 12.376 21.4768L12 20.6017Z" fill="#101820"/>
<path fill-rule="evenodd" clip-rule="evenodd" d="M8 12.0684L9.29478 15.0821C9.6544 15.9191 9.13722 16.8723 8.23944 17.0271C8.08098 17.0544 7.91902 17.0544 7.76056 17.0271C6.86278 16.8723 6.3456 15.9191 6.70522 15.0821L8 12.0684ZM7.62401 15.4768L8 14.6017L8.37599 15.4768C8.48042 15.7199 8.33023 15.9967 8.06953 16.0416C8.02352 16.0496 7.97648 16.0496 7.93047 16.0416C7.66977 15.9967 7.51958 15.7199 7.62401 15.4768Z" fill="#101820"/>
<path fill-rule="evenodd" clip-rule="evenodd" d="M8 18.0684L6.70522 21.0821C6.3456 21.9191 6.86278 22.8723 7.76056 23.0271C7.91902 23.0544 8.08098 23.0544 8.23944 23.0271C9.13722 22.8723 9.6544 21.9191 9.29478 21.0821L8 18.0684ZM8 20.6017L7.62401 21.4768C7.51958 21.7199 7.66977 21.9967 7.93047 22.0416C7.97648 22.0496 8.02352 22.0496 8.06953 22.0416C8.33023 21.9967 8.48042 21.7199 8.37599 21.4768L8 20.6017Z" fill="#101820"/>
<path fill-rule="evenodd" clip-rule="evenodd" d="M16 12.0684L17.2948 15.0821C17.6544 15.9191 17.1372 16.8723 16.2394 17.0271C16.081 17.0544 15.919 17.0544 15.7606 17.0271C14.8628 16.8723 14.3456 15.9191 14.7052 15.0821L16 12.0684ZM15.624 15.4768L16 14.6017L16.376 15.4768C16.4804 15.7199 16.3302 15.9967 16.0695 16.0416C16.0235 16.0496 15.9765 16.0496 15.9305 16.0416C15.6698 15.9967 15.5196 15.7199 15.624 15.4768Z" fill="#101820"/>
<path fill-rule="evenodd" clip-rule="evenodd" d="M16 18.0684L14.7052 21.0821C14.3456 21.9191 14.8628 22.8723 15.7606 23.0271C15.919 23.0544 16.081 23.0544 16.2394 23.0271C17.1372 22.8723 17.6544 21.9191 17.2948 21.0821L16 18.0684ZM16 20.6017L15.624 21.4768C15.5196 21.7199 15.6698 21.9967 15.9305 22.0416C15.9765 22.0496 16.0235 22.0496 16.0695 22.0416C16.3302 21.9967 16.4804 21.7199 16.376 21.4768L16 20.6017Z" fill="#101820"/>
</g>
</svg>
