<svg width="24" height="25" viewBox="0 0 24 25" fill="none" xmlns="http://www.w3.org/2000/svg">
<g opacity="0.6">
<path fill-rule="evenodd" clip-rule="evenodd" d="M0.5 5.55859C0.5 2.52103 2.96243 0.0585938 6 0.0585938C9.03757 0.0585938 11.5 2.52103 11.5 5.55859V12.4117C11.5 12.7375 11.1902 12.9741 10.8759 12.8884L10.614 12.817C10.576 12.8066 10.538 12.7964 10.5 12.7863V19.5586C10.5 22.0439 8.48528 24.0586 6 24.0586C3.51472 24.0586 1.5 22.0439 1.5 19.5586V12.7863C1.46197 12.7964 1.42397 12.8066 1.386 12.817L1.12413 12.8884C0.809803 12.9741 0.5 12.7375 0.5 12.4117V5.55859ZM10.5 5.55859V9.3998C7.55728 8.63713 4.44431 8.63931 1.5 9.39031V5.55859C1.5 3.07331 3.51472 1.05859 6 1.05859C8.48528 1.05859 10.5 3.07331 10.5 5.55859ZM1.5 10.4243C4.43874 9.62759 7.56688 9.62581 10.5 10.4349V11.7536C7.54562 11.0142 4.45438 11.0142 1.5 11.7536V10.4243ZM2.5 12.5519V19.5586C2.5 21.4916 4.067 23.0586 6 23.0586C7.933 23.0586 9.5 21.4916 9.5 19.5586V12.5519C7.19047 12.0815 4.80953 12.0815 2.5 12.5519Z" fill="#101820"/>
<path fill-rule="evenodd" clip-rule="evenodd" d="M12.5 5.55859C12.5 2.52103 14.9624 0.0585938 18 0.0585938C21.0376 0.0585938 23.5 2.52103 23.5 5.55859V12.4117C23.5 12.7375 23.1902 12.9741 22.8759 12.8884L22.614 12.817C22.576 12.8066 22.538 12.7964 22.5 12.7863V19.5586C22.5 22.0439 20.4853 24.0586 18 24.0586C15.5147 24.0586 13.5 22.0439 13.5 19.5586V12.7863C13.462 12.7964 13.424 12.8066 13.386 12.817L13.1241 12.8884C12.8098 12.9741 12.5 12.7375 12.5 12.4117V5.55859ZM22.5 10.4349V11.7536C19.5456 11.0142 16.4544 11.0142 13.5 11.7536V10.4243C16.4387 9.62759 19.5669 9.62581 22.5 10.4349ZM22.5 9.3998V5.55859C22.5 3.07331 20.4853 1.05859 18 1.05859C15.5147 1.05859 13.5 3.07331 13.5 5.55859V9.39031C16.4443 8.63931 19.5573 8.63713 22.5 9.3998ZM14.5 19.5586V12.5519C16.8095 12.0815 19.1905 12.0815 21.5 12.5519V19.5586C21.5 21.4916 19.933 23.0586 18 23.0586C16.067 23.0586 14.5 21.4916 14.5 19.5586Z" fill="#101820"/>
</g>
</svg>
