<svg width="24" height="25" viewBox="0 0 24 25" fill="none" xmlns="http://www.w3.org/2000/svg">
<g opacity="0.6">
<path d="M8.35359 10.0683C10.3675 8.05439 13.6326 8.05439 15.6465 10.0683L16.3536 9.36116C13.9492 6.95676 10.0509 6.95676 7.64648 9.36116L8.35359 10.0683Z" fill="#101820"/>
<path d="M9.85359 11.4683C11.039 10.2828 12.961 10.2828 14.1465 11.4683L14.8536 10.7612C13.2776 9.18519 10.7225 9.18519 9.14648 10.7612L9.85359 11.4683Z" fill="#101820"/>
<path d="M13 12.6147C13 13.167 12.5523 13.6147 12 13.6147C11.4478 13.6147 11 13.167 11 12.6147C11 12.0624 11.4478 11.6147 12 11.6147C12.5523 11.6147 13 12.0624 13 12.6147Z" fill="#101820"/>
<path fill-rule="evenodd" clip-rule="evenodd" d="M0 5.08789C0 4.53561 0.447715 4.08789 1 4.08789H23C23.5523 4.08789 24 4.53561 24 5.08789V16.0879C24 16.6402 23.5523 17.0879 23 17.0879H13.118L17.2236 19.1407L16.7764 20.0351L12 17.6469L7.22361 20.0351L6.77639 19.1407L10.882 17.0879H1C0.447716 17.0879 0 16.6402 0 16.0879V5.08789ZM1 5.08789H23V16.0879H1V5.08789Z" fill="#101820"/>
</g>
</svg>
