<svg width="24" height="25" viewBox="0 0 24 25" fill="none" xmlns="http://www.w3.org/2000/svg">
<g opacity="0.6">
<path fill-rule="evenodd" clip-rule="evenodd" d="M23.8238 13.3807C23.937 13.1299 24 12.8516 24 12.5586V8.55859C24 7.45402 23.1046 6.55859 22 6.55859V3.55859C22 2.45402 21.1046 1.55859 20 1.55859H4C2.89543 1.55859 2 2.45402 2 3.55859V6.55859C0.895431 6.55859 0 7.45402 0 8.55859V12.5586C0 12.8516 0.0630205 13.1299 0.176245 13.3807C0.0616723 13.7531 0 14.1486 0 14.5586V19.5586C0 20.1109 0.447716 20.5586 1 20.5586H2V21.5586C2 22.1109 2.44772 22.5586 3 22.5586H4C4.55228 22.5586 5 22.1109 5 21.5586V20.5586H19V21.5586C19 22.1109 19.4477 22.5586 20 22.5586H21C21.5523 22.5586 22 22.1109 22 21.5586V20.5586H23C23.5523 20.5586 24 20.1109 24 19.5586V14.5586C24 14.1486 23.9383 13.7531 23.8238 13.3807ZM20 2.55859H4C3.44772 2.55859 3 3.00631 3 3.55859V6.55859C4.10457 6.55859 5 7.45402 5 8.55859V10.5586H5.51756C5.34739 10.2644 5.25 9.92288 5.25 9.55859C5.25 8.45402 6.14543 7.55859 7.25 7.55859H9.75C10.8546 7.55859 11.75 8.45402 11.75 9.55859C11.75 9.92288 11.6526 10.2644 11.4824 10.5586H12.5176C12.3474 10.2644 12.25 9.92288 12.25 9.55859C12.25 8.45402 13.1454 7.55859 14.25 7.55859H16.75C17.8546 7.55859 18.75 8.45402 18.75 9.55859C18.75 9.92288 18.6526 10.2644 18.4824 10.5586H19V8.55859C19 7.45402 19.8954 6.55859 21 6.55859V3.55859C21 3.00631 20.5523 2.55859 20 2.55859ZM22 7.55859H21C20.4477 7.55859 20 8.00631 20 8.55859V10.5586C21.1947 10.5586 22.2671 11.0823 23 11.9128V8.55859C23 8.00631 22.5523 7.55859 22 7.55859ZM1 11.9128V8.55859C1 8.00631 1.44772 7.55859 2 7.55859H3C3.55228 7.55859 4 8.00631 4 8.55859L4 10.5586C2.80531 10.5586 1.73294 11.0823 1 11.9128ZM20 11.5586H4C2.80629 11.5586 1.77542 12.2558 1.29237 13.2652C1.14686 13.5693 1.05105 13.9017 1.01549 14.2519C1.01395 14.267 1.01252 14.2822 1.01121 14.2975C1.00379 14.3835 1 14.4706 1 14.5586V19.5586H23V14.5586C23 14.4706 22.9962 14.3835 22.9888 14.2975C22.9613 13.9784 22.8838 13.6735 22.7642 13.3909C22.7463 13.3485 22.7274 13.3066 22.7076 13.2652C22.2246 12.2558 21.1937 11.5586 20 11.5586ZM16.75 10.5586C17.3023 10.5586 17.75 10.1109 17.75 9.55859C17.75 9.00631 17.3023 8.55859 16.75 8.55859H14.25C13.6977 8.55859 13.25 9.00631 13.25 9.55859C13.25 10.1109 13.6977 10.5586 14.25 10.5586H16.75ZM9.75 10.5586C10.3023 10.5586 10.75 10.1109 10.75 9.55859C10.75 9.00631 10.3023 8.55859 9.75 8.55859H7.25C6.69772 8.55859 6.25 9.00631 6.25 9.55859C6.25 10.1109 6.69772 10.5586 7.25 10.5586H9.75ZM20 20.5586H21V21.5586H20V20.5586ZM3 21.5586V20.5586H4V21.5586H3Z" fill="#101820"/>
</g>
</svg>
