<svg width="24" height="25" viewBox="0 0 24 25" fill="none" xmlns="http://www.w3.org/2000/svg">
<g opacity="0.6">
<path fill-rule="evenodd" clip-rule="evenodd" d="M22 17.5586C23.1046 17.5586 24 16.6632 24 15.5586V11.5586C24 10.454 23.1046 9.55859 22 9.55859V6.55859C22 5.45402 21.1046 4.55859 20 4.55859H4C2.89543 4.55859 2 5.45402 2 6.55859V9.55859C0.895431 9.55859 0 10.454 0 11.5586V15.5586C0 16.6632 0.89543 17.5586 2 17.5586L2 18.5586C2 19.1109 2.44772 19.5586 3 19.5586H4C4.55228 19.5586 5 19.1109 5 18.5586V17.5586H19V18.5586C19 19.1109 19.4477 19.5586 20 19.5586H21C21.5523 19.5586 22 19.1109 22 18.5586V17.5586ZM21 6.55859C21 6.00631 20.5523 5.55859 20 5.55859H4C3.44772 5.55859 3 6.00631 3 6.55859V9.55859C4.10457 9.55859 5 10.454 5 11.5586V11.9128C5.73294 11.0823 6.80531 10.5586 8 10.5586H16C17.1947 10.5586 18.2671 11.0823 19 11.9128V11.5586C19 10.454 19.8954 9.55859 21 9.55859V6.55859ZM3 10.5586H2C1.44772 10.5586 1 11.0063 1 11.5586V15.5586C1 16.1109 1.44772 16.5586 2 16.5586H22C22.5523 16.5586 23 16.1109 23 15.5586V11.5586C23 11.0063 22.5523 10.5586 22 10.5586H21C20.4477 10.5586 20 11.0063 20 11.5586V14.5586H4L4 11.5586C4 11.0063 3.55228 10.5586 3 10.5586ZM5.17071 13.5586H18.8293C18.4175 12.3934 17.3062 11.5586 16 11.5586H8C6.69378 11.5586 5.58254 12.3934 5.17071 13.5586ZM3 17.5586H4V18.5586H3V17.5586ZM20 17.5586H21V18.5586H20V17.5586Z" fill="#101820"/>
</g>
</svg>
