<svg width="24" height="25" viewBox="0 0 24 25" fill="none" xmlns="http://www.w3.org/2000/svg">
<g opacity="0.6">
<path fill-rule="evenodd" clip-rule="evenodd" d="M11.5 0.558594V4.48559H12C9.16216 4.48559 6.5544 4.82412 4.5 5.39008V4.37258L7.43254 3.61674L3.5 1.58957V5.69852C1.33708 6.44439 0 7.47327 0 8.60948C0 8.72442 0.0136839 8.83827 0.0405224 8.95083L1.50048 19.9888C1.50325 20.1002 1.51799 20.2079 1.5432 20.3118L1.57214 20.5306L1.61122 20.5251C1.77628 20.9411 2.10866 21.2909 2.49658 21.5746C3.06474 21.99 3.85444 22.3431 4.78526 22.631C6.65327 23.2087 9.20394 23.5586 12 23.5586C14.7961 23.5586 17.3467 23.2087 19.2147 22.631C20.1456 22.3431 20.9353 21.99 21.5034 21.5746C21.8913 21.2909 22.2237 20.9411 22.3888 20.5251L22.4279 20.5306L22.4568 20.3118C22.482 20.2079 22.4967 20.1002 22.4995 19.9888L23.9595 8.95084C23.9863 8.83827 24 8.72443 24 8.60948C24 7.47327 22.6629 6.44439 20.5 5.69852V4.37258L23.4325 3.61674L19.5 1.58957V5.39008C17.4456 4.82412 14.8378 4.48559 12 4.48559H12.5V3.34161L15.4325 2.58577L11.5 0.558594ZM12.5675 2.26152L12.5 2.27891V2.22674L12.5675 2.26152ZM22.9784 8.73768L22.9989 8.5828C22.9885 8.45264 22.8972 8.18715 22.438 7.81401C22.1401 7.57194 21.7361 7.32752 21.2284 7.09274L18.7561 10.4912C18.9015 10.5949 19.0424 10.7159 19.1617 10.8547C19.5164 10.7588 19.8528 10.6561 20.1691 10.5474C21.1966 10.1943 21.956 9.79656 22.438 9.40495C22.7993 9.11142 22.9328 8.88451 22.9784 8.73768ZM22.753 10.4421L22.3375 13.5834L21.7331 13.9728C19.8974 15.1557 17.8514 15.9472 15.7161 16.302C14.9055 15.081 13.5435 14.2798 12 14.2798C10.4565 14.2798 9.09448 15.081 8.28388 16.302C6.14858 15.9472 4.10262 15.1557 2.26687 13.9728L1.66251 13.5834L1.24702 10.4421C3.21049 11.8001 7.2881 12.7334 12 12.7334C16.7119 12.7334 20.7895 11.8001 22.753 10.4421ZM22.1618 14.9118C20.3339 16.0716 18.3132 16.868 16.2043 17.2618C16.3954 17.7765 16.5 18.3353 16.5 18.9192V22.1915C17.404 22.0474 18.2223 21.8616 18.9274 21.6435C19.8062 21.3717 20.481 21.0582 20.9249 20.7336C21.2716 20.4801 21.4233 20.2622 21.4763 20.0944L22.1618 14.9118ZM1.83822 14.9118L2.5237 20.0944C2.57669 20.2622 2.72838 20.4801 3.07512 20.7336C3.51902 21.0582 4.19378 21.3717 5.07261 21.6435C5.77773 21.8616 6.59601 22.0474 7.5 22.1915V18.9192C7.5 18.3353 7.60465 17.7765 7.79566 17.2618C5.68677 16.868 3.66608 16.0716 1.83822 14.9118ZM12 22.5276C10.7632 22.5276 9.58342 22.4572 8.5 22.3296V18.9192C8.5 16.9263 10.067 15.3108 12 15.3108C13.933 15.3108 15.5 16.9263 15.5 18.9192V22.3296C14.4166 22.4572 13.2368 22.5276 12 22.5276ZM16.8124 10.74C17.2492 10.8687 17.6075 11.01 17.8831 11.1548C16.1772 11.4997 14.1666 11.7024 12 11.7024C9.83344 11.7024 7.82281 11.4997 6.11686 11.1548C6.39252 11.01 6.75082 10.8687 7.18761 10.74C8.39829 10.3834 10.0999 10.1559 12 10.1559C13.9001 10.1559 15.6017 10.3834 16.8124 10.74ZM3.83095 10.5474C4.14717 10.6561 4.48356 10.7588 4.83831 10.8547C4.96479 10.7075 5.1155 10.5804 5.27021 10.4726C5.36791 10.4046 5.47404 10.3393 5.5878 10.2766L3.15117 6.92716C2.46184 7.21122 1.93073 7.51442 1.56199 7.81401C1.10275 8.18715 1.0115 8.45264 1.0011 8.5828L1.02158 8.73769C1.06719 8.88451 1.20073 9.11142 1.56199 9.40495C2.04398 9.79656 2.80339 10.1943 3.83095 10.5474ZM4.14066 6.56906L6.53983 9.86704C6.66051 9.82583 6.78502 9.7864 6.91289 9.74873C7.36615 9.61522 7.87525 9.49996 8.42779 9.40614L7.55765 5.81776C6.27684 5.9996 5.12163 6.25664 4.14066 6.56906ZM8.5584 5.69394L9.42454 9.2658C10.0784 9.19143 10.7756 9.1448 11.5 9.13004V5.52017C10.4757 5.535 9.48978 5.59514 8.5584 5.69394ZM12.5 5.52017V9.13004C13.2339 9.145 13.9399 9.19266 14.6012 9.26875L15.8832 5.74416C14.8239 5.61548 13.6877 5.53737 12.5 5.52017ZM16.8994 5.88667L15.6165 9.41371C16.152 9.50615 16.646 9.61879 17.0871 9.74873C17.3594 9.82894 17.6164 9.91713 17.8536 10.0135L20.2614 6.70364C20.2309 6.69289 20.2001 6.68218 20.1691 6.67152C19.2384 6.35168 18.1329 6.08371 16.8994 5.88667ZM4.5 3.30988L4.56746 3.29249L4.5 3.25772V3.30988ZM20.5675 3.29249L20.5 3.30988V3.25772L20.5675 3.29249Z" fill="#101820"/>
</g>
</svg>
