<svg width="100" height="100" viewBox="0 0 100 100" fill="none" xmlns="http://www.w3.org/2000/svg">
<ellipse cx="43.6079" cy="58.5775" rx="43.6079" ry="41.4225" fill="#E1EDFF"/>
<path fill-rule="evenodd" clip-rule="evenodd" d="M48.469 0C45.2638 0 42.7767 2.58576 43.1511 5.52875L43.534 8.53874C36.7089 6.6087 30.0229 13.0406 33.0637 19.5106L39.4353 33.0678L41.3997 32.2787L35.0281 18.7215C32.6016 13.5586 38.3821 8.42781 43.816 10.7555L46.2753 30.0875C46.8499 34.6048 49.1904 38.7723 52.8563 41.8057C55.4307 43.9358 58.4489 45.3499 61.6127 46.048V52.4929H49.5325C45.6933 52.4929 42.5811 55.3703 42.5811 58.9197C42.5811 62.4692 45.6933 65.3466 49.5325 65.3466H82.6318C86.4709 65.3466 89.5832 62.4692 89.5832 58.9197C89.5832 55.3703 86.471 52.4929 82.6318 52.4929H71.0051V46.048C74.1687 45.3498 77.1868 43.9357 79.7611 41.8057C83.427 38.7723 85.7675 34.6048 86.3421 30.0875L88.8012 10.7563C94.1063 8.4894 99.7171 13.5609 97.2512 18.5625L90.4967 32.2626L92.4456 33.0839L99.2001 19.3838C102.313 13.0694 95.7908 6.67172 89.0829 8.54248L89.4662 5.52874C89.8406 2.58576 87.3535 0 84.1484 0H48.469ZM68.8633 52.0352V46.7546H68.8789V44.4088C69.1061 44.3787 69.3328 44.3445 69.5588 44.3064C69.6679 44.2686 69.7854 44.2469 69.908 44.2441C72.9527 43.6726 75.87 42.3679 78.3327 40.3301C81.6094 37.6188 83.7013 33.8939 84.215 29.8562L87.3391 5.29744C87.5637 3.53166 86.0714 1.9802 84.1484 1.9802H48.469C46.5459 1.9802 45.0536 3.53166 45.2782 5.29745L48.4024 29.8562C48.9161 33.8939 51.008 37.6188 54.2847 40.3301C56.7474 42.3679 59.6647 43.6726 62.7094 44.2441C62.8323 44.2468 62.95 44.2686 63.0593 44.3065C63.2897 44.3454 63.5208 44.3801 63.7523 44.4106V46.7546H63.7545V52.0352H63.7523V54.4731H49.5325C46.8762 54.4731 44.7229 56.4639 44.7229 58.9197C44.7229 61.3756 46.8762 63.3664 49.5325 63.3664H82.6318C85.2881 63.3664 87.4414 61.3756 87.4414 58.9197C87.4414 56.4639 85.2881 54.4731 82.6318 54.4731H68.8789V52.0352H68.8633Z" fill="#002D72"/>
</svg>
