<svg width="24" height="25" viewBox="0 0 24 25" fill="none" xmlns="http://www.w3.org/2000/svg">
<g opacity="0.6">
<path d="M11.849 2.07686L14.0779 5.90998C14.2546 6.2138 14.4123 6.52545 14.5508 6.84326C14.9036 6.80274 15.2572 6.77143 15.6112 6.74933C15.4286 6.2896 15.2108 5.84034 14.958 5.40552L12.729 1.5724C11.9662 0.260591 10.3441 -0.28935 8.93252 0.285248L7.30057 0.949538C5.61164 1.63702 4.02368 2.54729 2.57956 3.65578L1.18416 4.72686C-0.0228363 5.65333 -0.354182 7.32302 0.408635 8.63484L2.63758 12.468C4.23719 15.2188 7.04188 17.0521 10.1974 17.4371C10.0934 17.0911 10.0079 16.7387 9.94151 16.3813C7.25735 15.9397 4.89272 14.3283 3.51761 11.9635L1.28866 8.13038C0.780117 7.25584 1.00101 6.1427 1.80568 5.52506L3.20108 4.45398C4.573 3.40092 6.08155 2.53616 7.68604 1.88305L9.31799 1.21876C10.2591 0.835694 11.3404 1.20232 11.849 2.07686Z" fill="#101820"/>
<path d="M8.71681 6.21956C8.43678 6.20163 8.19514 6.41248 8.17708 6.69051C8.15902 6.96854 8.37138 7.20846 8.65141 7.22639C9.96312 7.31038 11.197 6.60306 11.7796 5.43319C11.904 5.18344 11.8009 4.88088 11.5494 4.7574C11.2978 4.63391 10.9931 4.73626 10.8687 4.98601C10.468 5.79077 9.61914 6.27734 8.71681 6.21956Z" fill="#101820"/>
<path d="M4.31668 8.74186C4.03665 8.72393 3.79501 8.93478 3.77695 9.21281C3.75889 9.49084 3.97125 9.73076 4.25128 9.74869C5.56299 9.83268 6.79692 9.12535 7.37951 7.95549C7.50388 7.70574 7.40079 7.40318 7.14925 7.27969C6.89771 7.15621 6.59298 7.25856 6.46861 7.50831C6.06784 8.31307 5.21901 8.79964 4.31668 8.74186Z" fill="#101820"/>
<path d="M21.2333 12.1597C20.1397 11.4358 18.7148 11.4358 17.6212 12.1597C17.3877 12.3142 17.3246 12.6274 17.4802 12.8593C17.6359 13.0911 17.9514 13.1537 18.1848 12.9992C18.9372 12.5012 19.9173 12.5012 20.6697 12.9992C20.9031 13.1537 21.2186 13.0911 21.3743 12.8593C21.5299 12.6274 21.4668 12.3142 21.2333 12.1597Z" fill="#101820"/>
<path d="M12.5403 12.1597C13.634 11.4358 15.0588 11.4358 16.1525 12.1597C16.386 12.3142 16.4491 12.6274 16.2934 12.8593C16.1378 13.0911 15.8223 13.1537 15.5888 12.9992C14.8365 12.5012 13.8563 12.5012 13.104 12.9992C12.8705 13.1537 12.5551 13.0911 12.3994 12.8593C12.2438 12.6274 12.3068 12.3142 12.5403 12.1597Z" fill="#101820"/>
<path d="M14.1976 16.2584C13.9992 16.0614 13.6775 16.0614 13.4791 16.2584C13.2806 16.4554 13.2806 16.7748 13.4791 16.9718C15.3611 18.8405 18.4125 18.8405 20.2946 16.9718C20.493 16.7748 20.493 16.4554 20.2946 16.2584C20.0962 16.0614 19.7745 16.0614 19.5761 16.2584C18.0908 17.733 15.6828 17.733 14.1976 16.2584Z" fill="#101820"/>
<path fill-rule="evenodd" clip-rule="evenodd" d="M7.21397 12.98C7.59234 11.5779 8.56012 10.489 9.7817 9.90549C9.88515 8.48866 10.9756 7.32024 12.4133 7.12704L14.1612 6.89218C15.97 6.64912 17.8036 6.64912 19.6125 6.89218L21.3603 7.12704C22.8722 7.33019 24 8.6117 24 10.1265V14.5526C24 17.9012 22.3266 21.0317 19.5333 22.9084L18.5953 23.5386C17.5634 24.2319 16.2103 24.2319 15.1783 23.5386L14.2404 22.9084C11.4471 21.0317 9.77366 17.9012 9.77366 14.5526V11.0672C9.02435 11.5579 8.44611 12.3125 8.19551 13.2411C8.12288 13.5102 7.84428 13.6699 7.57323 13.5978C7.30219 13.5257 7.14134 13.2491 7.21397 12.98ZM22.9838 14.5526V10.1265C22.9838 9.11662 22.232 8.26228 21.2241 8.12685L19.4762 7.89198C17.7578 7.66107 16.0159 7.66107 14.2974 7.89198L12.5496 8.12685C11.5417 8.26228 10.7898 9.11662 10.7898 10.1265V14.5526C10.7898 17.5664 12.2959 20.3838 14.8099 22.0728L15.7478 22.703C16.4358 23.1652 17.3379 23.1652 18.0258 22.703L18.9638 22.0728C21.4777 20.3838 22.9838 17.5664 22.9838 14.5526Z" fill="#101820"/>
</g>
</svg>
