<svg width="24" height="25" viewBox="0 0 24 25" fill="none" xmlns="http://www.w3.org/2000/svg">
<g opacity="0.6">
<path fill-rule="evenodd" clip-rule="evenodd" d="M18.8764 2.05859C18.8764 3.16316 17.981 4.05859 16.8764 4.05859C15.7719 4.05859 14.8764 3.16316 14.8764 2.05859C14.8764 0.954024 15.7719 0.0585938 16.8764 0.0585938C17.981 0.0585938 18.8764 0.954024 18.8764 2.05859ZM17.8764 2.05859C17.8764 2.61088 17.4287 3.05859 16.8764 3.05859C16.3242 3.05859 15.8764 2.61088 15.8764 2.05859C15.8764 1.50631 16.3242 1.05859 16.8764 1.05859C17.4287 1.05859 17.8764 1.50631 17.8764 2.05859Z" fill="#101820"/>
<path fill-rule="evenodd" clip-rule="evenodd" d="M11.8764 4.05859H10.3764V6.05859C11.2049 6.05859 11.8764 6.73017 11.8764 7.55859C11.8764 7.97675 11.7053 8.35494 11.4293 8.62697C13.4667 9.58601 14.877 11.6576 14.877 14.0586V16.0586H21.8764C22.981 16.0586 23.8764 16.954 23.8764 18.0586V22.0586C23.8764 23.1632 22.981 24.0586 21.8764 24.0586H2.16215C1.60987 24.0586 1.16215 23.6109 1.16215 23.0586V21.0586L0.00689183 11.1747C-0.0625655 10.5804 0.401839 10.0586 1.00013 10.0586H4.40476C4.93893 9.46177 5.59081 8.97251 6.3239 8.62731C6.04769 8.35525 5.87644 7.97692 5.87644 7.55859C5.87644 6.73017 6.54801 6.05859 7.37644 6.05859V4.05859H6.87644C6.32415 4.05859 5.87644 3.61088 5.87644 3.05859V2.05859C5.87644 1.50631 6.32415 1.05859 6.87644 1.05859H11.8764C12.4287 1.05859 12.8764 1.50631 12.8764 2.05859V3.05859C12.8764 3.61088 12.4287 4.05859 11.8764 4.05859ZM11.8764 3.05859H6.87644V2.05859H11.8764V3.05859ZM13.877 14.0586V16.0586H12.8764C11.7719 16.0586 10.8764 16.954 10.8764 18.0586V22.0586C10.8764 22.4229 10.9738 22.7644 11.144 23.0586H7.59074L7.59073 21.0586L8.74599 11.1747C8.81544 10.5804 8.35104 10.0586 7.75275 10.0586H5.87649C6.71223 9.43068 7.75115 9.05859 8.87697 9.05859C11.6384 9.05859 13.877 11.2972 13.877 14.0586ZM8.37644 6.05859H9.37644V4.05859H8.37644V6.05859ZM10.3764 8.05859C10.6526 8.05859 10.8764 7.83474 10.8764 7.55859C10.8764 7.28245 10.6526 7.05859 10.3764 7.05859H7.37644C7.1003 7.05859 6.87644 7.28245 6.87644 7.55859C6.87644 7.83474 7.1003 8.05859 7.37644 8.05859H10.3764ZM2.11052 20.5586H6.64236L7.75275 11.0586H1.00013L2.11052 20.5586ZM6.59073 21.5586H2.16215L2.16215 23.0586H6.59072L6.59073 21.5586ZM21.8764 17.0586H12.8764C12.3242 17.0586 11.8764 17.5063 11.8764 18.0586V22.0586C11.8764 22.6109 12.3242 23.0586 12.8764 23.0586H21.8764C22.4287 23.0586 22.8764 22.6109 22.8764 22.0586V18.0586C22.8764 17.5063 22.4287 17.0586 21.8764 17.0586Z" fill="#101820"/>
<path fill-rule="evenodd" clip-rule="evenodd" d="M20.3764 10.0586C21.7572 10.0586 22.8764 8.93931 22.8764 7.55859C22.8764 6.17788 21.7572 5.05859 20.3764 5.05859C18.9957 5.05859 17.8764 6.17788 17.8764 7.55859C17.8764 8.93931 18.9957 10.0586 20.3764 10.0586ZM20.3764 9.05859C21.2049 9.05859 21.8764 8.38702 21.8764 7.55859C21.8764 6.73017 21.2049 6.05859 20.3764 6.05859C19.548 6.05859 18.8764 6.73017 18.8764 7.55859C18.8764 8.38702 19.548 9.05859 20.3764 9.05859Z" fill="#101820"/>
<path fill-rule="evenodd" clip-rule="evenodd" d="M16.8764 6.55859C16.8764 7.38702 16.2049 8.05859 15.3764 8.05859C14.548 8.05859 13.8764 7.38702 13.8764 6.55859C13.8764 5.73017 14.548 5.05859 15.3764 5.05859C16.2049 5.05859 16.8764 5.73017 16.8764 6.55859ZM15.8764 6.55859C15.8764 6.83474 15.6526 7.05859 15.3764 7.05859C15.1003 7.05859 14.8764 6.83474 14.8764 6.55859C14.8764 6.28245 15.1003 6.05859 15.3764 6.05859C15.6526 6.05859 15.8764 6.28245 15.8764 6.55859Z" fill="#101820"/>
</g>
</svg>
