<svg width="24" height="25" viewBox="0 0 24 25" fill="none" xmlns="http://www.w3.org/2000/svg">
<g opacity="0.6">
<path d="M7 4.55859H17V3.55859H7V4.55859Z" fill="#101820"/>
<path d="M7 8.55859H17V7.55859H7V8.55859Z" fill="#101820"/>
<path d="M3 13.5586H21V12.5586H3V13.5586Z" fill="#101820"/>
<path d="M3 19.5586H21V18.5586H3V19.5586Z" fill="#101820"/>
<path fill-rule="evenodd" clip-rule="evenodd" d="M4 4.05859C4 4.87639 4.39267 5.60248 4.99976 6.0586C4.39267 6.51471 4 7.24079 4 8.05859C4 8.6214 4.18597 9.14076 4.49982 9.55859H3.5C1.567 9.55859 0 11.1256 0 13.0586C0 14.3318 0.679792 15.4461 1.69621 16.0586C0.679792 16.671 0 17.7854 0 19.0586C0 20.9916 1.567 22.5586 3.5 22.5586H20.5C22.433 22.5586 24 20.9916 24 19.0586C24 17.7854 23.3202 16.671 22.3038 16.0586C23.3202 15.4461 24 14.3318 24 13.0586C24 11.1256 22.433 9.55859 20.5 9.55859H19.5002C19.814 9.14076 20 8.6214 20 8.05859C20 7.24079 19.6073 6.51471 19.0002 6.0586C19.6073 5.60248 20 4.87639 20 4.05859C20 2.67788 18.8807 1.55859 17.5 1.55859H6.5C5.11929 1.55859 4 2.67788 4 4.05859ZM17.5 2.55859H6.5C5.67157 2.55859 5 3.23017 5 4.05859C5 4.88702 5.67157 5.55859 6.5 5.55859H17.5C18.3284 5.55859 19 4.88702 19 4.05859C19 3.23017 18.3284 2.55859 17.5 2.55859ZM6.5 6.55859H17.5C18.3284 6.55859 19 7.23017 19 8.05859C19 8.88702 18.3284 9.55859 17.5 9.55859H6.5C5.67157 9.55859 5 8.88702 5 8.05859C5 7.23017 5.67157 6.55859 6.5 6.55859ZM20.5 10.5586C21.8807 10.5586 23 11.6779 23 13.0586C23 14.4393 21.8807 15.5586 20.5 15.5586H3.5C2.11929 15.5586 1 14.4393 1 13.0586C1 11.6779 2.11929 10.5586 3.5 10.5586H20.5ZM1 19.0586C1 17.6779 2.11929 16.5586 3.5 16.5586H20.5C21.8807 16.5586 23 17.6779 23 19.0586C23 20.4393 21.8807 21.5586 20.5 21.5586H3.5C2.11929 21.5586 1 20.4393 1 19.0586Z" fill="#101820"/>
</g>
</svg>
