<svg width="24" height="25" viewBox="0 0 24 25" fill="none" xmlns="http://www.w3.org/2000/svg">
<g opacity="0.6">
<path d="M17 2.05859H18.9995V3.05859H17V2.05859Z" fill="#101820"/>
<path d="M13 2.05859H5V3.05859H13V2.05859Z" fill="#101820"/>
<path d="M8.58397 10.7812C8.73715 10.5515 9.04759 10.4894 9.27735 10.6426L10.4168 11.4022C11.5653 12.1679 11.4582 13.8885 10.2236 14.5058C9.67582 14.7797 9.62828 15.5432 10.1379 15.8829L11.2774 16.6426C11.5071 16.7957 11.5692 17.1062 11.416 17.3359C11.2628 17.5657 10.9524 17.6278 10.7226 17.4746L9.58317 16.715C8.43472 15.9493 8.54184 14.2287 9.77639 13.6114C10.3242 13.3375 10.3717 12.574 9.86213 12.2343L8.72265 11.4746C8.49289 11.3214 8.4308 11.011 8.58397 10.7812Z" fill="#101820"/>
<path d="M13.2774 10.6426C13.0476 10.4894 12.7372 10.5515 12.584 10.7812C12.4308 11.011 12.4929 11.3214 12.7226 11.4746L13.8621 12.2343C14.3717 12.574 14.3242 13.3375 13.7764 13.6114C12.5418 14.2287 12.4347 15.9493 13.5832 16.715L14.7226 17.4746C14.9524 17.6278 15.2628 17.5657 15.416 17.3359C15.5692 17.1062 15.5071 16.7957 15.2774 16.6426L14.1379 15.8829C13.6283 15.5432 13.6758 14.7797 14.2236 14.5058C15.4582 13.8885 15.5653 12.1679 14.4168 11.4022L13.2774 10.6426Z" fill="#101820"/>
<path fill-rule="evenodd" clip-rule="evenodd" d="M12 21.0586C15.866 21.0586 19 17.9246 19 14.0586C19 10.1926 15.866 7.05859 12 7.05859C8.13401 7.05859 5 10.1926 5 14.0586C5 17.9246 8.13401 21.0586 12 21.0586ZM12 20.0586C15.3137 20.0586 18 17.3723 18 14.0586C18 10.7449 15.3137 8.05859 12 8.05859C8.68629 8.05859 6 10.7449 6 14.0586C6 17.3723 8.68629 20.0586 12 20.0586Z" fill="#101820"/>
<path fill-rule="evenodd" clip-rule="evenodd" d="M3 0.0585938C2.44772 0.0585938 2 0.50631 2 1.05859V23.0586C2 23.6109 2.44772 24.0586 3 24.0586H21C21.5523 24.0586 22 23.6109 22 23.0586V1.05859C22 0.506309 21.5523 0.0585938 21 0.0585938H3ZM21 1.05859H3V4.05859H21V1.05859ZM21 5.05859H3V23.0586H21V5.05859Z" fill="#101820"/>
</g>
</svg>
