<svg width="33" height="33" viewBox="0 0 33 33" fill="none" xmlns="http://www.w3.org/2000/svg">
<path fill-rule="evenodd" clip-rule="evenodd" d="M22.4682 12.2341C22.4682 17.6116 18.1089 21.9709 12.7314 21.9709C7.35394 21.9709 2.99463 17.6116 2.99463 12.2341C2.99463 6.85662 7.35394 2.49731 12.7314 2.49731C18.1089 2.49731 22.4682 6.85662 22.4682 12.2341ZM20.2934 21.2104C18.2509 22.9329 15.6124 23.9709 12.7314 23.9709C6.24937 23.9709 0.994629 18.7162 0.994629 12.2341C0.994629 5.75205 6.24937 0.497314 12.7314 0.497314C19.2135 0.497314 24.4682 5.75205 24.4682 12.2341C24.4682 15.1151 23.4301 17.7537 21.7076 19.7962L32.9998 31.0884L31.5856 32.5026L20.2934 21.2104Z" fill="#002D72"/>
</svg>
