<svg width="24" height="25" viewBox="0 0 24 25" fill="none" xmlns="http://www.w3.org/2000/svg">
<g opacity="0.6">
<path d="M17 2.05859H18.9995V3.05859H17V2.05859Z" fill="#101820"/>
<path d="M13 2.05859H5V3.05859H13V2.05859Z" fill="#101820"/>
<path d="M12 10.5586C13.933 10.5586 15.5 12.1256 15.5 14.0586H16.5C16.5 11.5733 14.4853 9.55859 12 9.55859V10.5586Z" fill="#101820"/>
<path fill-rule="evenodd" clip-rule="evenodd" d="M19 14.0586C19 17.9246 15.866 21.0586 12 21.0586C8.13401 21.0586 5 17.9246 5 14.0586C5 10.1926 8.13401 7.05859 12 7.05859C15.866 7.05859 19 10.1926 19 14.0586ZM18 14.0586C18 17.3723 15.3137 20.0586 12 20.0586C8.68629 20.0586 6 17.3723 6 14.0586C6 10.7449 8.68629 8.05859 12 8.05859C15.3137 8.05859 18 10.7449 18 14.0586Z" fill="#101820"/>
<path fill-rule="evenodd" clip-rule="evenodd" d="M3 0.0585938C2.44772 0.0585938 2 0.50631 2 1.05859V23.0586C2 23.6109 2.44772 24.0586 3 24.0586H21C21.5523 24.0586 22 23.6109 22 23.0586V1.05859C22 0.506309 21.5523 0.0585938 21 0.0585938H3ZM21 1.05859H3V4.05859H21V1.05859ZM21 5.05859H3V23.0586H21V5.05859Z" fill="#101820"/>
</g>
</svg>
