<svg width="24" height="25" viewBox="0 0 24 25" fill="none" xmlns="http://www.w3.org/2000/svg">
<g opacity="0.6">
<path fill-rule="evenodd" clip-rule="evenodd" d="M8 14.9713C8 14.4222 8.44772 13.9771 9 13.9771H15C15.5523 13.9771 16 14.4222 16 14.9713V16.9596C16 17.5087 15.5523 17.9538 15 17.9538H9C8.44772 17.9538 8 17.5087 8 16.9596V14.9713ZM9 16.9596V14.9713H15V16.9596H9Z" fill="#101820"/>
<path d="M11 19.9422H9V18.948H11V19.9422Z" fill="#101820"/>
<path d="M13 19.9422H15V18.948H13V19.9422Z" fill="#101820"/>
<path d="M11.6464 5.67229L13.1464 4.18102L13.8536 4.88401L12.3536 6.37528L11.6464 5.67229Z" fill="#101820"/>
<path fill-rule="evenodd" clip-rule="evenodd" d="M16 6.02379C16 8.22007 14.2091 10.0005 12 10.0005C9.79086 10.0005 8 8.22007 8 6.02379C8 3.82751 9.79086 2.04707 12 2.04707C14.2091 2.04707 16 3.82751 16 6.02379ZM15 6.02379C15 7.671 13.6569 9.00632 12 9.00632C10.3431 9.00632 9 7.671 9 6.02379C9 4.37658 10.3431 3.04125 12 3.04125C13.6569 3.04125 15 4.37658 15 6.02379Z" fill="#101820"/>
<path fill-rule="evenodd" clip-rule="evenodd" d="M7 0.0585938C4.79086 0.0585904 3 1.83903 3 4.03531V18.1417C3 18.6667 3.16104 19.1793 3.46162 19.6109C7.59118 25.5412 16.4088 25.5412 20.5384 19.6109C20.839 19.1793 21 18.6667 21 18.1417V4.03532C21 1.83904 19.2091 0.058604 17 0.0586021L7 0.0585938ZM4 4.03531C4 2.7367 4.83481 1.63192 6 1.22249V6.02379C6 9.31821 8.68629 11.9889 12 11.9889C15.3137 11.9889 18 9.31821 18 6.02379V1.22249C19.1652 1.63193 20 2.7367 20 4.03532V18.1417C20 18.4645 19.901 18.7796 19.7162 19.045C15.9843 24.4042 8.01573 24.4042 4.28382 19.045C4.09901 18.7796 4 18.4645 4 18.1417V4.03531ZM17 1.05289H7V6.02379C7 8.76914 9.23858 10.9947 12 10.9947C14.7614 10.9947 17 8.76914 17 6.02379V1.05289Z" fill="#101820"/>
</g>
</svg>
