<svg width="24" height="25" viewBox="0 0 24 25" fill="none" xmlns="http://www.w3.org/2000/svg">
<g opacity="0.6">
<path fill-rule="evenodd" clip-rule="evenodd" d="M19 22.0586V17.0586H21C22.6569 17.0586 24 15.7154 24 14.0586V5.05859C24 3.40174 22.6569 2.05859 21 2.05859H19C19 0.954024 18.1046 0.0585938 17 0.0585938H6C4.89543 0.0585938 4 0.954024 4 2.05859V3.05859H1C0.447715 3.05859 0 3.50631 0 4.05859V4.57797C0 4.88175 0.13809 5.16907 0.375305 5.35884L4 8.25859V22.0586C4 23.1632 4.89543 24.0586 6 24.0586H17C18.1046 24.0586 19 23.1632 19 22.0586ZM6 1.05859H17C17.5523 1.05859 18 1.50631 18 2.05859L5 2.05859C5 1.50631 5.44771 1.05859 6 1.05859ZM7 3.05859H16V8.05859C16 8.61088 15.5523 9.05859 15 9.05859H8C7.44772 9.05859 7 8.61088 7 8.05859V3.05859ZM9 10.0586H8C6.89543 10.0586 6 9.16316 6 8.05859V3.05859H5V17.8371L6.23614 17.3735C7.6974 16.8256 9.33556 17.041 10.6055 17.9481C11.5407 18.616 12.7338 18.8097 13.8322 18.4717L18 17.1893V3.05859H17V8.05859C17 9.16316 16.1046 10.0586 15 10.0586H14V15.0586C14 15.6109 13.5523 16.0586 13 16.0586H10C9.44771 16.0586 9 15.6109 9 15.0586V10.0586ZM13 10.0586H10V15.0586H13V10.0586ZM19 4.05859V3.05859H21C22.1046 3.05859 23 3.95402 23 5.05859V14.0586C23 15.1632 22.1046 16.0586 21 16.0586H19V15.0586H20C21.1046 15.0586 22 14.1632 22 13.0586V6.05859C22 4.95402 21.1046 4.05859 20 4.05859H19ZM19 5.05859V14.0586H20C20.5523 14.0586 21 13.6109 21 13.0586V6.05859C21 5.50631 20.5523 5.05859 20 5.05859H19ZM4 4.05859V6.97797L1 4.57797L1 4.05859H4ZM5 18.9051V22.0586C5 22.6109 5.44772 23.0586 6 23.0586H17C17.5523 23.0586 18 22.6109 18 22.0586V18.2356L14.1263 19.4275C12.73 19.8571 11.2131 19.611 10.0243 18.7618C9.02531 18.0483 7.73671 17.8788 6.58726 18.3099L5 18.9051Z" fill="#101820"/>
</g>
</svg>
