<svg width="24" height="25" viewBox="0 0 24 25" fill="none" xmlns="http://www.w3.org/2000/svg">
<g opacity="0.6">
<path d="M2.68292 10.4122C3.62989 9.43185 7.37327 6.05859 12 6.05859C16.6267 6.05859 20.3701 9.43184 21.3171 10.4122L22 9.70502C21.0153 8.68559 17.0318 5.05859 12 5.05859C6.96818 5.05859 2.98474 8.6856 2 9.70502L2.68292 10.4122Z" fill="#101820"/>
<path d="M12.0001 10.0586C13.8082 10.0584 15.2854 10.7603 16.3199 11.4744C16.8362 11.8308 17.2374 12.1871 17.5082 12.4527C17.6435 12.5854 17.7456 12.6949 17.8128 12.7699C17.8464 12.8073 17.8712 12.8361 17.887 12.8547L17.9039 12.8748L17.9072 12.8789C17.9071 12.8787 17.907 12.8787 18.278 12.5586C18.6491 12.2385 18.6489 12.2384 18.6488 12.2382L18.6477 12.2368L18.6454 12.234L18.6381 12.2251C18.6321 12.2178 18.6237 12.2077 18.613 12.1951C18.5915 12.1698 18.5606 12.1341 18.5207 12.0895C18.4407 12.0003 18.3241 11.8755 18.1726 11.7268C17.8699 11.4299 17.426 11.0361 16.8557 10.6424C15.717 9.85638 14.0552 9.05834 11.9999 9.05859C9.94475 9.05885 8.28299 9.85685 7.14433 10.6427C6.57405 11.0363 6.13017 11.4301 5.82749 11.7269C5.67598 11.8755 5.55932 12.0003 5.47939 12.0895C5.4394 12.134 5.40856 12.1697 5.38709 12.195C5.37636 12.2077 5.36796 12.2178 5.36193 12.2251L5.35467 12.2339L5.35238 12.2367L5.35156 12.2377C5.35143 12.2379 5.35098 12.2385 5.72195 12.5586C6.09292 12.8787 6.09281 12.8789 6.09271 12.879L6.09605 12.8749L6.11292 12.8548C6.12871 12.8362 6.15352 12.8074 6.18711 12.77C6.25431 12.695 6.35649 12.5855 6.49171 12.4529C6.76251 12.1873 7.16375 11.8312 7.68006 11.4748C8.71456 10.7608 10.1918 10.0588 12.0001 10.0586Z" fill="#101820"/>
<path d="M8.47808 15.4121L7.7951 14.705L7.81006 14.6895C8.29805 14.1841 9.86725 12.5586 12 12.5586C13.111 12.5586 14.1755 13.126 14.924 13.6426C15.3061 13.9063 15.6235 14.1693 15.8457 14.3665C15.957 14.4653 16.0451 14.5482 16.1061 14.6071C16.1367 14.6366 16.1605 14.6602 16.1771 14.6768L16.1966 14.6965L16.2021 14.7022L16.2039 14.704L16.2047 14.7048C16.2048 14.7049 16.2049 14.705 15.8634 15.0586C15.5219 15.4121 15.522 15.4122 15.5221 15.4123L15.5191 15.4092L15.5054 15.3954C15.4928 15.3828 15.4732 15.3634 15.4471 15.3382C15.395 15.2878 15.317 15.2144 15.2171 15.1257C15.0167 14.9479 14.7305 14.7109 14.3882 14.4746C13.6879 13.9912 12.8207 13.5586 12 13.5586C10.2917 13.5586 8.97377 14.8989 8.47808 15.4121Z" fill="#101820"/>
<path d="M12 19.0586C12.5334 19.0586 12.9659 18.6109 12.9659 18.0586C12.9659 17.5063 12.5334 17.0586 12 17.0586C11.4666 17.0586 11.0341 17.5063 11.0341 18.0586C11.0341 18.6109 11.4666 19.0586 12 19.0586Z" fill="#101820"/>
</g>
</svg>
